  0
SECTION
  2
HEADER
  9
$ACADVER
  1
AC1014
  9
$HANDSEED
  5
FFFF
  9
$MEASUREMENT
 70
     1
  0
ENDSEC
  0
SECTION
  2
TABLES
  0
TABLE
  2
VPORT
  5
8
330
0
100
AcDbSymbolTable
 70
     4
  0
VPORT
  5
2E
330
8
100
AcDbSymbolTableRecord
100
AcDbViewportTableRecord
  2
*ACTIVE
 70
     0
 10
0.0
 20
0.0
 11
1.0
 21
1.0
 12
210.0
 22
148.5
 13
0.0
 23
0.0
 14
10.0
 24
10.0
 15
10.0
 25
10.0
 16
0.0
 26
0.0
 36
1.0
 17
0.0
 27
0.0
 37
0.0
 40
341.0
 41
1.24
 42
50.0
 43
0.0
 44
0.0
 50
0.0
 51
0.0
 71
     0
 72
   100
 73
     1
 74
     3
 75
     0
 76
     0
 77
     0
 78
     0
  0
ENDTAB
  0
TABLE
  2
LTYPE
  5
5
330
0
100
AcDbSymbolTable
 70
     1
  0
LTYPE
  5
14
330
5
100
AcDbSymbolTableRecord
100
AcDbLinetypeTableRecord
  2
BYBLOCK
 70
     0
  3

 72
    65
 73
     0
 40
0.0
  0
LTYPE
  5
15
330
5
100
AcDbSymbolTableRecord
100
AcDbLinetypeTableRecord
  2
BYLAYER
 70
     0
  3

 72
    65
 73
     0
 40
0.0
  0
LTYPE
  5
16
330
5
100
AcDbSymbolTableRecord
100
AcDbLinetypeTableRecord
  2
CONTINUOUS
 70
     0
  3
Solid line
 72
    65
 73
     0
 40
0.0
  0
ENDTAB
  0
TABLE
  2
LAYER
  5
2
100
AcDbSymbolTable
 70
2
  0
LAYER
  5
50
100
AcDbSymbolTableRecord
100
AcDbLayerTableRecord
  2
0
 70
0
  6
CONTINUOUS
  0
LAYER
  5
51
100
AcDbSymbolTableRecord
100
AcDbLayerTableRecord
  2
Layer_1
 70
0
  6
CONTINUOUS
  0
ENDTAB
  0
TABLE
  2
STYLE
  5
3
330
0
100
AcDbSymbolTable
 70
     1
  0
STYLE
  5
11
330
3
100
AcDbSymbolTableRecord
100
AcDbTextStyleTableRecord
  2
STANDARD
 70
     0
 40
0.0
 41
1.0
 50
0.0
 71
     0
 42
2.5
  3
txt
  4

  0
ENDTAB
  0
TABLE
  2
VIEW
  5
6
330
0
100
AcDbSymbolTable
 70
     0
  0
ENDTAB
  0
TABLE
  2
UCS
  5
7
330
0
100
AcDbSymbolTable
 70
     0
  0
ENDTAB
  0
TABLE
  2
APPID
  5
9
330
0
100
AcDbSymbolTable
 70
     2
  0
APPID
  5
12
330
9
100
AcDbSymbolTableRecord
100
AcDbRegAppTableRecord
  2
ACAD
 70
     0
  0
ENDTAB
  0
TABLE
  2
DIMSTYLE
  5
A
330
0
100
AcDbSymbolTable
 70
     1
  0
DIMSTYLE
105
27
330
A
100
AcDbSymbolTableRecord
100
AcDbDimStyleTableRecord
  2
ISO-25
 70
     0
  3

  4

  5

  6

  7

 40
1.0
 41
2.5
 42
0.625
 43
3.75
 44
1.25
 45
0.0
 46
0.0
 47
0.0
 48
0.0
140
2.5
141
2.5
142
0.0
143
0.03937007874016
144
1.0
145
0.0
146
1.0
147
0.625
 71
     0
 72
     0
 73
     0
 74
     0
 75
     0
 76
     0
 77
     1
 78
     8
170
     0
171
     3
172
     1
173
     0
174
     0
175
     0
176
     0
177
     0
178
     0
270
     2
271
     2
272
     2
273
     2
274
     3
340
11
275
     0
280
     0
281
     0
282
     0
283
     0
284
     8
285
     0
286
     0
287
     3
288
     0
  0
ENDTAB
  0
TABLE
  2
BLOCK_RECORD
  5
1
330
0
100
AcDbSymbolTable
 70
     1
  0
BLOCK_RECORD
  5
1F
330
1
100
AcDbSymbolTableRecord
100
AcDbBlockTableRecord
  2
*MODEL_SPACE
  0
BLOCK_RECORD
  5
1B
330
1
100
AcDbSymbolTableRecord
100
AcDbBlockTableRecord
  2
*PAPER_SPACE
  0
ENDTAB
  0
ENDSEC
  0
SECTION
  2
BLOCKS
  0
BLOCK
  5
20
330
1F
100
AcDbEntity
  8
0
100
AcDbBlockBegin
  2
*MODEL_SPACE
 70
     0
 10
0.0
 20
0.0
 30
0.0
  3
*MODEL_SPACE
  1

  0
ENDBLK
  5
21
330
1F
100
AcDbEntity
  8
0
100
AcDbBlockEnd
  0
BLOCK
  5
1C
330
1B
100
AcDbEntity
 67
     1
  8
0
100
AcDbBlockBegin
  2
*PAPER_SPACE
  1

  0
ENDBLK
  5
1D
330
1B
100
AcDbEntity
 67
     1
  8
0
100
AcDbBlockEnd
  0
ENDSEC
  0
SECTION
  2
ENTITIES
  0
SPLINE
  5
100
100
AcDbEntity
  8
Layer_1
 62
7
100
AcDbSpline
 70
8
 71
3
 72
8
 73
4
 74
0
 40
0
 40
0
 40
0
 40
0
 40
1
 40
1
 40
1
 40
1
 10
105.483501
 20
109.668739
 30
0.0
 10
107.415312
 20
109.668739
 30
0.0
 10
108.983410
 20
108.100642
 30
0.0
 10
108.983410
 20
106.168831
 30
0.0
  0
SPLINE
  5
101
100
AcDbEntity
  8
Layer_1
 62
7
100
AcDbSpline
 70
8
 71
3
 72
8
 73
4
 74
0
 40
0
 40
0
 40
0
 40
0
 40
1
 40
1
 40
1
 40
1
 10
108.983410
 20
106.168831
 30
0.0
 10
108.983410
 20
104.236667
 30
0.0
 10
107.415312
 20
102.668570
 30
0.0
 10
105.483501
 20
102.668570
 30
0.0
  0
SPLINE
  5
102
100
AcDbEntity
  8
Layer_1
 62
7
100
AcDbSpline
 70
8
 71
3
 72
8
 73
4
 74
0
 40
0
 40
0
 40
0
 40
0
 40
1
 40
1
 40
1
 40
1
 10
105.483501
 20
102.668570
 30
0.0
 10
103.551690
 20
102.668570
 30
0.0
 10
101.983593
 20
104.236667
 30
0.0
 10
101.983593
 20
106.168831
 30
0.0
  0
SPLINE
  5
103
100
AcDbEntity
  8
Layer_1
 62
7
100
AcDbSpline
 70
8
 71
3
 72
8
 73
4
 74
0
 40
0
 40
0
 40
0
 40
0
 40
1
 40
1
 40
1
 40
1
 10
101.983593
 20
106.168831
 30
0.0
 10
101.983593
 20
108.100642
 30
0.0
 10
103.551690
 20
109.668739
 30
0.0
 10
105.483501
 20
109.668739
 30
0.0
  0
SPLINE
  5
104
100
AcDbEntity
  8
Layer_1
 62
7
100
AcDbSpline
 70
8
 71
3
 72
8
 73
4
 74
0
 40
0
 40
0
 40
0
 40
0
 40
1
 40
1
 40
1
 40
1
 10
105.483501
 20
193.175826
 30
0.0
 10
107.415312
 20
193.175826
 30
0.0
 10
108.983410
 20
191.607728
 30
0.0
 10
108.983410
 20
189.675917
 30
0.0
  0
SPLINE
  5
105
100
AcDbEntity
  8
Layer_1
 62
7
100
AcDbSpline
 70
8
 71
3
 72
8
 73
4
 74
0
 40
0
 40
0
 40
0
 40
0
 40
1
 40
1
 40
1
 40
1
 10
108.983410
 20
189.675917
 30
0.0
 10
108.983410
 20
187.744106
 30
0.0
 10
107.415312
 20
186.176009
 30
0.0
 10
105.483501
 20
186.176009
 30
0.0
  0
SPLINE
  5
106
100
AcDbEntity
  8
Layer_1
 62
7
100
AcDbSpline
 70
8
 71
3
 72
8
 73
4
 74
0
 40
0
 40
0
 40
0
 40
0
 40
1
 40
1
 40
1
 40
1
 10
105.483501
 20
186.176009
 30
0.0
 10
103.551690
 20
186.176009
 30
0.0
 10
101.983593
 20
187.744106
 30
0.0
 10
101.983593
 20
189.675917
 30
0.0
  0
SPLINE
  5
107
100
AcDbEntity
  8
Layer_1
 62
7
100
AcDbSpline
 70
8
 71
3
 72
8
 73
4
 74
0
 40
0
 40
0
 40
0
 40
0
 40
1
 40
1
 40
1
 40
1
 10
101.983593
 20
189.675917
 30
0.0
 10
101.983593
 20
191.607728
 30
0.0
 10
103.551690
 20
193.175826
 30
0.0
 10
105.483501
 20
193.175826
 30
0.0
  0
LWPOLYLINE
  5
108
100
AcDbEntity
  8
Layer_1
 62
7
100
AcDbPolyline
 90
2
 70
0
 10
105.483501
 20
109.668739
 30
0.0
 10
105.483501
 20
109.668739
 30
0.0
  0
LWPOLYLINE
  5
109
100
AcDbEntity
  8
Layer_1
 62
7
100
AcDbPolyline
 90
2
 70
0
 10
105.483501
 20
193.175826
 30
0.0
 10
105.483501
 20
193.175826
 30
0.0
  0
SPLINE
  5
10a
100
AcDbEntity
  8
Layer_1
 62
7
100
AcDbSpline
 70
8
 71
3
 72
8
 73
4
 74
0
 40
0
 40
0
 40
0
 40
0
 40
1
 40
1
 40
1
 40
1
 10
111.990135
 20
100.831303
 30
0.0
 10
111.887476
 20
107.114276
 30
0.0
 10
117.311435
 20
108.640392
 30
0.0
 10
119.342376
 20
115.063770
 30
0.0
  0
LWPOLYLINE
  5
10b
100
AcDbEntity
  8
Layer_1
 62
7
100
AcDbPolyline
 90
2
 70
0
 10
105.483854
 20
100.831303
 30
0.0
 10
111.990135
 20
100.831303
 30
0.0
  0
SPLINE
  5
10c
100
AcDbEntity
  8
Layer_1
 62
7
100
AcDbSpline
 70
8
 71
3
 72
8
 73
4
 74
0
 40
0
 40
0
 40
0
 40
0
 40
1
 40
1
 40
1
 40
1
 10
119.342376
 20
181.114001
 30
0.0
 10
119.463732
 20
184.557464
 30
0.0
 10
112.283646
 20
188.090181
 30
0.0
 10
112.069510
 20
195.031084
 30
0.0
  0
LWPOLYLINE
  5
10d
100
AcDbEntity
  8
Layer_1
 62
7
100
AcDbPolyline
 90
2
 70
0
 10
119.342376
 20
115.063770
 30
0.0
 10
119.342376
 20
181.114001
 30
0.0
  0
LWPOLYLINE
  5
10e
100
AcDbEntity
  8
Layer_1
 62
7
100
AcDbPolyline
 90
2
 70
0
 10
112.069510
 20
195.031084
 30
0.0
 10
105.483854
 20
195.031084
 30
0.0
  0
SPLINE
  5
10f
100
AcDbEntity
  8
Layer_1
 62
7
100
AcDbSpline
 70
8
 71
3
 72
8
 73
4
 74
0
 40
0
 40
0
 40
0
 40
0
 40
1
 40
1
 40
1
 40
1
 10
98.977221
 20
100.831303
 30
0.0
 10
99.079879
 20
107.114276
 30
0.0
 10
93.655921
 20
108.640392
 30
0.0
 10
91.624626
 20
115.063770
 30
0.0
  0
LWPOLYLINE
  5
110
100
AcDbEntity
  8
Layer_1
 62
7
100
AcDbPolyline
 90
2
 70
0
 10
105.483501
 20
100.831303
 30
0.0
 10
98.977221
 20
100.831303
 30
0.0
  0
SPLINE
  5
111
100
AcDbEntity
  8
Layer_1
 62
7
100
AcDbSpline
 70
8
 71
3
 72
8
 73
4
 74
0
 40
0
 40
0
 40
0
 40
0
 40
1
 40
1
 40
1
 40
1
 10
91.624626
 20
181.114001
 30
0.0
 10
91.503623
 20
184.557464
 30
0.0
 10
98.683357
 20
188.090181
 30
0.0
 10
98.897846
 20
195.031084
 30
0.0
  0
LWPOLYLINE
  5
112
100
AcDbEntity
  8
Layer_1
 62
7
100
AcDbPolyline
 90
2
 70
0
 10
91.624626
 20
115.063770
 30
0.0
 10
91.624626
 20
181.114001
 30
0.0
  0
LWPOLYLINE
  5
113
100
AcDbEntity
  8
Layer_1
 62
7
100
AcDbPolyline
 90
2
 70
0
 10
98.897846
 20
195.031084
 30
0.0
 10
105.483501
 20
195.031084
 30
0.0
  0
SPLINE
  5
114
100
AcDbEntity
  8
Layer_1
 62
7
100
AcDbSpline
 70
8
 71
3
 72
8
 73
4
 74
0
 40
0
 40
0
 40
0
 40
0
 40
1
 40
1
 40
1
 40
1
 10
105.395660
 20
183.435631
 30
0.0
 10
108.127218
 20
183.435631
 30
0.0
 10
110.344779
 20
181.295328
 30
0.0
 10
110.344779
 20
178.658314
 30
0.0
  0
LWPOLYLINE
  5
115
100
AcDbEntity
  8
Layer_1
 62
7
100
AcDbPolyline
 90
2
 70
0
 10
105.395660
 20
183.435631
 30
0.0
 10
105.395660
 20
183.435631
 30
0.0
  0
SPLINE
  5
116
100
AcDbEntity
  8
Layer_1
 62
7
100
AcDbSpline
 70
8
 71
3
 72
8
 73
4
 74
0
 40
0
 40
0
 40
0
 40
0
 40
1
 40
1
 40
1
 40
1
 10
110.344779
 20
117.113409
 30
0.0
 10
110.344779
 20
114.476395
 30
0.0
 10
108.127571
 20
112.335739
 30
0.0
 10
105.395660
 20
112.335739
 30
0.0
  0
LWPOLYLINE
  5
117
100
AcDbEntity
  8
Layer_1
 62
7
100
AcDbPolyline
 90
2
 70
0
 10
110.344779
 20
178.658314
 30
0.0
 10
110.344779
 20
117.113409
 30
0.0
  0
SPLINE
  5
118
100
AcDbEntity
  8
Layer_1
 62
7
100
AcDbSpline
 70
8
 71
3
 72
8
 73
4
 74
0
 40
0
 40
0
 40
0
 40
0
 40
1
 40
1
 40
1
 40
1
 10
105.395660
 20
112.335739
 30
0.0
 10
102.664101
 20
112.335739
 30
0.0
 10
100.446893
 20
114.476395
 30
0.0
 10
100.446893
 20
117.113409
 30
0.0
  0
LWPOLYLINE
  5
119
100
AcDbEntity
  8
Layer_1
 62
7
100
AcDbPolyline
 90
2
 70
0
 10
105.395660
 20
112.335739
 30
0.0
 10
105.395660
 20
112.335739
 30
0.0
  0
SPLINE
  5
11a
100
AcDbEntity
  8
Layer_1
 62
7
100
AcDbSpline
 70
8
 71
3
 72
8
 73
4
 74
0
 40
0
 40
0
 40
0
 40
0
 40
1
 40
1
 40
1
 40
1
 10
100.446893
 20
178.658314
 30
0.0
 10
100.446893
 20
181.295328
 30
0.0
 10
102.664101
 20
183.435631
 30
0.0
 10
105.395660
 20
183.435631
 30
0.0
  0
LWPOLYLINE
  5
11b
100
AcDbEntity
  8
Layer_1
 62
7
100
AcDbPolyline
 90
2
 70
0
 10
100.446893
 20
117.113409
 30
0.0
 10
100.446893
 20
178.658314
 30
0.0
  0
LWPOLYLINE
  5
11c
100
AcDbEntity
  8
Layer_1
 62
7
100
AcDbPolyline
 90
2
 70
0
 10
105.395660
 20
183.435631
 30
0.0
 10
105.395660
 20
183.435631
 30
0.0
  0
SPLINE
  5
11d
100
AcDbEntity
  8
Layer_1
 62
7
100
AcDbSpline
 70
8
 71
3
 72
8
 73
4
 74
0
 40
0
 40
0
 40
0
 40
0
 40
1
 40
1
 40
1
 40
1
 10
105.395660
 20
182.685626
 30
0.0
 10
107.714115
 20
182.685626
 30
0.0
 10
109.595832
 20
180.590478
 30
0.0
 10
109.595832
 20
178.009203
 30
0.0
  0
LWPOLYLINE
  5
11e
100
AcDbEntity
  8
Layer_1
 62
7
100
AcDbPolyline
 90
2
 70
0
 10
105.395660
 20
182.685626
 30
0.0
 10
105.395660
 20
182.685626
 30
0.0
  0
SPLINE
  5
11f
100
AcDbEntity
  8
Layer_1
 62
7
100
AcDbSpline
 70
8
 71
3
 72
8
 73
4
 74
0
 40
0
 40
0
 40
0
 40
0
 40
1
 40
1
 40
1
 40
1
 10
109.595832
 20
117.762520
 30
0.0
 10
109.595832
 20
115.181245
 30
0.0
 10
107.714115
 20
113.085745
 30
0.0
 10
105.395660
 20
113.085745
 30
0.0
  0
LWPOLYLINE
  5
120
100
AcDbEntity
  8
Layer_1
 62
7
100
AcDbPolyline
 90
2
 70
0
 10
109.595832
 20
178.009203
 30
0.0
 10
109.595832
 20
117.762520
 30
0.0
  0
SPLINE
  5
121
100
AcDbEntity
  8
Layer_1
 62
7
100
AcDbSpline
 70
8
 71
3
 72
8
 73
4
 74
0
 40
0
 40
0
 40
0
 40
0
 40
1
 40
1
 40
1
 40
1
 10
105.395660
 20
113.085745
 30
0.0
 10
103.077557
 20
113.085745
 30
0.0
 10
101.195840
 20
115.181245
 30
0.0
 10
101.195840
 20
117.762520
 30
0.0
  0
LWPOLYLINE
  5
122
100
AcDbEntity
  8
Layer_1
 62
7
100
AcDbPolyline
 90
2
 70
0
 10
105.395660
 20
113.085745
 30
0.0
 10
105.395660
 20
113.085745
 30
0.0
  0
SPLINE
  5
123
100
AcDbEntity
  8
Layer_1
 62
7
100
AcDbSpline
 70
8
 71
3
 72
8
 73
4
 74
0
 40
0
 40
0
 40
0
 40
0
 40
1
 40
1
 40
1
 40
1
 10
101.195840
 20
178.009203
 30
0.0
 10
101.195840
 20
180.590478
 30
0.0
 10
103.077557
 20
182.685626
 30
0.0
 10
105.395660
 20
182.685626
 30
0.0
  0
LWPOLYLINE
  5
124
100
AcDbEntity
  8
Layer_1
 62
7
100
AcDbPolyline
 90
2
 70
0
 10
101.195840
 20
117.762520
 30
0.0
 10
101.195840
 20
178.009203
 30
0.0
  0
SPLINE
  5
125
100
AcDbEntity
  8
Layer_1
 62
7
100
AcDbSpline
 70
8
 71
3
 72
8
 73
4
 74
0
 40
0
 40
0
 40
0
 40
0
 40
1
 40
1
 40
1
 40
1
 10
105.833457
 20
89.755492
 30
0.0
 10
137.295590
 20
89.755492
 30
0.0
 10
162.833173
 20
115.293076
 30
0.0
 10
162.833173
 20
146.755562
 30
0.0
  0
SPLINE
  5
126
100
AcDbEntity
  8
Layer_1
 62
7
100
AcDbSpline
 70
8
 71
3
 72
8
 73
4
 74
0
 40
0
 40
0
 40
0
 40
0
 40
1
 40
1
 40
1
 40
1
 10
162.833173
 20
146.755562
 30
0.0
 10
162.833173
 20
178.217695
 30
0.0
 10
137.295590
 20
203.755631
 30
0.0
 10
105.833457
 20
203.755631
 30
0.0
  0
SPLINE
  5
127
100
AcDbEntity
  8
Layer_1
 62
7
100
AcDbSpline
 70
8
 71
3
 72
8
 73
4
 74
0
 40
0
 40
0
 40
0
 40
0
 40
1
 40
1
 40
1
 40
1
 10
105.833457
 20
203.755631
 30
0.0
 10
74.370971
 20
203.755631
 30
0.0
 10
48.833387
 20
178.217695
 30
0.0
 10
48.833387
 20
146.755562
 30
0.0
  0
SPLINE
  5
128
100
AcDbEntity
  8
Layer_1
 62
7
100
AcDbSpline
 70
8
 71
3
 72
8
 73
4
 74
0
 40
0
 40
0
 40
0
 40
0
 40
1
 40
1
 40
1
 40
1
 10
48.833387
 20
146.755562
 30
0.0
 10
48.833387
 20
115.293076
 30
0.0
 10
74.370971
 20
89.755492
 30
0.0
 10
105.833457
 20
89.755492
 30
0.0
  0
LWPOLYLINE
  5
129
100
AcDbEntity
  8
Layer_1
 62
7
100
AcDbPolyline
 90
2
 70
0
 10
105.395660
 20
182.685626
 30
0.0
 10
105.395660
 20
182.685626
 30
0.0
  0
SPLINE
  5
12a
100
AcDbEntity
  8
Layer_1
 62
7
100
AcDbSpline
 70
8
 71
3
 72
8
 73
4
 74
0
 40
0
 40
0
 40
0
 40
0
 40
1
 40
1
 40
1
 40
1
 10
105.833457
 20
80.755426
 30
0.0
 10
143.091376
 20
80.755426
 30
0.0
 10
173.333251
 20
110.325612
 30
0.0
 10
173.333251
 20
146.755562
 30
0.0
  0
SPLINE
  5
12b
100
AcDbEntity
  8
Layer_1
 62
7
100
AcDbSpline
 70
8
 71
3
 72
8
 73
4
 74
0
 40
0
 40
0
 40
0
 40
0
 40
1
 40
1
 40
1
 40
1
 10
173.333251
 20
146.755562
 30
0.0
 10
173.333251
 20
183.185512
 30
0.0
 10
143.091376
 20
212.755345
 30
0.0
 10
105.833457
 20
212.755345
 30
0.0
  0
SPLINE
  5
12c
100
AcDbEntity
  8
Layer_1
 62
7
100
AcDbSpline
 70
8
 71
3
 72
8
 73
4
 74
0
 40
0
 40
0
 40
0
 40
0
 40
1
 40
1
 40
1
 40
1
 10
105.833457
 20
212.755345
 30
0.0
 10
68.575185
 20
212.755345
 30
0.0
 10
38.333310
 20
183.185512
 30
0.0
 10
38.333310
 20
146.755562
 30
0.0
  0
SPLINE
  5
12d
100
AcDbEntity
  8
Layer_1
 62
7
100
AcDbSpline
 70
8
 71
3
 72
8
 73
4
 74
0
 40
0
 40
0
 40
0
 40
0
 40
1
 40
1
 40
1
 40
1
 10
38.333310
 20
146.755562
 30
0.0
 10
38.333310
 20
110.325612
 30
0.0
 10
68.575185
 20
80.755426
 30
0.0
 10
105.833457
 20
80.755426
 30
0.0
  0
LWPOLYLINE
  5
12e
100
AcDbEntity
  8
Layer_1
 62
7
100
AcDbPolyline
 90
2
 70
0
 10
105.833457
 20
89.755492
 30
0.0
 10
105.833457
 20
89.755492
 30
0.0
  0
SPLINE
  5
12f
100
AcDbEntity
  8
Layer_1
 62
7
100
AcDbSpline
 70
8
 71
3
 72
8
 73
4
 74
0
 40
0
 40
0
 40
0
 40
0
 40
1
 40
1
 40
1
 40
1
 10
41.883312
 20
150.255470
 30
0.0
 10
43.815123
 20
150.255470
 30
0.0
 10
45.383221
 20
148.687373
 30
0.0
 10
45.383221
 20
146.755562
 30
0.0
  0
SPLINE
  5
130
100
AcDbEntity
  8
Layer_1
 62
7
100
AcDbSpline
 70
8
 71
3
 72
8
 73
4
 74
0
 40
0
 40
0
 40
0
 40
0
 40
1
 40
1
 40
1
 40
1
 10
45.383221
 20
146.755562
 30
0.0
 10
45.383221
 20
144.823398
 30
0.0
 10
43.815123
 20
143.255301
 30
0.0
 10
41.883312
 20
143.255301
 30
0.0
  0
SPLINE
  5
131
100
AcDbEntity
  8
Layer_1
 62
7
100
AcDbSpline
 70
8
 71
3
 72
8
 73
4
 74
0
 40
0
 40
0
 40
0
 40
0
 40
1
 40
1
 40
1
 40
1
 10
41.883312
 20
143.255301
 30
0.0
 10
39.951501
 20
143.255301
 30
0.0
 10
38.383404
 20
144.823398
 30
0.0
 10
38.383404
 20
146.755562
 30
0.0
  0
SPLINE
  5
132
100
AcDbEntity
  8
Layer_1
 62
7
100
AcDbSpline
 70
8
 71
3
 72
8
 73
4
 74
0
 40
0
 40
0
 40
0
 40
0
 40
1
 40
1
 40
1
 40
1
 10
38.383404
 20
146.755562
 30
0.0
 10
38.383404
 20
148.687373
 30
0.0
 10
39.951501
 20
150.255470
 30
0.0
 10
41.883312
 20
150.255470
 30
0.0
  0
LWPOLYLINE
  5
133
100
AcDbEntity
  8
Layer_1
 62
7
100
AcDbPolyline
 90
2
 70
0
 10
105.833457
 20
80.755426
 30
0.0
 10
105.833457
 20
80.755426
 30
0.0
  0
SPLINE
  5
134
100
AcDbEntity
  8
Layer_1
 62
7
100
AcDbSpline
 70
8
 71
3
 72
8
 73
4
 74
0
 40
0
 40
0
 40
0
 40
0
 40
1
 40
1
 40
1
 40
1
 10
169.783248
 20
150.255470
 30
0.0
 10
171.715060
 20
150.255470
 30
0.0
 10
173.283157
 20
148.687373
 30
0.0
 10
173.283157
 20
146.755562
 30
0.0
  0
SPLINE
  5
135
100
AcDbEntity
  8
Layer_1
 62
7
100
AcDbSpline
 70
8
 71
3
 72
8
 73
4
 74
0
 40
0
 40
0
 40
0
 40
0
 40
1
 40
1
 40
1
 40
1
 10
173.283157
 20
146.755562
 30
0.0
 10
173.283157
 20
144.823751
 30
0.0
 10
171.715060
 20
143.255653
 30
0.0
 10
169.783248
 20
143.255653
 30
0.0
  0
SPLINE
  5
136
100
AcDbEntity
  8
Layer_1
 62
7
100
AcDbSpline
 70
8
 71
3
 72
8
 73
4
 74
0
 40
0
 40
0
 40
0
 40
0
 40
1
 40
1
 40
1
 40
1
 10
169.783248
 20
143.255653
 30
0.0
 10
167.851437
 20
143.255653
 30
0.0
 10
166.283340
 20
144.823751
 30
0.0
 10
166.283340
 20
146.755562
 30
0.0
  0
SPLINE
  5
137
100
AcDbEntity
  8
Layer_1
 62
7
100
AcDbSpline
 70
8
 71
3
 72
8
 73
4
 74
0
 40
0
 40
0
 40
0
 40
0
 40
1
 40
1
 40
1
 40
1
 10
166.283340
 20
146.755562
 30
0.0
 10
166.283340
 20
148.687373
 30
0.0
 10
167.851437
 20
150.255470
 30
0.0
 10
169.783248
 20
150.255470
 30
0.0
  0
LWPOLYLINE
  5
138
100
AcDbEntity
  8
Layer_1
 62
7
100
AcDbPolyline
 90
2
 70
0
 10
41.883312
 20
150.255470
 30
0.0
 10
41.883312
 20
150.255470
 30
0.0
  0
SPLINE
  5
139
100
AcDbEntity
  8
Layer_1
 62
7
100
AcDbSpline
 70
8
 71
3
 72
8
 73
4
 74
0
 40
0
 40
0
 40
0
 40
0
 40
1
 40
1
 40
1
 40
1
 10
24.233346
 20
146.755562
 30
0.0
 10
24.240860
 20
145.105620
 30
0.0
 10
26.279457
 20
145.087981
 30
0.0
 10
26.333362
 20
146.755562
 30
0.0
  0
SPLINE
  5
13a
100
AcDbEntity
  8
Layer_1
 62
7
100
AcDbSpline
 70
8
 71
3
 72
8
 73
4
 74
0
 40
0
 40
0
 40
0
 40
0
 40
1
 40
1
 40
1
 40
1
 10
185.333340
 20
146.755562
 30
0.0
 10
185.305823
 20
145.183937
 30
0.0
 10
187.472232
 20
145.166651
 30
0.0
 10
187.433426
 20
146.755562
 30
0.0
  0
SPLINE
  5
13b
100
AcDbEntity
  8
Layer_1
 62
7
100
AcDbSpline
 70
8
 71
3
 72
8
 73
4
 74
0
 40
0
 40
0
 40
0
 40
0
 40
1
 40
1
 40
1
 40
1
 10
187.433426
 20
146.755562
 30
0.0
 10
187.433426
 20
191.814456
 30
0.0
 10
150.891998
 20
228.355531
 30
0.0
 10
105.833457
 20
228.355531
 30
0.0
  0
SPLINE
  5
13c
100
AcDbEntity
  8
Layer_1
 62
7
100
AcDbSpline
 70
8
 71
3
 72
8
 73
4
 74
0
 40
0
 40
0
 40
0
 40
0
 40
1
 40
1
 40
1
 40
1
 10
105.833457
 20
228.355531
 30
0.0
 10
60.774562
 20
228.355531
 30
0.0
 10
24.233346
 20
191.814456
 30
0.0
 10
24.233346
 20
146.755562
 30
0.0
  0
SPLINE
  5
13d
100
AcDbEntity
  8
Layer_1
 62
7
100
AcDbSpline
 70
8
 71
3
 72
8
 73
4
 74
0
 40
0
 40
0
 40
0
 40
0
 40
1
 40
1
 40
1
 40
1
 10
185.333340
 20
146.755562
 30
0.0
 10
185.333340
 20
190.654523
 30
0.0
 10
149.732418
 20
226.255445
 30
0.0
 10
105.833457
 20
226.255445
 30
0.0
  0
SPLINE
  5
13e
100
AcDbEntity
  8
Layer_1
 62
7
100
AcDbSpline
 70
8
 71
3
 72
8
 73
4
 74
0
 40
0
 40
0
 40
0
 40
0
 40
1
 40
1
 40
1
 40
1
 10
105.833457
 20
226.255445
 30
0.0
 10
61.934143
 20
226.255445
 30
0.0
 10
26.333362
 20
190.654523
 30
0.0
 10
26.333362
 20
146.755562
 30
0.0
  0
SPLINE
  5
13f
100
AcDbEntity
  8
Layer_1
 62
7
100
AcDbSpline
 70
8
 71
3
 72
8
 73
4
 74
0
 40
0
 40
0
 40
0
 40
0
 40
1
 40
1
 40
1
 40
1
 10
105.833457
 20
62.755645
 30
0.0
 10
152.198687
 20
62.755645
 30
0.0
 10
189.833373
 20
100.389978
 30
0.0
 10
189.833373
 20
146.755562
 30
0.0
  0
SPLINE
  5
140
100
AcDbEntity
  8
Layer_1
 62
7
100
AcDbSpline
 70
8
 71
3
 72
8
 73
4
 74
0
 40
0
 40
0
 40
0
 40
0
 40
1
 40
1
 40
1
 40
1
 10
189.833373
 20
146.755562
 30
0.0
 10
189.833373
 20
193.120792
 30
0.0
 10
152.198687
 20
230.755478
 30
0.0
 10
105.833457
 20
230.755478
 30
0.0
  0
SPLINE
  5
141
100
AcDbEntity
  8
Layer_1
 62
7
100
AcDbSpline
 70
8
 71
3
 72
8
 73
4
 74
0
 40
0
 40
0
 40
0
 40
0
 40
1
 40
1
 40
1
 40
1
 10
105.833457
 20
230.755478
 30
0.0
 10
59.467873
 20
230.755478
 30
0.0
 10
21.833293
 20
193.120792
 30
0.0
 10
21.833293
 20
146.755562
 30
0.0
  0
SPLINE
  5
142
100
AcDbEntity
  8
Layer_1
 62
7
100
AcDbSpline
 70
8
 71
3
 72
8
 73
4
 74
0
 40
0
 40
0
 40
0
 40
0
 40
1
 40
1
 40
1
 40
1
 10
21.833293
 20
146.755562
 30
0.0
 10
21.833293
 20
100.389978
 30
0.0
 10
59.467873
 20
62.755645
 30
0.0
 10
105.833457
 20
62.755645
 30
0.0
  0
LWPOLYLINE
  5
143
100
AcDbEntity
  8
Layer_1
 62
7
100
AcDbPolyline
 90
2
 70
0
 10
169.783248
 20
150.255470
 30
0.0
 10
169.783248
 20
150.255470
 30
0.0
  0
SPLINE
  5
144
100
AcDbEntity
  8
Layer_1
 62
7
100
AcDbSpline
 70
8
 71
3
 72
8
 73
4
 74
0
 40
0
 40
0
 40
0
 40
0
 40
1
 40
1
 40
1
 40
1
 10
105.833457
 20
77.722242
 30
0.0
 10
107.765268
 20
77.722242
 30
0.0
 10
109.333365
 20
76.154145
 30
0.0
 10
109.333365
 20
74.221981
 30
0.0
  0
SPLINE
  5
145
100
AcDbEntity
  8
Layer_1
 62
7
100
AcDbSpline
 70
8
 71
3
 72
8
 73
4
 74
0
 40
0
 40
0
 40
0
 40
0
 40
1
 40
1
 40
1
 40
1
 10
109.333365
 20
74.221981
 30
0.0
 10
109.333365
 20
72.290170
 30
0.0
 10
107.765268
 20
70.722073
 30
0.0
 10
105.833457
 20
70.722073
 30
0.0
  0
SPLINE
  5
146
100
AcDbEntity
  8
Layer_1
 62
7
100
AcDbSpline
 70
8
 71
3
 72
8
 73
4
 74
0
 40
0
 40
0
 40
0
 40
0
 40
1
 40
1
 40
1
 40
1
 10
105.833457
 20
70.722073
 30
0.0
 10
103.901293
 20
70.722073
 30
0.0
 10
102.333196
 20
72.290170
 30
0.0
 10
102.333196
 20
74.221981
 30
0.0
  0
SPLINE
  5
147
100
AcDbEntity
  8
Layer_1
 62
7
100
AcDbSpline
 70
8
 71
3
 72
8
 73
4
 74
0
 40
0
 40
0
 40
0
 40
0
 40
1
 40
1
 40
1
 40
1
 10
102.333196
 20
74.221981
 30
0.0
 10
102.333196
 20
76.154145
 30
0.0
 10
103.901293
 20
77.722242
 30
0.0
 10
105.833457
 20
77.722242
 30
0.0
  0
LWPOLYLINE
  5
148
100
AcDbEntity
  8
Layer_1
 62
7
100
AcDbPolyline
 90
2
 70
0
 10
105.833457
 20
62.755645
 30
0.0
 10
105.833457
 20
62.755645
 30
0.0
  0
SPLINE
  5
149
100
AcDbEntity
  8
Layer_1
 62
7
100
AcDbSpline
 70
8
 71
3
 72
8
 73
4
 74
0
 40
0
 40
0
 40
0
 40
0
 40
1
 40
1
 40
1
 40
1
 10
34.126964
 20
154.414014
 30
0.0
 10
34.623710
 20
154.414014
 30
0.0
 10
35.026935
 20
154.010789
 30
0.0
 10
35.026935
 20
153.514078
 30
0.0
  0
SPLINE
  5
14a
100
AcDbEntity
  8
Layer_1
 62
7
100
AcDbSpline
 70
8
 71
3
 72
8
 73
4
 74
0
 40
0
 40
0
 40
0
 40
0
 40
1
 40
1
 40
1
 40
1
 10
35.026935
 20
153.514078
 30
0.0
 10
35.026935
 20
153.017367
 30
0.0
 10
34.623710
 20
152.614142
 30
0.0
 10
34.126964
 20
152.614142
 30
0.0
  0
SPLINE
  5
14b
100
AcDbEntity
  8
Layer_1
 62
7
100
AcDbSpline
 70
8
 71
3
 72
8
 73
4
 74
0
 40
0
 40
0
 40
0
 40
0
 40
1
 40
1
 40
1
 40
1
 10
34.126964
 20
152.614142
 30
0.0
 10
33.630182
 20
152.614142
 30
0.0
 10
33.226957
 20
153.017367
 30
0.0
 10
33.226957
 20
153.514078
 30
0.0
  0
SPLINE
  5
14c
100
AcDbEntity
  8
Layer_1
 62
7
100
AcDbSpline
 70
8
 71
3
 72
8
 73
4
 74
0
 40
0
 40
0
 40
0
 40
0
 40
1
 40
1
 40
1
 40
1
 10
33.226957
 20
153.514078
 30
0.0
 10
33.226957
 20
154.010789
 30
0.0
 10
33.630182
 20
154.414014
 30
0.0
 10
34.126964
 20
154.414014
 30
0.0
  0
LWPOLYLINE
  5
14d
100
AcDbEntity
  8
Layer_1
 62
7
100
AcDbPolyline
 90
2
 70
0
 10
105.833457
 20
77.722242
 30
0.0
 10
105.833457
 20
77.722242
 30
0.0
  0
SPLINE
  5
14e
100
AcDbEntity
  8
Layer_1
 62
7
100
AcDbSpline
 70
8
 71
3
 72
8
 73
4
 74
0
 40
0
 40
0
 40
0
 40
0
 40
1
 40
1
 40
1
 40
1
 10
34.165170
 20
140.879695
 30
0.0
 10
34.661951
 20
140.879695
 30
0.0
 10
35.065176
 20
140.476470
 30
0.0
 10
35.065176
 20
139.979759
 30
0.0
  0
SPLINE
  5
14f
100
AcDbEntity
  8
Layer_1
 62
7
100
AcDbSpline
 70
8
 71
3
 72
8
 73
4
 74
0
 40
0
 40
0
 40
0
 40
0
 40
1
 40
1
 40
1
 40
1
 10
35.065176
 20
139.979759
 30
0.0
 10
35.065176
 20
139.483048
 30
0.0
 10
34.661951
 20
139.079823
 30
0.0
 10
34.165170
 20
139.079823
 30
0.0
  0
SPLINE
  5
150
100
AcDbEntity
  8
Layer_1
 62
7
100
AcDbSpline
 70
8
 71
3
 72
8
 73
4
 74
0
 40
0
 40
0
 40
0
 40
0
 40
1
 40
1
 40
1
 40
1
 10
34.165170
 20
139.079823
 30
0.0
 10
33.668388
 20
139.079823
 30
0.0
 10
33.265163
 20
139.483048
 30
0.0
 10
33.265163
 20
139.979759
 30
0.0
  0
SPLINE
  5
151
100
AcDbEntity
  8
Layer_1
 62
7
100
AcDbSpline
 70
8
 71
3
 72
8
 73
4
 74
0
 40
0
 40
0
 40
0
 40
0
 40
1
 40
1
 40
1
 40
1
 10
33.265163
 20
139.979759
 30
0.0
 10
33.265163
 20
140.476470
 30
0.0
 10
33.668388
 20
140.879695
 30
0.0
 10
34.165170
 20
140.879695
 30
0.0
  0
LWPOLYLINE
  5
152
100
AcDbEntity
  8
Layer_1
 62
7
100
AcDbPolyline
 90
2
 70
0
 10
34.126964
 20
154.414014
 30
0.0
 10
34.126964
 20
154.414014
 30
0.0
  0
SPLINE
  5
153
100
AcDbEntity
  8
Layer_1
 62
7
100
AcDbSpline
 70
8
 71
3
 72
8
 73
4
 74
0
 40
0
 40
0
 40
0
 40
0
 40
1
 40
1
 40
1
 40
1
 10
105.833457
 20
77.755403
 30
0.0
 10
143.919346
 20
77.755403
 30
0.0
 10
174.833262
 20
108.669673
 30
0.0
 10
174.833262
 20
146.755562
 30
0.0
  0
SPLINE
  5
154
100
AcDbEntity
  8
Layer_1
 62
7
100
AcDbSpline
 70
8
 71
3
 72
8
 73
4
 74
0
 40
0
 40
0
 40
0
 40
0
 40
1
 40
1
 40
1
 40
1
 10
174.833262
 20
146.755562
 30
0.0
 10
174.833262
 20
184.841451
 30
0.0
 10
143.919346
 20
215.755367
 30
0.0
 10
105.833457
 20
215.755367
 30
0.0
  0
SPLINE
  5
155
100
AcDbEntity
  8
Layer_1
 62
7
100
AcDbSpline
 70
8
 71
3
 72
8
 73
4
 74
0
 40
0
 40
0
 40
0
 40
0
 40
1
 40
1
 40
1
 40
1
 10
105.833457
 20
215.755367
 30
0.0
 10
67.747215
 20
215.755367
 30
0.0
 10
36.833298
 20
184.841451
 30
0.0
 10
36.833298
 20
146.755562
 30
0.0
  0
SPLINE
  5
156
100
AcDbEntity
  8
Layer_1
 62
7
100
AcDbSpline
 70
8
 71
3
 72
8
 73
4
 74
0
 40
0
 40
0
 40
0
 40
0
 40
1
 40
1
 40
1
 40
1
 10
36.833298
 20
146.755562
 30
0.0
 10
36.833298
 20
108.669673
 30
0.0
 10
67.747215
 20
77.755403
 30
0.0
 10
105.833457
 20
77.755403
 30
0.0
  0
LWPOLYLINE
  5
157
100
AcDbEntity
  8
Layer_1
 62
7
100
AcDbPolyline
 90
2
 70
0
 10
34.165170
 20
140.879695
 30
0.0
 10
34.165170
 20
140.879695
 30
0.0
  0
SPLINE
  5
158
100
AcDbEntity
  8
Layer_1
 62
7
100
AcDbSpline
 70
8
 71
3
 72
8
 73
4
 74
0
 40
0
 40
0
 40
0
 40
0
 40
1
 40
1
 40
1
 40
1
 10
105.833457
 20
70.255348
 30
0.0
 10
148.059193
 20
70.255348
 30
0.0
 10
182.333318
 20
104.529826
 30
0.0
 10
182.333318
 20
146.755562
 30
0.0
  0
SPLINE
  5
159
100
AcDbEntity
  8
Layer_1
 62
7
100
AcDbSpline
 70
8
 71
3
 72
8
 73
4
 74
0
 40
0
 40
0
 40
0
 40
0
 40
1
 40
1
 40
1
 40
1
 10
182.333318
 20
146.755562
 30
0.0
 10
182.333318
 20
188.981298
 30
0.0
 10
148.059193
 20
223.255423
 30
0.0
 10
105.833457
 20
223.255423
 30
0.0
  0
SPLINE
  5
15a
100
AcDbEntity
  8
Layer_1
 62
7
100
AcDbSpline
 70
8
 71
3
 72
8
 73
4
 74
0
 40
0
 40
0
 40
0
 40
0
 40
1
 40
1
 40
1
 40
1
 10
105.833457
 20
223.255423
 30
0.0
 10
63.607721
 20
223.255423
 30
0.0
 10
29.333313
 20
188.981298
 30
0.0
 10
29.333313
 20
146.755562
 30
0.0
  0
SPLINE
  5
15b
100
AcDbEntity
  8
Layer_1
 62
7
100
AcDbSpline
 70
8
 71
3
 72
8
 73
4
 74
0
 40
0
 40
0
 40
0
 40
0
 40
1
 40
1
 40
1
 40
1
 10
29.333313
 20
146.755562
 30
0.0
 10
29.333313
 20
104.529826
 30
0.0
 10
63.607721
 20
70.255348
 30
0.0
 10
105.833457
 20
70.255348
 30
0.0
  0
LWPOLYLINE
  5
15c
100
AcDbEntity
  8
Layer_1
 62
7
100
AcDbPolyline
 90
2
 70
0
 10
105.833457
 20
77.755403
 30
0.0
 10
105.833457
 20
77.755403
 30
0.0
  0
SPLINE
  5
15d
100
AcDbEntity
  8
Layer_1
 62
7
100
AcDbSpline
 70
8
 71
3
 72
8
 73
4
 74
0
 40
0
 40
0
 40
0
 40
0
 40
1
 40
1
 40
1
 40
1
 10
105.833457
 20
215.755367
 30
0.0
 10
107.765268
 20
215.755367
 30
0.0
 10
109.333365
 20
217.323464
 30
0.0
 10
109.333365
 20
219.255276
 30
0.0
  0
SPLINE
  5
15e
100
AcDbEntity
  8
Layer_1
 62
7
100
AcDbSpline
 70
8
 71
3
 72
8
 73
4
 74
0
 40
0
 40
0
 40
0
 40
0
 40
1
 40
1
 40
1
 40
1
 10
109.333365
 20
219.255276
 30
0.0
 10
109.333365
 20
221.187439
 30
0.0
 10
107.765268
 20
222.755537
 30
0.0
 10
105.833457
 20
222.755537
 30
0.0
  0
SPLINE
  5
15f
100
AcDbEntity
  8
Layer_1
 62
7
100
AcDbSpline
 70
8
 71
3
 72
8
 73
4
 74
0
 40
0
 40
0
 40
0
 40
0
 40
1
 40
1
 40
1
 40
1
 10
105.833457
 20
222.755537
 30
0.0
 10
103.901293
 20
222.755537
 30
0.0
 10
102.333196
 20
221.187439
 30
0.0
 10
102.333196
 20
219.255276
 30
0.0
  0
SPLINE
  5
160
100
AcDbEntity
  8
Layer_1
 62
7
100
AcDbSpline
 70
8
 71
3
 72
8
 73
4
 74
0
 40
0
 40
0
 40
0
 40
0
 40
1
 40
1
 40
1
 40
1
 10
102.333196
 20
219.255276
 30
0.0
 10
102.333196
 20
217.323464
 30
0.0
 10
103.901293
 20
215.755367
 30
0.0
 10
105.833457
 20
215.755367
 30
0.0
  0
LWPOLYLINE
  5
161
100
AcDbEntity
  8
Layer_1
 62
7
100
AcDbPolyline
 90
2
 70
0
 10
105.833457
 20
70.255348
 30
0.0
 10
105.833457
 20
70.255348
 30
0.0
  0
SPLINE
  5
162
100
AcDbEntity
  8
Layer_1
 62
7
100
AcDbSpline
 70
8
 71
3
 72
8
 73
4
 74
0
 40
0
 40
0
 40
0
 40
0
 40
1
 40
1
 40
1
 40
1
 10
89.737265
 20
217.848751
 30
0.0
 10
90.233976
 20
217.848751
 30
0.0
 10
90.637201
 20
217.445526
 30
0.0
 10
90.637201
 20
216.948814
 30
0.0
  0
SPLINE
  5
163
100
AcDbEntity
  8
Layer_1
 62
7
100
AcDbSpline
 70
8
 71
3
 72
8
 73
4
 74
0
 40
0
 40
0
 40
0
 40
0
 40
1
 40
1
 40
1
 40
1
 10
90.637201
 20
216.948814
 30
0.0
 10
90.637201
 20
216.451751
 30
0.0
 10
90.233976
 20
216.048526
 30
0.0
 10
89.737265
 20
216.048526
 30
0.0
  0
SPLINE
  5
164
100
AcDbEntity
  8
Layer_1
 62
7
100
AcDbSpline
 70
8
 71
3
 72
8
 73
4
 74
0
 40
0
 40
0
 40
0
 40
0
 40
1
 40
1
 40
1
 40
1
 10
89.737265
 20
216.048526
 30
0.0
 10
89.240554
 20
216.048526
 30
0.0
 10
88.837329
 20
216.451751
 30
0.0
 10
88.837329
 20
216.948814
 30
0.0
  0
SPLINE
  5
165
100
AcDbEntity
  8
Layer_1
 62
7
100
AcDbSpline
 70
8
 71
3
 72
8
 73
4
 74
0
 40
0
 40
0
 40
0
 40
0
 40
1
 40
1
 40
1
 40
1
 10
88.837329
 20
216.948814
 30
0.0
 10
88.837329
 20
217.445526
 30
0.0
 10
89.240554
 20
217.848751
 30
0.0
 10
89.737265
 20
217.848751
 30
0.0
  0
LWPOLYLINE
  5
166
100
AcDbEntity
  8
Layer_1
 62
7
100
AcDbPolyline
 90
2
 70
0
 10
105.833457
 20
215.755367
 30
0.0
 10
105.833457
 20
215.755367
 30
0.0
  0
SPLINE
  5
167
100
AcDbEntity
  8
Layer_1
 62
7
100
AcDbSpline
 70
8
 71
3
 72
8
 73
4
 74
0
 40
0
 40
0
 40
0
 40
0
 40
1
 40
1
 40
1
 40
1
 10
98.547185
 20
219.291259
 30
0.0
 10
99.043896
 20
219.291259
 30
0.0
 10
99.447121
 20
218.888034
 30
0.0
 10
99.447121
 20
218.391323
 30
0.0
  0
SPLINE
  5
168
100
AcDbEntity
  8
Layer_1
 62
7
100
AcDbSpline
 70
8
 71
3
 72
8
 73
4
 74
0
 40
0
 40
0
 40
0
 40
0
 40
1
 40
1
 40
1
 40
1
 10
99.447121
 20
218.391323
 30
0.0
 10
99.447121
 20
217.894612
 30
0.0
 10
99.043896
 20
217.491387
 30
0.0
 10
98.547185
 20
217.491387
 30
0.0
  0
SPLINE
  5
169
100
AcDbEntity
  8
Layer_1
 62
7
100
AcDbSpline
 70
8
 71
3
 72
8
 73
4
 74
0
 40
0
 40
0
 40
0
 40
0
 40
1
 40
1
 40
1
 40
1
 10
98.547185
 20
217.491387
 30
0.0
 10
98.050473
 20
217.491387
 30
0.0
 10
97.647248
 20
217.894612
 30
0.0
 10
97.647248
 20
218.391323
 30
0.0
  0
SPLINE
  5
16a
100
AcDbEntity
  8
Layer_1
 62
7
100
AcDbSpline
 70
8
 71
3
 72
8
 73
4
 74
0
 40
0
 40
0
 40
0
 40
0
 40
1
 40
1
 40
1
 40
1
 10
97.647248
 20
218.391323
 30
0.0
 10
97.647248
 20
218.888034
 30
0.0
 10
98.050473
 20
219.291259
 30
0.0
 10
98.547185
 20
219.291259
 30
0.0
  0
LWPOLYLINE
  5
16b
100
AcDbEntity
  8
Layer_1
 62
7
100
AcDbPolyline
 90
2
 70
0
 10
89.737265
 20
217.848751
 30
0.0
 10
89.737265
 20
217.848751
 30
0.0
  0
SPLINE
  5
16c
100
AcDbEntity
  8
Layer_1
 62
7
100
AcDbSpline
 70
8
 71
3
 72
8
 73
4
 74
0
 40
0
 40
0
 40
0
 40
0
 40
1
 40
1
 40
1
 40
1
 10
177.668185
 20
154.327584
 30
0.0
 10
178.165248
 20
154.327584
 30
0.0
 10
178.568473
 20
153.924359
 30
0.0
 10
178.568473
 20
153.427648
 30
0.0
  0
SPLINE
  5
16d
100
AcDbEntity
  8
Layer_1
 62
7
100
AcDbSpline
 70
8
 71
3
 72
8
 73
4
 74
0
 40
0
 40
0
 40
0
 40
0
 40
1
 40
1
 40
1
 40
1
 10
178.568473
 20
153.427648
 30
0.0
 10
178.568473
 20
152.930937
 30
0.0
 10
178.165248
 20
152.527712
 30
0.0
 10
177.668185
 20
152.527712
 30
0.0
  0
SPLINE
  5
16e
100
AcDbEntity
  8
Layer_1
 62
7
100
AcDbSpline
 70
8
 71
3
 72
8
 73
4
 74
0
 40
0
 40
0
 40
0
 40
0
 40
1
 40
1
 40
1
 40
1
 10
177.668185
 20
152.527712
 30
0.0
 10
177.171473
 20
152.527712
 30
0.0
 10
176.768248
 20
152.930937
 30
0.0
 10
176.768248
 20
153.427648
 30
0.0
  0
SPLINE
  5
16f
100
AcDbEntity
  8
Layer_1
 62
7
100
AcDbSpline
 70
8
 71
3
 72
8
 73
4
 74
0
 40
0
 40
0
 40
0
 40
0
 40
1
 40
1
 40
1
 40
1
 10
176.768248
 20
153.427648
 30
0.0
 10
176.768248
 20
153.924359
 30
0.0
 10
177.171473
 20
154.327584
 30
0.0
 10
177.668185
 20
154.327584
 30
0.0
  0
LWPOLYLINE
  5
170
100
AcDbEntity
  8
Layer_1
 62
7
100
AcDbPolyline
 90
2
 70
0
 10
98.547185
 20
219.291259
 30
0.0
 10
98.547185
 20
219.291259
 30
0.0
  0
SPLINE
  5
171
100
AcDbEntity
  8
Layer_1
 62
7
100
AcDbSpline
 70
8
 71
3
 72
8
 73
4
 74
0
 40
0
 40
0
 40
0
 40
0
 40
1
 40
1
 40
1
 40
1
 10
177.632201
 20
140.870523
 30
0.0
 10
178.128912
 20
140.870523
 30
0.0
 10
178.532137
 20
140.467298
 30
0.0
 10
178.532137
 20
139.970587
 30
0.0
  0
SPLINE
  5
172
100
AcDbEntity
  8
Layer_1
 62
7
100
AcDbSpline
 70
8
 71
3
 72
8
 73
4
 74
0
 40
0
 40
0
 40
0
 40
0
 40
1
 40
1
 40
1
 40
1
 10
178.532137
 20
139.970587
 30
0.0
 10
178.532137
 20
139.473876
 30
0.0
 10
178.128912
 20
139.070651
 30
0.0
 10
177.632201
 20
139.070651
 30
0.0
  0
SPLINE
  5
173
100
AcDbEntity
  8
Layer_1
 62
7
100
AcDbSpline
 70
8
 71
3
 72
8
 73
4
 74
0
 40
0
 40
0
 40
0
 40
0
 40
1
 40
1
 40
1
 40
1
 10
177.632201
 20
139.070651
 30
0.0
 10
177.135137
 20
139.070651
 30
0.0
 10
176.731912
 20
139.473876
 30
0.0
 10
176.731912
 20
139.970587
 30
0.0
  0
SPLINE
  5
174
100
AcDbEntity
  8
Layer_1
 62
7
100
AcDbSpline
 70
8
 71
3
 72
8
 73
4
 74
0
 40
0
 40
0
 40
0
 40
0
 40
1
 40
1
 40
1
 40
1
 10
176.731912
 20
139.970587
 30
0.0
 10
176.731912
 20
140.467298
 30
0.0
 10
177.135137
 20
140.870523
 30
0.0
 10
177.632201
 20
140.870523
 30
0.0
  0
LWPOLYLINE
  5
175
100
AcDbEntity
  8
Layer_1
 62
7
100
AcDbPolyline
 90
2
 70
0
 10
177.668185
 20
154.327584
 30
0.0
 10
177.668185
 20
154.327584
 30
0.0
  0
SPLINE
  5
176
100
AcDbEntity
  8
Layer_1
 62
7
100
AcDbSpline
 70
8
 71
3
 72
8
 73
4
 74
0
 40
0
 40
0
 40
0
 40
0
 40
1
 40
1
 40
1
 40
1
 10
122.294421
 20
77.546912
 30
0.0
 10
122.791485
 20
77.546912
 30
0.0
 10
123.194710
 20
77.143687
 30
0.0
 10
123.194710
 20
76.646623
 30
0.0
  0
SPLINE
  5
177
100
AcDbEntity
  8
Layer_1
 62
7
100
AcDbSpline
 70
8
 71
3
 72
8
 73
4
 74
0
 40
0
 40
0
 40
0
 40
0
 40
1
 40
1
 40
1
 40
1
 10
123.194710
 20
76.646623
 30
0.0
 10
123.194710
 20
76.149912
 30
0.0
 10
122.791485
 20
75.746687
 30
0.0
 10
122.294421
 20
75.746687
 30
0.0
  0
SPLINE
  5
178
100
AcDbEntity
  8
Layer_1
 62
7
100
AcDbSpline
 70
8
 71
3
 72
8
 73
4
 74
0
 40
0
 40
0
 40
0
 40
0
 40
1
 40
1
 40
1
 40
1
 10
122.294421
 20
75.746687
 30
0.0
 10
121.797710
 20
75.746687
 30
0.0
 10
121.394485
 20
76.149912
 30
0.0
 10
121.394485
 20
76.646623
 30
0.0
  0
SPLINE
  5
179
100
AcDbEntity
  8
Layer_1
 62
7
100
AcDbSpline
 70
8
 71
3
 72
8
 73
4
 74
0
 40
0
 40
0
 40
0
 40
0
 40
1
 40
1
 40
1
 40
1
 10
121.394485
 20
76.646623
 30
0.0
 10
121.394485
 20
77.143687
 30
0.0
 10
121.797710
 20
77.546912
 30
0.0
 10
122.294421
 20
77.546912
 30
0.0
  0
LWPOLYLINE
  5
17a
100
AcDbEntity
  8
Layer_1
 62
7
100
AcDbPolyline
 90
2
 70
0
 10
177.632201
 20
140.870523
 30
0.0
 10
177.632201
 20
140.870523
 30
0.0
  0
SPLINE
  5
17b
100
AcDbEntity
  8
Layer_1
 62
7
100
AcDbSpline
 70
8
 71
3
 72
8
 73
4
 74
0
 40
0
 40
0
 40
0
 40
0
 40
1
 40
1
 40
1
 40
1
 10
113.382196
 20
76.046901
 30
0.0
 10
113.878907
 20
76.046901
 30
0.0
 10
114.282132
 20
75.643676
 30
0.0
 10
114.282132
 20
75.146612
 30
0.0
  0
SPLINE
  5
17c
100
AcDbEntity
  8
Layer_1
 62
7
100
AcDbSpline
 70
8
 71
3
 72
8
 73
4
 74
0
 40
0
 40
0
 40
0
 40
0
 40
1
 40
1
 40
1
 40
1
 10
114.282132
 20
75.146612
 30
0.0
 10
114.282132
 20
74.649901
 30
0.0
 10
113.878907
 20
74.246676
 30
0.0
 10
113.382196
 20
74.246676
 30
0.0
  0
SPLINE
  5
17d
100
AcDbEntity
  8
Layer_1
 62
7
100
AcDbSpline
 70
8
 71
3
 72
8
 73
4
 74
0
 40
0
 40
0
 40
0
 40
0
 40
1
 40
1
 40
1
 40
1
 10
113.382196
 20
74.246676
 30
0.0
 10
112.885485
 20
74.246676
 30
0.0
 10
112.482260
 20
74.649901
 30
0.0
 10
112.482260
 20
75.146612
 30
0.0
  0
SPLINE
  5
17e
100
AcDbEntity
  8
Layer_1
 62
7
100
AcDbSpline
 70
8
 71
3
 72
8
 73
4
 74
0
 40
0
 40
0
 40
0
 40
0
 40
1
 40
1
 40
1
 40
1
 10
112.482260
 20
75.146612
 30
0.0
 10
112.482260
 20
75.643676
 30
0.0
 10
112.885485
 20
76.046901
 30
0.0
 10
113.382196
 20
76.046901
 30
0.0
  0
LWPOLYLINE
  5
17f
100
AcDbEntity
  8
Layer_1
 62
7
100
AcDbPolyline
 90
2
 70
0
 10
122.294421
 20
77.546912
 30
0.0
 10
122.294421
 20
77.546912
 30
0.0
  0
SPLINE
  5
180
100
AcDbEntity
  8
Layer_1
 62
7
100
AcDbSpline
 70
8
 71
3
 72
8
 73
4
 74
0
 40
0
 40
0
 40
0
 40
0
 40
1
 40
1
 40
1
 40
1
 10
98.146076
 20
76.061364
 30
0.0
 10
98.642787
 20
76.061364
 30
0.0
 10
99.046012
 20
75.658139
 30
0.0
 10
99.046012
 20
75.161428
 30
0.0
  0
SPLINE
  5
181
100
AcDbEntity
  8
Layer_1
 62
7
100
AcDbSpline
 70
8
 71
3
 72
8
 73
4
 74
0
 40
0
 40
0
 40
0
 40
0
 40
1
 40
1
 40
1
 40
1
 10
99.046012
 20
75.161428
 30
0.0
 10
99.046012
 20
74.664364
 30
0.0
 10
98.642787
 20
74.261139
 30
0.0
 10
98.146076
 20
74.261139
 30
0.0
  0
SPLINE
  5
182
100
AcDbEntity
  8
Layer_1
 62
7
100
AcDbSpline
 70
8
 71
3
 72
8
 73
4
 74
0
 40
0
 40
0
 40
0
 40
0
 40
1
 40
1
 40
1
 40
1
 10
98.146076
 20
74.261139
 30
0.0
 10
97.649365
 20
74.261139
 30
0.0
 10
97.246140
 20
74.664364
 30
0.0
 10
97.246140
 20
75.161428
 30
0.0
  0
SPLINE
  5
183
100
AcDbEntity
  8
Layer_1
 62
7
100
AcDbSpline
 70
8
 71
3
 72
8
 73
4
 74
0
 40
0
 40
0
 40
0
 40
0
 40
1
 40
1
 40
1
 40
1
 10
97.246140
 20
75.161428
 30
0.0
 10
97.246140
 20
75.658139
 30
0.0
 10
97.649365
 20
76.061364
 30
0.0
 10
98.146076
 20
76.061364
 30
0.0
  0
LWPOLYLINE
  5
184
100
AcDbEntity
  8
Layer_1
 62
7
100
AcDbPolyline
 90
2
 70
0
 10
113.382196
 20
76.046901
 30
0.0
 10
113.382196
 20
76.046901
 30
0.0
  0
SPLINE
  5
185
100
AcDbEntity
  8
Layer_1
 62
7
100
AcDbSpline
 70
8
 71
3
 72
8
 73
4
 74
0
 40
0
 40
0
 40
0
 40
0
 40
1
 40
1
 40
1
 40
1
 10
117.944318
 20
199.380128
 30
0.0
 10
119.931162
 20
199.380128
 30
0.0
 10
121.544062
 20
197.767228
 30
0.0
 10
121.544062
 20
195.780384
 30
0.0
  0
SPLINE
  5
186
100
AcDbEntity
  8
Layer_1
 62
7
100
AcDbSpline
 70
8
 71
3
 72
8
 73
4
 74
0
 40
0
 40
0
 40
0
 40
0
 40
1
 40
1
 40
1
 40
1
 10
121.544062
 20
195.780384
 30
0.0
 10
121.544062
 20
193.793187
 30
0.0
 10
119.931162
 20
192.180287
 30
0.0
 10
117.944318
 20
192.180287
 30
0.0
  0
SPLINE
  5
187
100
AcDbEntity
  8
Layer_1
 62
7
100
AcDbSpline
 70
8
 71
3
 72
8
 73
4
 74
0
 40
0
 40
0
 40
0
 40
0
 40
1
 40
1
 40
1
 40
1
 10
117.944318
 20
192.180287
 30
0.0
 10
115.957121
 20
192.180287
 30
0.0
 10
114.344221
 20
193.793187
 30
0.0
 10
114.344221
 20
195.780384
 30
0.0
  0
SPLINE
  5
188
100
AcDbEntity
  8
Layer_1
 62
7
100
AcDbSpline
 70
8
 71
3
 72
8
 73
4
 74
0
 40
0
 40
0
 40
0
 40
0
 40
1
 40
1
 40
1
 40
1
 10
114.344221
 20
195.780384
 30
0.0
 10
114.344221
 20
197.767228
 30
0.0
 10
115.957121
 20
199.380128
 30
0.0
 10
117.944318
 20
199.380128
 30
0.0
  0
LWPOLYLINE
  5
189
100
AcDbEntity
  8
Layer_1
 62
7
100
AcDbPolyline
 90
2
 70
0
 10
98.146076
 20
76.061364
 30
0.0
 10
98.146076
 20
76.061364
 30
0.0
  0
SPLINE
  5
18a
100
AcDbEntity
  8
Layer_1
 62
7
100
AcDbSpline
 70
8
 71
3
 72
8
 73
4
 74
0
 40
0
 40
0
 40
0
 40
0
 40
1
 40
1
 40
1
 40
1
 10
90.577935
 20
100.606937
 30
0.0
 10
92.897096
 20
100.606937
 30
0.0
 10
94.777754
 20
102.487595
 30
0.0
 10
94.777754
 20
104.806756
 30
0.0
  0
SPLINE
  5
18b
100
AcDbEntity
  8
Layer_1
 62
7
100
AcDbSpline
 70
8
 71
3
 72
8
 73
4
 74
0
 40
0
 40
0
 40
0
 40
0
 40
1
 40
1
 40
1
 40
1
 10
94.777754
 20
104.806756
 30
0.0
 10
94.777754
 20
107.125917
 30
0.0
 10
92.897096
 20
109.006928
 30
0.0
 10
90.577935
 20
109.006928
 30
0.0
  0
SPLINE
  5
18c
100
AcDbEntity
  8
Layer_1
 62
7
100
AcDbSpline
 70
8
 71
3
 72
8
 73
4
 74
0
 40
0
 40
0
 40
0
 40
0
 40
1
 40
1
 40
1
 40
1
 10
77.077835
 20
109.006928
 30
0.0
 10
74.758673
 20
109.006928
 30
0.0
 10
72.878015
 20
107.125917
 30
0.0
 10
72.878015
 20
104.806756
 30
0.0
  0
SPLINE
  5
18d
100
AcDbEntity
  8
Layer_1
 62
7
100
AcDbSpline
 70
8
 71
3
 72
8
 73
4
 74
0
 40
0
 40
0
 40
0
 40
0
 40
1
 40
1
 40
1
 40
1
 10
72.878015
 20
104.806756
 30
0.0
 10
72.878015
 20
102.487595
 30
0.0
 10
74.758673
 20
100.606937
 30
0.0
 10
77.077835
 20
100.606937
 30
0.0
  0
LWPOLYLINE
  5
18e
100
AcDbEntity
  8
Layer_1
 62
7
100
AcDbPolyline
 90
2
 70
0
 10
117.944318
 20
199.380128
 30
0.0
 10
117.944318
 20
199.380128
 30
0.0
  0
LWPOLYLINE
  5
18f
100
AcDbEntity
  8
Layer_1
 62
7
100
AcDbPolyline
 90
2
 70
0
 10
90.577935
 20
100.606937
 30
0.0
 10
77.077835
 20
100.606937
 30
0.0
  0
SPLINE
  5
190
100
AcDbEntity
  8
Layer_1
 62
7
100
AcDbSpline
 70
8
 71
3
 72
8
 73
4
 74
0
 40
0
 40
0
 40
0
 40
0
 40
1
 40
1
 40
1
 40
1
 10
90.577935
 20
103.606959
 30
0.0
 10
89.915418
 20
103.606959
 30
0.0
 10
89.377785
 20
104.144592
 30
0.0
 10
89.377785
 20
104.806756
 30
0.0
  0
SPLINE
  5
191
100
AcDbEntity
  8
Layer_1
 62
7
100
AcDbSpline
 70
8
 71
3
 72
8
 73
4
 74
0
 40
0
 40
0
 40
0
 40
0
 40
1
 40
1
 40
1
 40
1
 10
89.377785
 20
104.806756
 30
0.0
 10
89.377785
 20
105.469273
 30
0.0
 10
89.915418
 20
106.006906
 30
0.0
 10
90.577935
 20
106.006906
 30
0.0
  0
SPLINE
  5
192
100
AcDbEntity
  8
Layer_1
 62
7
100
AcDbSpline
 70
8
 71
3
 72
8
 73
4
 74
0
 40
0
 40
0
 40
0
 40
0
 40
1
 40
1
 40
1
 40
1
 10
90.577935
 20
106.006906
 30
0.0
 10
91.240098
 20
106.006906
 30
0.0
 10
91.777732
 20
105.469273
 30
0.0
 10
91.777732
 20
104.806756
 30
0.0
  0
SPLINE
  5
193
100
AcDbEntity
  8
Layer_1
 62
7
100
AcDbSpline
 70
8
 71
3
 72
8
 73
4
 74
0
 40
0
 40
0
 40
0
 40
0
 40
1
 40
1
 40
1
 40
1
 10
91.777732
 20
104.806756
 30
0.0
 10
91.777732
 20
104.144592
 30
0.0
 10
91.240098
 20
103.606959
 30
0.0
 10
90.577935
 20
103.606959
 30
0.0
  0
LWPOLYLINE
  5
194
100
AcDbEntity
  8
Layer_1
 62
7
100
AcDbPolyline
 90
4
 70
0
 10
77.077835
 20
109.006928
 30
0.0
 10
77.077835
 20
129.175939
 30
0.0
 10
90.577935
 20
129.175939
 30
0.0
 10
90.577935
 20
109.006928
 30
0.0
  0
SPLINE
  5
195
100
AcDbEntity
  8
Layer_1
 62
7
100
AcDbSpline
 70
8
 71
3
 72
8
 73
4
 74
0
 40
0
 40
0
 40
0
 40
0
 40
1
 40
1
 40
1
 40
1
 10
77.077835
 20
103.606959
 30
0.0
 10
76.415671
 20
103.606959
 30
0.0
 10
75.877685
 20
104.144592
 30
0.0
 10
75.877685
 20
104.806756
 30
0.0
  0
SPLINE
  5
196
100
AcDbEntity
  8
Layer_1
 62
7
100
AcDbSpline
 70
8
 71
3
 72
8
 73
4
 74
0
 40
0
 40
0
 40
0
 40
0
 40
1
 40
1
 40
1
 40
1
 10
75.877685
 20
104.806756
 30
0.0
 10
75.877685
 20
105.469273
 30
0.0
 10
76.415671
 20
106.006906
 30
0.0
 10
77.077835
 20
106.006906
 30
0.0
  0
SPLINE
  5
197
100
AcDbEntity
  8
Layer_1
 62
7
100
AcDbSpline
 70
8
 71
3
 72
8
 73
4
 74
0
 40
0
 40
0
 40
0
 40
0
 40
1
 40
1
 40
1
 40
1
 10
77.077835
 20
106.006906
 30
0.0
 10
77.740351
 20
106.006906
 30
0.0
 10
78.277985
 20
105.469273
 30
0.0
 10
78.277985
 20
104.806756
 30
0.0
  0
SPLINE
  5
198
100
AcDbEntity
  8
Layer_1
 62
7
100
AcDbSpline
 70
8
 71
3
 72
8
 73
4
 74
0
 40
0
 40
0
 40
0
 40
0
 40
1
 40
1
 40
1
 40
1
 10
78.277985
 20
104.806756
 30
0.0
 10
78.277985
 20
104.144592
 30
0.0
 10
77.740351
 20
103.606959
 30
0.0
 10
77.077835
 20
103.606959
 30
0.0
  0
LWPOLYLINE
  5
199
100
AcDbEntity
  8
Layer_1
 62
7
100
AcDbPolyline
 90
2
 70
0
 10
90.577935
 20
103.606959
 30
0.0
 10
90.577935
 20
103.606959
 30
0.0
  0
SPLINE
  5
19a
100
AcDbEntity
  8
Layer_1
 62
7
100
AcDbSpline
 70
8
 71
3
 72
8
 73
4
 74
0
 40
0
 40
0
 40
0
 40
0
 40
1
 40
1
 40
1
 40
1
 10
86.113885
 20
125.830195
 30
0.0
 10
85.451368
 20
125.830195
 30
0.0
 10
84.913735
 20
125.292562
 30
0.0
 10
84.913735
 20
124.630398
 30
0.0
  0
SPLINE
  5
19b
100
AcDbEntity
  8
Layer_1
 62
7
100
AcDbSpline
 70
8
 71
3
 72
8
 73
4
 74
0
 40
0
 40
0
 40
0
 40
0
 40
1
 40
1
 40
1
 40
1
 10
84.913735
 20
124.630398
 30
0.0
 10
84.913735
 20
123.967881
 30
0.0
 10
85.451368
 20
123.430248
 30
0.0
 10
86.113885
 20
123.430248
 30
0.0
  0
SPLINE
  5
19c
100
AcDbEntity
  8
Layer_1
 62
7
100
AcDbSpline
 70
8
 71
3
 72
8
 73
4
 74
0
 40
0
 40
0
 40
0
 40
0
 40
1
 40
1
 40
1
 40
1
 10
86.113885
 20
123.430248
 30
0.0
 10
86.776048
 20
123.430248
 30
0.0
 10
87.313682
 20
123.967881
 30
0.0
 10
87.313682
 20
124.630398
 30
0.0
  0
SPLINE
  5
19d
100
AcDbEntity
  8
Layer_1
 62
7
100
AcDbSpline
 70
8
 71
3
 72
8
 73
4
 74
0
 40
0
 40
0
 40
0
 40
0
 40
1
 40
1
 40
1
 40
1
 10
87.313682
 20
124.630398
 30
0.0
 10
87.313682
 20
125.292562
 30
0.0
 10
86.776048
 20
125.830195
 30
0.0
 10
86.113885
 20
125.830195
 30
0.0
  0
LWPOLYLINE
  5
19e
100
AcDbEntity
  8
Layer_1
 62
7
100
AcDbPolyline
 90
2
 70
0
 10
77.077835
 20
103.606959
 30
0.0
 10
77.077835
 20
103.606959
 30
0.0
  0
SPLINE
  5
19f
100
AcDbEntity
  8
Layer_1
 62
7
100
AcDbSpline
 70
8
 71
3
 72
8
 73
4
 74
0
 40
0
 40
0
 40
0
 40
0
 40
1
 40
1
 40
1
 40
1
 10
76.130626
 20
192.444164
 30
0.0
 10
73.811465
 20
192.444164
 30
0.0
 10
71.930454
 20
190.563153
 30
0.0
 10
71.930454
 20
188.243992
 30
0.0
  0
SPLINE
  5
1a0
100
AcDbEntity
  8
Layer_1
 62
7
100
AcDbSpline
 70
8
 71
3
 72
8
 73
4
 74
0
 40
0
 40
0
 40
0
 40
0
 40
1
 40
1
 40
1
 40
1
 10
71.930454
 20
188.243992
 30
0.0
 10
71.930454
 20
185.924831
 30
0.0
 10
73.811465
 20
184.044173
 30
0.0
 10
76.130626
 20
184.044173
 30
0.0
  0
SPLINE
  5
1a1
100
AcDbEntity
  8
Layer_1
 62
7
100
AcDbSpline
 70
8
 71
3
 72
8
 73
4
 74
0
 40
0
 40
0
 40
0
 40
0
 40
1
 40
1
 40
1
 40
1
 10
89.630373
 20
184.044173
 30
0.0
 10
91.949887
 20
184.044173
 30
0.0
 10
93.830546
 20
185.924831
 30
0.0
 10
93.830546
 20
188.243992
 30
0.0
  0
SPLINE
  5
1a2
100
AcDbEntity
  8
Layer_1
 62
7
100
AcDbSpline
 70
8
 71
3
 72
8
 73
4
 74
0
 40
0
 40
0
 40
0
 40
0
 40
1
 40
1
 40
1
 40
1
 10
93.830546
 20
188.243992
 30
0.0
 10
93.830546
 20
190.563153
 30
0.0
 10
91.949887
 20
192.444164
 30
0.0
 10
89.630373
 20
192.444164
 30
0.0
  0
LWPOLYLINE
  5
1a3
100
AcDbEntity
  8
Layer_1
 62
7
100
AcDbPolyline
 90
2
 70
0
 10
86.113885
 20
125.830195
 30
0.0
 10
86.113885
 20
125.830195
 30
0.0
  0
LWPOLYLINE
  5
1a4
100
AcDbEntity
  8
Layer_1
 62
7
100
AcDbPolyline
 90
2
 70
0
 10
76.130626
 20
192.444164
 30
0.0
 10
89.630373
 20
192.444164
 30
0.0
  0
SPLINE
  5
1a5
100
AcDbEntity
  8
Layer_1
 62
7
100
AcDbSpline
 70
8
 71
3
 72
8
 73
4
 74
0
 40
0
 40
0
 40
0
 40
0
 40
1
 40
1
 40
1
 40
1
 10
76.130626
 20
189.444142
 30
0.0
 10
76.792790
 20
189.444142
 30
0.0
 10
77.330423
 20
188.906509
 30
0.0
 10
77.330423
 20
188.243992
 30
0.0
  0
SPLINE
  5
1a6
100
AcDbEntity
  8
Layer_1
 62
7
100
AcDbSpline
 70
8
 71
3
 72
8
 73
4
 74
0
 40
0
 40
0
 40
0
 40
0
 40
1
 40
1
 40
1
 40
1
 10
77.330423
 20
188.243992
 30
0.0
 10
77.330423
 20
187.581828
 30
0.0
 10
76.792790
 20
187.044195
 30
0.0
 10
76.130626
 20
187.044195
 30
0.0
  0
SPLINE
  5
1a7
100
AcDbEntity
  8
Layer_1
 62
7
100
AcDbSpline
 70
8
 71
3
 72
8
 73
4
 74
0
 40
0
 40
0
 40
0
 40
0
 40
1
 40
1
 40
1
 40
1
 10
76.130626
 20
187.044195
 30
0.0
 10
75.468110
 20
187.044195
 30
0.0
 10
74.930476
 20
187.581828
 30
0.0
 10
74.930476
 20
188.243992
 30
0.0
  0
SPLINE
  5
1a8
100
AcDbEntity
  8
Layer_1
 62
7
100
AcDbSpline
 70
8
 71
3
 72
8
 73
4
 74
0
 40
0
 40
0
 40
0
 40
0
 40
1
 40
1
 40
1
 40
1
 10
74.930476
 20
188.243992
 30
0.0
 10
74.930476
 20
188.906509
 30
0.0
 10
75.468110
 20
189.444142
 30
0.0
 10
76.130626
 20
189.444142
 30
0.0
  0
LWPOLYLINE
  5
1a9
100
AcDbEntity
  8
Layer_1
 62
7
100
AcDbPolyline
 90
4
 70
0
 10
89.630373
 20
184.044173
 30
0.0
 10
89.630373
 20
163.874809
 30
0.0
 10
76.130626
 20
163.874809
 30
0.0
 10
76.130626
 20
184.044173
 30
0.0
  0
SPLINE
  5
1aa
100
AcDbEntity
  8
Layer_1
 62
7
100
AcDbSpline
 70
8
 71
3
 72
8
 73
4
 74
0
 40
0
 40
0
 40
0
 40
0
 40
1
 40
1
 40
1
 40
1
 10
89.630373
 20
189.444142
 30
0.0
 10
90.292890
 20
189.444142
 30
0.0
 10
90.830523
 20
188.906509
 30
0.0
 10
90.830523
 20
188.243992
 30
0.0
  0
SPLINE
  5
1ab
100
AcDbEntity
  8
Layer_1
 62
7
100
AcDbSpline
 70
8
 71
3
 72
8
 73
4
 74
0
 40
0
 40
0
 40
0
 40
0
 40
1
 40
1
 40
1
 40
1
 10
90.830523
 20
188.243992
 30
0.0
 10
90.830523
 20
187.581828
 30
0.0
 10
90.292890
 20
187.044195
 30
0.0
 10
89.630373
 20
187.044195
 30
0.0
  0
SPLINE
  5
1ac
100
AcDbEntity
  8
Layer_1
 62
7
100
AcDbSpline
 70
8
 71
3
 72
8
 73
4
 74
0
 40
0
 40
0
 40
0
 40
0
 40
1
 40
1
 40
1
 40
1
 10
89.630373
 20
187.044195
 30
0.0
 10
88.968210
 20
187.044195
 30
0.0
 10
88.430576
 20
187.581828
 30
0.0
 10
88.430576
 20
188.243992
 30
0.0
  0
SPLINE
  5
1ad
100
AcDbEntity
  8
Layer_1
 62
7
100
AcDbSpline
 70
8
 71
3
 72
8
 73
4
 74
0
 40
0
 40
0
 40
0
 40
0
 40
1
 40
1
 40
1
 40
1
 10
88.430576
 20
188.243992
 30
0.0
 10
88.430576
 20
188.906509
 30
0.0
 10
88.968210
 20
189.444142
 30
0.0
 10
89.630373
 20
189.444142
 30
0.0
  0
LWPOLYLINE
  5
1ae
100
AcDbEntity
  8
Layer_1
 62
7
100
AcDbPolyline
 90
2
 70
0
 10
76.130626
 20
189.444142
 30
0.0
 10
76.130626
 20
189.444142
 30
0.0
  0
SPLINE
  5
1af
100
AcDbEntity
  8
Layer_1
 62
7
100
AcDbSpline
 70
8
 71
3
 72
8
 73
4
 74
0
 40
0
 40
0
 40
0
 40
0
 40
1
 40
1
 40
1
 40
1
 10
80.594676
 20
167.220553
 30
0.0
 10
81.256840
 20
167.220553
 30
0.0
 10
81.794473
 20
167.758187
 30
0.0
 10
81.794473
 20
168.420703
 30
0.0
  0
SPLINE
  5
1b0
100
AcDbEntity
  8
Layer_1
 62
7
100
AcDbSpline
 70
8
 71
3
 72
8
 73
4
 74
0
 40
0
 40
0
 40
0
 40
0
 40
1
 40
1
 40
1
 40
1
 10
81.794473
 20
168.420703
 30
0.0
 10
81.794473
 20
169.082867
 30
0.0
 10
81.256840
 20
169.620501
 30
0.0
 10
80.594676
 20
169.620501
 30
0.0
  0
SPLINE
  5
1b1
100
AcDbEntity
  8
Layer_1
 62
7
100
AcDbSpline
 70
8
 71
3
 72
8
 73
4
 74
0
 40
0
 40
0
 40
0
 40
0
 40
1
 40
1
 40
1
 40
1
 10
80.594676
 20
169.620501
 30
0.0
 10
79.932160
 20
169.620501
 30
0.0
 10
79.394526
 20
169.082867
 30
0.0
 10
79.394526
 20
168.420703
 30
0.0
  0
SPLINE
  5
1b2
100
AcDbEntity
  8
Layer_1
 62
7
100
AcDbSpline
 70
8
 71
3
 72
8
 73
4
 74
0
 40
0
 40
0
 40
0
 40
0
 40
1
 40
1
 40
1
 40
1
 10
79.394526
 20
168.420703
 30
0.0
 10
79.394526
 20
167.758187
 30
0.0
 10
79.932160
 20
167.220553
 30
0.0
 10
80.594676
 20
167.220553
 30
0.0
  0
LWPOLYLINE
  5
1b3
100
AcDbEntity
  8
Layer_1
 62
7
100
AcDbPolyline
 90
2
 70
0
 10
89.630373
 20
189.444142
 30
0.0
 10
89.630373
 20
189.444142
 30
0.0
  0
SPLINE
  5
1b4
100
AcDbEntity
  8
Layer_1
 62
7
100
AcDbSpline
 70
8
 71
3
 72
8
 73
4
 74
0
 40
0
 40
0
 40
0
 40
0
 40
1
 40
1
 40
1
 40
1
 10
54.856715
 20
134.177270
 30
0.0
 10
56.105196
 20
131.532142
 30
0.0
 10
53.736646
 20
129.674414
 30
0.0
 10
54.337073
 20
128.187456
 30
0.0
  0
SPLINE
  5
1b5
100
AcDbEntity
  8
Layer_1
 62
7
100
AcDbSpline
 70
8
 71
3
 72
8
 73
4
 74
0
 40
0
 40
0
 40
0
 40
0
 40
1
 40
1
 40
1
 40
1
 10
54.337073
 20
128.187456
 30
0.0
 10
54.487004
 20
127.816334
 30
0.0
 10
54.893404
 20
127.418401
 30
0.0
 10
55.633532
 20
127.400056
 30
0.0
  0
SPLINE
  5
1b6
100
AcDbEntity
  8
Layer_1
 62
7
100
AcDbSpline
 70
8
 71
3
 72
8
 73
4
 74
0
 40
0
 40
0
 40
0
 40
0
 40
1
 40
1
 40
1
 40
1
 10
55.633532
 20
127.400056
 30
0.0
 10
57.797823
 20
127.346081
 30
0.0
 10
59.915901
 20
126.389348
 30
0.0
 10
60.794671
 20
124.285734
 30
0.0
  0
SPLINE
  5
1b7
100
AcDbEntity
  8
Layer_1
 62
7
100
AcDbSpline
 70
8
 71
3
 72
8
 73
4
 74
0
 40
0
 40
0
 40
0
 40
0
 40
1
 40
1
 40
1
 40
1
 10
54.856715
 20
134.177270
 30
0.0
 10
53.770865
 20
136.775831
 30
0.0
 10
54.997473
 20
139.763506
 30
0.0
 10
57.596035
 20
140.849356
 30
0.0
  0
SPLINE
  5
1b8
100
AcDbEntity
  8
Layer_1
 62
7
100
AcDbSpline
 70
8
 71
3
 72
8
 73
4
 74
0
 40
0
 40
0
 40
0
 40
0
 40
1
 40
1
 40
1
 40
1
 10
57.596035
 20
140.849356
 30
0.0
 10
60.194243
 20
141.935206
 30
0.0
 10
63.182271
 20
140.708598
 30
0.0
 10
64.268121
 20
138.110037
 30
0.0
  0
SPLINE
  5
1b9
100
AcDbEntity
  8
Layer_1
 62
7
100
AcDbSpline
 70
8
 71
3
 72
8
 73
4
 74
0
 40
0
 40
0
 40
0
 40
0
 40
1
 40
1
 40
1
 40
1
 10
64.268121
 20
138.110037
 30
0.0
 10
65.939582
 20
132.030264
 30
0.0
 10
67.121740
 20
127.755656
 30
0.0
 10
69.257457
 20
127.821978
 30
0.0
  0
SPLINE
  5
1ba
100
AcDbEntity
  8
Layer_1
 62
7
100
AcDbSpline
 70
8
 71
3
 72
8
 73
4
 74
0
 40
0
 40
0
 40
0
 40
0
 40
1
 40
1
 40
1
 40
1
 10
63.660637
 20
113.110087
 30
0.0
 10
62.655926
 20
115.856814
 30
0.0
 10
59.669662
 20
115.476873
 30
0.0
 10
59.033604
 20
116.949014
 30
0.0
  0
SPLINE
  5
1bb
100
AcDbEntity
  8
Layer_1
 62
7
100
AcDbSpline
 70
8
 71
3
 72
8
 73
4
 74
0
 40
0
 40
0
 40
0
 40
0
 40
1
 40
1
 40
1
 40
1
 10
59.033604
 20
116.949014
 30
0.0
 10
58.874854
 20
117.316609
 30
0.0
 10
58.877323
 20
117.885287
 30
0.0
 10
59.384265
 20
118.424684
 30
0.0
  0
SPLINE
  5
1bc
100
AcDbEntity
  8
Layer_1
 62
7
100
AcDbSpline
 70
8
 71
3
 72
8
 73
4
 74
0
 40
0
 40
0
 40
0
 40
0
 40
1
 40
1
 40
1
 40
1
 10
59.384265
 20
118.424684
 30
0.0
 10
60.866637
 20
120.002659
 30
0.0
 10
61.673793
 20
122.181767
 30
0.0
 10
60.794671
 20
124.285734
 30
0.0
  0
SPLINE
  5
1bd
100
AcDbEntity
  8
Layer_1
 62
7
100
AcDbSpline
 70
8
 71
3
 72
8
 73
4
 74
0
 40
0
 40
0
 40
0
 40
0
 40
1
 40
1
 40
1
 40
1
 10
63.660637
 20
113.110087
 30
0.0
 10
64.746487
 20
110.511526
 30
0.0
 10
67.734162
 20
109.284917
 30
0.0
 10
70.332723
 20
110.370767
 30
0.0
  0
SPLINE
  5
1be
100
AcDbEntity
  8
Layer_1
 62
7
100
AcDbSpline
 70
8
 71
3
 72
8
 73
4
 74
0
 40
0
 40
0
 40
0
 40
0
 40
1
 40
1
 40
1
 40
1
 10
70.332723
 20
110.370767
 30
0.0
 10
72.931285
 20
111.456617
 30
0.0
 10
74.157893
 20
114.444292
 30
0.0
 10
73.072043
 20
117.042853
 30
0.0
  0
SPLINE
  5
1bf
100
AcDbEntity
  8
Layer_1
 62
7
100
AcDbSpline
 70
8
 71
3
 72
8
 73
4
 74
0
 40
0
 40
0
 40
0
 40
0
 40
1
 40
1
 40
1
 40
1
 10
73.071690
 20
117.042853
 30
0.0
 10
69.920679
 20
122.504206
 30
0.0
 10
67.709468
 20
126.349131
 30
0.0
 10
69.257457
 20
127.821978
 30
0.0
  0
SPLINE
  5
1c0
100
AcDbEntity
  8
Layer_1
 62
7
100
AcDbSpline
 70
8
 71
3
 72
8
 73
4
 74
0
 40
0
 40
0
 40
0
 40
0
 40
1
 40
1
 40
1
 40
1
 10
62.732832
 20
116.917264
 30
0.0
 10
62.477421
 20
117.528628
 30
0.0
 10
62.765993
 20
118.231714
 30
0.0
 10
63.377357
 20
118.487126
 30
0.0
  0
SPLINE
  5
1c1
100
AcDbEntity
  8
Layer_1
 62
7
100
AcDbSpline
 70
8
 71
3
 72
8
 73
4
 74
0
 40
0
 40
0
 40
0
 40
0
 40
1
 40
1
 40
1
 40
1
 10
63.377357
 20
118.487126
 30
0.0
 10
63.988368
 20
118.742537
 30
0.0
 10
64.691807
 20
118.453964
 30
0.0
 10
64.947218
 20
117.842601
 30
0.0
  0
SPLINE
  5
1c2
100
AcDbEntity
  8
Layer_1
 62
7
100
AcDbSpline
 70
8
 71
3
 72
8
 73
4
 74
0
 40
0
 40
0
 40
0
 40
0
 40
1
 40
1
 40
1
 40
1
 10
64.947218
 20
117.842601
 30
0.0
 10
65.202629
 20
117.231589
 30
0.0
 10
64.913704
 20
116.528151
 30
0.0
 10
64.302693
 20
116.272739
 30
0.0
  0
SPLINE
  5
1c3
100
AcDbEntity
  8
Layer_1
 62
7
100
AcDbSpline
 70
8
 71
3
 72
8
 73
4
 74
0
 40
0
 40
0
 40
0
 40
0
 40
1
 40
1
 40
1
 40
1
 10
64.302693
 20
116.272739
 30
0.0
 10
63.691682
 20
116.017328
 30
0.0
 10
62.988243
 20
116.306253
 30
0.0
 10
62.732832
 20
116.917264
 30
0.0
  0
LWPOLYLINE
  5
1c4
100
AcDbEntity
  8
Layer_1
 62
7
100
AcDbPolyline
 90
2
 70
0
 10
80.594676
 20
167.220553
 30
0.0
 10
80.594676
 20
167.220553
 30
0.0
  0
SPLINE
  5
1c5
100
AcDbEntity
  8
Layer_1
 62
7
100
AcDbSpline
 70
8
 71
3
 72
8
 73
4
 74
0
 40
0
 40
0
 40
0
 40
0
 40
1
 40
1
 40
1
 40
1
 10
56.902826
 20
130.868214
 30
0.0
 10
56.647415
 20
131.479226
 30
0.0
 10
56.936340
 20
132.182664
 30
0.0
 10
57.547351
 20
132.438076
 30
0.0
  0
SPLINE
  5
1c6
100
AcDbEntity
  8
Layer_1
 62
7
100
AcDbSpline
 70
8
 71
3
 72
8
 73
4
 74
0
 40
0
 40
0
 40
0
 40
0
 40
1
 40
1
 40
1
 40
1
 10
57.547351
 20
132.438076
 30
0.0
 10
58.158362
 20
132.693487
 30
0.0
 10
58.861801
 20
132.404562
 30
0.0
 10
59.117212
 20
131.793551
 30
0.0
  0
SPLINE
  5
1c7
100
AcDbEntity
  8
Layer_1
 62
7
100
AcDbSpline
 70
8
 71
3
 72
8
 73
4
 74
0
 40
0
 40
0
 40
0
 40
0
 40
1
 40
1
 40
1
 40
1
 10
59.117212
 20
131.793551
 30
0.0
 10
59.372623
 20
131.182539
 30
0.0
 10
59.084051
 20
130.479101
 30
0.0
 10
58.472687
 20
130.223689
 30
0.0
  0
SPLINE
  5
1c8
100
AcDbEntity
  8
Layer_1
 62
7
100
AcDbSpline
 70
8
 71
3
 72
8
 73
4
 74
0
 40
0
 40
0
 40
0
 40
0
 40
1
 40
1
 40
1
 40
1
 10
58.472687
 20
130.223689
 30
0.0
 10
57.861676
 20
129.968278
 30
0.0
 10
57.158237
 20
130.257203
 30
0.0
 10
56.902826
 20
130.868214
 30
0.0
  0
LWPOLYLINE
  5
1c9
100
AcDbEntity
  8
Layer_1
 62
7
100
AcDbPolyline
 90
2
 70
0
 10
62.732832
 20
116.917264
 30
0.0
 10
62.732832
 20
116.917264
 30
0.0
  0
SPLINE
  5
1ca
100
AcDbEntity
  8
Layer_1
 62
7
100
AcDbSpline
 70
8
 71
3
 72
8
 73
4
 74
0
 40
0
 40
0
 40
0
 40
0
 40
1
 40
1
 40
1
 40
1
 10
65.253076
 20
126.127234
 30
0.0
 10
64.997665
 20
126.738245
 30
0.0
 10
65.286590
 20
127.441684
 30
0.0
 10
65.897601
 20
127.697095
 30
0.0
  0
SPLINE
  5
1cb
100
AcDbEntity
  8
Layer_1
 62
7
100
AcDbSpline
 70
8
 71
3
 72
8
 73
4
 74
0
 40
0
 40
0
 40
0
 40
0
 40
1
 40
1
 40
1
 40
1
 10
65.897601
 20
127.697095
 30
0.0
 10
66.508965
 20
127.952506
 30
0.0
 10
67.212404
 20
127.663581
 30
0.0
 10
67.467815
 20
127.052570
 30
0.0
  0
SPLINE
  5
1cc
100
AcDbEntity
  8
Layer_1
 62
7
100
AcDbSpline
 70
8
 71
3
 72
8
 73
4
 74
0
 40
0
 40
0
 40
0
 40
0
 40
1
 40
1
 40
1
 40
1
 10
67.467815
 20
127.052570
 30
0.0
 10
67.722873
 20
126.441206
 30
0.0
 10
67.434301
 20
125.738120
 30
0.0
 10
66.823290
 20
125.482709
 30
0.0
  0
SPLINE
  5
1cd
100
AcDbEntity
  8
Layer_1
 62
7
100
AcDbSpline
 70
8
 71
3
 72
8
 73
4
 74
0
 40
0
 40
0
 40
0
 40
0
 40
1
 40
1
 40
1
 40
1
 10
66.823290
 20
125.482709
 30
0.0
 10
66.211926
 20
125.227298
 30
0.0
 10
65.508487
 20
125.515870
 30
0.0
 10
65.253076
 20
126.127234
 30
0.0
  0
LWPOLYLINE
  5
1ce
100
AcDbEntity
  8
Layer_1
 62
7
100
AcDbPolyline
 90
2
 70
0
 10
56.902826
 20
130.868214
 30
0.0
 10
56.902826
 20
130.868214
 30
0.0
  0
SPLINE
  5
1cf
100
AcDbEntity
  8
Layer_1
 62
7
100
AcDbSpline
 70
8
 71
3
 72
8
 73
4
 74
0
 40
0
 40
0
 40
0
 40
0
 40
1
 40
1
 40
1
 40
1
 10
64.319626
 20
180.800734
 30
0.0
 10
63.156165
 20
178.117153
 30
0.0
 10
60.197065
 20
178.670309
 30
0.0
 10
59.476693
 20
177.238031
 30
0.0
  0
SPLINE
  5
1d0
100
AcDbEntity
  8
Layer_1
 62
7
100
AcDbSpline
 70
8
 71
3
 72
8
 73
4
 74
0
 40
0
 40
0
 40
0
 40
0
 40
1
 40
1
 40
1
 40
1
 10
59.476693
 20
177.238031
 30
0.0
 10
59.296776
 20
176.880314
 30
0.0
 10
59.266085
 20
176.312342
 30
0.0
 10
59.740571
 20
175.744370
 30
0.0
  0
SPLINE
  5
1d1
100
AcDbEntity
  8
Layer_1
 62
7
100
AcDbSpline
 70
8
 71
3
 72
8
 73
4
 74
0
 40
0
 40
0
 40
0
 40
0
 40
1
 40
1
 40
1
 40
1
 10
59.740571
 20
175.744370
 30
0.0
 10
61.128398
 20
174.082787
 30
0.0
 10
61.807496
 20
171.860287
 30
0.0
 10
60.807371
 20
169.811353
 30
0.0
  0
SPLINE
  5
1d2
100
AcDbEntity
  8
Layer_1
 62
7
100
AcDbSpline
 70
8
 71
3
 72
8
 73
4
 74
0
 40
0
 40
0
 40
0
 40
0
 40
1
 40
1
 40
1
 40
1
 10
64.319273
 20
180.801087
 30
0.0
 10
65.554701
 20
183.331562
 30
0.0
 10
68.609051
 20
184.382134
 30
0.0
 10
71.139879
 20
183.146706
 30
0.0
  0
SPLINE
  5
1d3
100
AcDbEntity
  8
Layer_1
 62
7
100
AcDbSpline
 70
8
 71
3
 72
8
 73
4
 74
0
 40
0
 40
0
 40
0
 40
0
 40
1
 40
1
 40
1
 40
1
 10
71.139879
 20
183.146706
 30
0.0
 10
73.670707
 20
181.911278
 30
0.0
 10
74.720926
 20
178.856928
 30
0.0
 10
73.485498
 20
176.326453
 30
0.0
  0
SPLINE
  5
1d4
100
AcDbEntity
  8
Layer_1
 62
7
100
AcDbSpline
 70
8
 71
3
 72
8
 73
4
 74
0
 40
0
 40
0
 40
0
 40
0
 40
1
 40
1
 40
1
 40
1
 10
73.485498
 20
176.326453
 30
0.0
 10
71.805571
 20
174.573853
 30
0.0
 10
69.548851
 20
170.201526
 30
0.0
 10
67.666782
 20
166.462787
 30
0.0
  0
SPLINE
  5
1d5
100
AcDbEntity
  8
Layer_1
 62
7
100
AcDbSpline
 70
8
 71
3
 72
8
 73
4
 74
0
 40
0
 40
0
 40
0
 40
0
 40
1
 40
1
 40
1
 40
1
 10
54.302854
 20
160.282473
 30
0.0
 10
55.703382
 20
162.850342
 30
0.0
 10
53.447015
 20
164.842831
 30
0.0
 10
54.133168
 20
166.292395
 30
0.0
  0
SPLINE
  5
1d6
100
AcDbEntity
  8
Layer_1
 62
7
100
AcDbSpline
 70
8
 71
3
 72
8
 73
4
 74
0
 40
0
 40
0
 40
0
 40
0
 40
1
 40
1
 40
1
 40
1
 10
54.133168
 20
166.292395
 30
0.0
 10
54.304618
 20
166.654345
 30
0.0
 10
54.733596
 20
167.027584
 30
0.0
 10
55.473371
 20
167.002889
 30
0.0
  0
SPLINE
  5
1d7
100
AcDbEntity
  8
Layer_1
 62
7
100
AcDbSpline
 70
8
 71
3
 72
8
 73
4
 74
0
 40
0
 40
0
 40
0
 40
0
 40
1
 40
1
 40
1
 40
1
 10
55.473371
 20
167.002889
 30
0.0
 10
57.636957
 20
166.930923
 30
0.0
 10
59.807246
 20
167.762420
 30
0.0
 10
60.807371
 20
169.811353
 30
0.0
  0
SPLINE
  5
1d8
100
AcDbEntity
  8
Layer_1
 62
7
100
AcDbSpline
 70
8
 71
3
 72
8
 73
4
 74
0
 40
0
 40
0
 40
0
 40
0
 40
1
 40
1
 40
1
 40
1
 10
54.302854
 20
160.282473
 30
0.0
 10
53.067426
 20
157.751645
 30
0.0
 10
54.117998
 20
154.697295
 30
0.0
 10
56.648473
 20
153.461867
 30
0.0
  0
SPLINE
  5
1d9
100
AcDbEntity
  8
Layer_1
 62
7
100
AcDbSpline
 70
8
 71
3
 72
8
 73
4
 74
0
 40
0
 40
0
 40
0
 40
0
 40
1
 40
1
 40
1
 40
1
 10
56.648473
 20
153.461867
 30
0.0
 10
59.179301
 20
152.226439
 30
0.0
 10
62.233651
 20
153.277012
 30
0.0
 10
63.469079
 20
155.807839
 30
0.0
  0
SPLINE
  5
1da
100
AcDbEntity
  8
Layer_1
 62
7
100
AcDbSpline
 70
8
 71
3
 72
8
 73
4
 74
0
 40
0
 40
0
 40
0
 40
0
 40
1
 40
1
 40
1
 40
1
 10
63.469079
 20
155.807839
 30
0.0
 10
63.817271
 20
158.210256
 30
0.0
 10
65.876435
 20
162.678892
 30
0.0
 10
67.666782
 20
166.462787
 30
0.0
  0
SPLINE
  5
1db
100
AcDbEntity
  8
Layer_1
 62
7
100
AcDbSpline
 70
8
 71
3
 72
8
 73
4
 74
0
 40
0
 40
0
 40
0
 40
0
 40
1
 40
1
 40
1
 40
1
 10
75.798310
 20
146.337167
 30
0.0
 10
75.852990
 20
142.490478
 30
0.0
 10
81.231793
 20
140.458478
 30
0.0
 10
83.446532
 20
137.580870
 30
0.0
  0
SPLINE
  5
1dc
100
AcDbEntity
  8
Layer_1
 62
7
100
AcDbSpline
 70
8
 71
3
 72
8
 73
4
 74
0
 40
0
 40
0
 40
0
 40
0
 40
1
 40
1
 40
1
 40
1
 10
83.446532
 20
137.580870
 30
0.0
 10
85.218535
 20
134.968903
 30
0.0
 10
83.120565
 20
130.584581
 30
0.0
 10
89.510429
 20
130.071289
 30
0.0
  0
SPLINE
  5
1dd
100
AcDbEntity
  8
Layer_1
 62
7
100
AcDbSpline
 70
8
 71
3
 72
8
 73
4
 74
0
 40
0
 40
0
 40
0
 40
0
 40
1
 40
1
 40
1
 40
1
 10
89.510429
 20
130.071289
 30
0.0
 10
88.332857
 20
135.773237
 30
0.0
 10
88.064393
 20
140.950251
 30
0.0
 10
87.971260
 20
146.337167
 30
0.0
  0
SPLINE
  5
1de
100
AcDbEntity
  8
Layer_1
 62
7
100
AcDbSpline
 70
8
 71
3
 72
8
 73
4
 74
0
 40
0
 40
0
 40
0
 40
0
 40
1
 40
1
 40
1
 40
1
 10
75.798310
 20
146.337167
 30
0.0
 10
75.852990
 20
150.183856
 30
0.0
 10
81.231793
 20
152.215856
 30
0.0
 10
83.446532
 20
155.093464
 30
0.0
  0
SPLINE
  5
1df
100
AcDbEntity
  8
Layer_1
 62
7
100
AcDbSpline
 70
8
 71
3
 72
8
 73
4
 74
0
 40
0
 40
0
 40
0
 40
0
 40
1
 40
1
 40
1
 40
1
 10
83.446532
 20
155.093464
 30
0.0
 10
85.218535
 20
157.705078
 30
0.0
 10
83.120565
 20
162.089753
 30
0.0
 10
89.510429
 20
162.602692
 30
0.0
  0
SPLINE
  5
1e0
100
AcDbEntity
  8
Layer_1
 62
7
100
AcDbSpline
 70
8
 71
3
 72
8
 73
4
 74
0
 40
0
 40
0
 40
0
 40
0
 40
1
 40
1
 40
1
 40
1
 10
89.510429
 20
162.602692
 30
0.0
 10
88.332857
 20
156.901098
 30
0.0
 10
88.064393
 20
151.724084
 30
0.0
 10
87.971260
 20
146.337167
 30
0.0
  0
SPLINE
  5
1e1
100
AcDbEntity
  8
Layer_1
 62
7
100
AcDbSpline
 70
8
 71
3
 72
8
 73
4
 74
0
 40
0
 40
0
 40
0
 40
0
 40
1
 40
1
 40
1
 40
1
 10
78.330548
 20
146.487098
 30
0.0
 10
78.330548
 20
147.811778
 30
0.0
 10
79.405815
 20
148.887045
 30
0.0
 10
80.730496
 20
148.887045
 30
0.0
  0
SPLINE
  5
1e2
100
AcDbEntity
  8
Layer_1
 62
7
100
AcDbSpline
 70
8
 71
3
 72
8
 73
4
 74
0
 40
0
 40
0
 40
0
 40
0
 40
1
 40
1
 40
1
 40
1
 10
80.730496
 20
148.887045
 30
0.0
 10
82.055176
 20
148.887045
 30
0.0
 10
83.130443
 20
147.811778
 30
0.0
 10
83.130443
 20
146.487098
 30
0.0
  0
SPLINE
  5
1e3
100
AcDbEntity
  8
Layer_1
 62
7
100
AcDbSpline
 70
8
 71
3
 72
8
 73
4
 74
0
 40
0
 40
0
 40
0
 40
0
 40
1
 40
1
 40
1
 40
1
 10
83.130443
 20
146.487098
 30
0.0
 10
83.130443
 20
145.162417
 30
0.0
 10
82.055176
 20
144.087151
 30
0.0
 10
80.730496
 20
144.087151
 30
0.0
  0
SPLINE
  5
1e4
100
AcDbEntity
  8
Layer_1
 62
7
100
AcDbSpline
 70
8
 71
3
 72
8
 73
4
 74
0
 40
0
 40
0
 40
0
 40
0
 40
1
 40
1
 40
1
 40
1
 10
80.730496
 20
144.087151
 30
0.0
 10
79.405815
 20
144.087151
 30
0.0
 10
78.330548
 20
145.162417
 30
0.0
 10
78.330548
 20
146.487098
 30
0.0
  0
LWPOLYLINE
  5
1e5
100
AcDbEntity
  8
Layer_1
 62
7
100
AcDbPolyline
 90
2
 70
0
 10
65.253076
 20
126.127234
 30
0.0
 10
65.253076
 20
126.127234
 30
0.0
  0
SPLINE
  5
1e6
100
AcDbEntity
  8
Layer_1
 62
7
100
AcDbSpline
 70
8
 71
3
 72
8
 73
4
 74
0
 40
0
 40
0
 40
0
 40
0
 40
1
 40
1
 40
1
 40
1
 10
84.602585
 20
138.956351
 30
0.0
 10
84.602585
 20
139.618867
 30
0.0
 10
85.140218
 20
140.156501
 30
0.0
 10
85.802735
 20
140.156501
 30
0.0
  0
SPLINE
  5
1e7
100
AcDbEntity
  8
Layer_1
 62
7
100
AcDbSpline
 70
8
 71
3
 72
8
 73
4
 74
0
 40
0
 40
0
 40
0
 40
0
 40
1
 40
1
 40
1
 40
1
 10
85.802735
 20
140.156501
 30
0.0
 10
86.464898
 20
140.156501
 30
0.0
 10
87.002532
 20
139.618867
 30
0.0
 10
87.002532
 20
138.956351
 30
0.0
  0
SPLINE
  5
1e8
100
AcDbEntity
  8
Layer_1
 62
7
100
AcDbSpline
 70
8
 71
3
 72
8
 73
4
 74
0
 40
0
 40
0
 40
0
 40
0
 40
1
 40
1
 40
1
 40
1
 10
87.002532
 20
138.956351
 30
0.0
 10
87.002532
 20
138.293834
 30
0.0
 10
86.464898
 20
137.756201
 30
0.0
 10
85.802735
 20
137.756201
 30
0.0
  0
SPLINE
  5
1e9
100
AcDbEntity
  8
Layer_1
 62
7
100
AcDbSpline
 70
8
 71
3
 72
8
 73
4
 74
0
 40
0
 40
0
 40
0
 40
0
 40
1
 40
1
 40
1
 40
1
 10
85.802735
 20
137.756201
 30
0.0
 10
85.140218
 20
137.756201
 30
0.0
 10
84.602585
 20
138.293834
 30
0.0
 10
84.602585
 20
138.956351
 30
0.0
  0
LWPOLYLINE
  5
1ea
100
AcDbEntity
  8
Layer_1
 62
7
100
AcDbPolyline
 90
2
 70
0
 10
78.330548
 20
146.487098
 30
0.0
 10
78.330548
 20
146.487098
 30
0.0
  0
SPLINE
  5
1eb
100
AcDbEntity
  8
Layer_1
 62
7
100
AcDbSpline
 70
8
 71
3
 72
8
 73
4
 74
0
 40
0
 40
0
 40
0
 40
0
 40
1
 40
1
 40
1
 40
1
 10
84.602585
 20
154.076406
 30
0.0
 10
84.602585
 20
154.738570
 30
0.0
 10
85.140218
 20
155.276203
 30
0.0
 10
85.802735
 20
155.276203
 30
0.0
  0
SPLINE
  5
1ec
100
AcDbEntity
  8
Layer_1
 62
7
100
AcDbSpline
 70
8
 71
3
 72
8
 73
4
 74
0
 40
0
 40
0
 40
0
 40
0
 40
1
 40
1
 40
1
 40
1
 10
85.802735
 20
155.276203
 30
0.0
 10
86.464898
 20
155.276203
 30
0.0
 10
87.002532
 20
154.738570
 30
0.0
 10
87.002532
 20
154.076406
 30
0.0
  0
SPLINE
  5
1ed
100
AcDbEntity
  8
Layer_1
 62
7
100
AcDbSpline
 70
8
 71
3
 72
8
 73
4
 74
0
 40
0
 40
0
 40
0
 40
0
 40
1
 40
1
 40
1
 40
1
 10
87.002532
 20
154.076406
 30
0.0
 10
87.002532
 20
153.413889
 30
0.0
 10
86.464898
 20
152.876256
 30
0.0
 10
85.802735
 20
152.876256
 30
0.0
  0
SPLINE
  5
1ee
100
AcDbEntity
  8
Layer_1
 62
7
100
AcDbSpline
 70
8
 71
3
 72
8
 73
4
 74
0
 40
0
 40
0
 40
0
 40
0
 40
1
 40
1
 40
1
 40
1
 10
85.802735
 20
152.876256
 30
0.0
 10
85.140218
 20
152.876256
 30
0.0
 10
84.602585
 20
153.413889
 30
0.0
 10
84.602585
 20
154.076406
 30
0.0
  0
LWPOLYLINE
  5
1ef
100
AcDbEntity
  8
Layer_1
 62
7
100
AcDbPolyline
 90
2
 70
0
 10
84.602585
 20
138.956351
 30
0.0
 10
84.602585
 20
138.956351
 30
0.0
  0
SPLINE
  5
1f0
100
AcDbEntity
  8
Layer_1
 62
7
100
AcDbSpline
 70
8
 71
3
 72
8
 73
4
 74
0
 40
0
 40
0
 40
0
 40
0
 40
1
 40
1
 40
1
 40
1
 10
138.711640
 20
166.496301
 30
0.0
 10
139.374157
 20
166.496301
 30
0.0
 10
139.911790
 20
165.958667
 30
0.0
 10
139.911790
 20
165.296151
 30
0.0
  0
SPLINE
  5
1f1
100
AcDbEntity
  8
Layer_1
 62
7
100
AcDbSpline
 70
8
 71
3
 72
8
 73
4
 74
0
 40
0
 40
0
 40
0
 40
0
 40
1
 40
1
 40
1
 40
1
 10
139.911790
 20
165.296151
 30
0.0
 10
139.911790
 20
164.633987
 30
0.0
 10
139.374157
 20
164.096353
 30
0.0
 10
138.711640
 20
164.096353
 30
0.0
  0
SPLINE
  5
1f2
100
AcDbEntity
  8
Layer_1
 62
7
100
AcDbSpline
 70
8
 71
3
 72
8
 73
4
 74
0
 40
0
 40
0
 40
0
 40
0
 40
1
 40
1
 40
1
 40
1
 10
138.711640
 20
164.096353
 30
0.0
 10
138.049123
 20
164.096353
 30
0.0
 10
137.511490
 20
164.633987
 30
0.0
 10
137.511490
 20
165.296151
 30
0.0
  0
SPLINE
  5
1f3
100
AcDbEntity
  8
Layer_1
 62
7
100
AcDbSpline
 70
8
 71
3
 72
8
 73
4
 74
0
 40
0
 40
0
 40
0
 40
0
 40
1
 40
1
 40
1
 40
1
 10
137.511490
 20
165.296151
 30
0.0
 10
137.511490
 20
165.958667
 30
0.0
 10
138.049123
 20
166.496301
 30
0.0
 10
138.711640
 20
166.496301
 30
0.0
  0
LWPOLYLINE
  5
1f4
100
AcDbEntity
  8
Layer_1
 62
7
100
AcDbPolyline
 90
2
 70
0
 10
84.602585
 20
154.076406
 30
0.0
 10
84.602585
 20
154.076406
 30
0.0
  0
SPLINE
  5
1f5
100
AcDbEntity
  8
Layer_1
 62
7
100
AcDbSpline
 70
8
 71
3
 72
8
 73
4
 74
0
 40
0
 40
0
 40
0
 40
0
 40
1
 40
1
 40
1
 40
1
 10
137.205985
 20
169.328048
 30
0.0
 10
137.674826
 20
169.503026
 30
0.0
 10
138.182121
 20
169.598628
 30
0.0
 10
138.711640
 20
169.598628
 30
0.0
  0
SPLINE
  5
1f6
100
AcDbEntity
  8
Layer_1
 62
7
100
AcDbSpline
 70
8
 71
3
 72
8
 73
4
 74
0
 40
0
 40
0
 40
0
 40
0
 40
1
 40
1
 40
1
 40
1
 10
138.711640
 20
169.598628
 30
0.0
 10
141.087598
 20
169.598628
 30
0.0
 10
143.014118
 20
167.672109
 30
0.0
 10
143.014118
 20
165.296151
 30
0.0
  0
SPLINE
  5
1f7
100
AcDbEntity
  8
Layer_1
 62
7
100
AcDbSpline
 70
8
 71
3
 72
8
 73
4
 74
0
 40
0
 40
0
 40
0
 40
0
 40
1
 40
1
 40
1
 40
1
 10
143.014118
 20
165.296151
 30
0.0
 10
143.014118
 20
162.920545
 30
0.0
 10
141.087598
 20
160.993673
 30
0.0
 10
138.711640
 20
160.993673
 30
0.0
  0
SPLINE
  5
1f8
100
AcDbEntity
  8
Layer_1
 62
7
100
AcDbSpline
 70
8
 71
3
 72
8
 73
4
 74
0
 40
0
 40
0
 40
0
 40
0
 40
1
 40
1
 40
1
 40
1
 10
138.711640
 20
160.993673
 30
0.0
 10
136.762543
 20
160.993673
 30
0.0
 10
135.116129
 20
162.290484
 30
0.0
 10
134.587315
 20
164.067778
 30
0.0
  0
SPLINE
  5
1f9
100
AcDbEntity
  8
Layer_1
 62
7
100
AcDbSpline
 70
8
 71
3
 72
8
 73
4
 74
0
 40
0
 40
0
 40
0
 40
0
 40
1
 40
1
 40
1
 40
1
 10
134.578848
 20
166.496301
 30
0.0
 10
134.150929
 20
173.735301
 30
0.0
 10
138.806890
 20
176.782595
 30
0.0
 10
140.483996
 20
177.821526
 30
0.0
  0
SPLINE
  5
1fa
100
AcDbEntity
  8
Layer_1
 62
7
100
AcDbSpline
 70
8
 71
3
 72
8
 73
4
 74
0
 40
0
 40
0
 40
0
 40
0
 40
1
 40
1
 40
1
 40
1
 10
137.185523
 20
169.319934
 30
0.0
 10
137.545710
 20
172.579953
 30
0.0
 10
139.501862
 20
174.430626
 30
0.0
 10
141.817143
 20
175.825862
 30
0.0
  0
SPLINE
  5
1fb
100
AcDbEntity
  8
Layer_1
 62
7
100
AcDbSpline
 70
8
 71
3
 72
8
 73
4
 74
0
 40
0
 40
0
 40
0
 40
0
 40
1
 40
1
 40
1
 40
1
 10
140.483996
 20
177.821526
 30
0.0
 10
140.675554
 20
177.950995
 30
0.0
 10
140.917560
 20
178.034251
 30
0.0
 10
141.166268
 20
178.034251
 30
0.0
  0
SPLINE
  5
1fc
100
AcDbEntity
  8
Layer_1
 62
7
100
AcDbSpline
 70
8
 71
3
 72
8
 73
4
 74
0
 40
0
 40
0
 40
0
 40
0
 40
1
 40
1
 40
1
 40
1
 10
141.166268
 20
178.034251
 30
0.0
 10
141.828785
 20
178.034251
 30
0.0
 10
142.366065
 20
177.496617
 30
0.0
 10
142.366065
 20
176.834101
 30
0.0
  0
SPLINE
  5
1fd
100
AcDbEntity
  8
Layer_1
 62
7
100
AcDbSpline
 70
8
 71
3
 72
8
 73
4
 74
0
 40
0
 40
0
 40
0
 40
0
 40
1
 40
1
 40
1
 40
1
 10
142.366065
 20
176.834101
 30
0.0
 10
142.366065
 20
176.419939
 30
0.0
 10
142.136407
 20
176.041762
 30
0.0
 10
141.817143
 20
175.825862
 30
0.0
  0
LWPOLYLINE
  5
1fe
100
AcDbEntity
  8
Layer_1
 62
7
100
AcDbPolyline
 90
2
 70
0
 10
138.711640
 20
166.496301
 30
0.0
 10
138.711640
 20
166.496301
 30
0.0
  0
LWPOLYLINE
  5
1ff
100
AcDbEntity
  8
Layer_1
 62
7
100
AcDbPolyline
 90
2
 70
0
 10
122.991510
 20
164.096353
 30
0.0
 10
134.589079
 20
164.096353
 30
0.0
  0
SPLINE
  5
200
100
AcDbEntity
  8
Layer_1
 62
7
100
AcDbSpline
 70
8
 71
3
 72
8
 73
4
 74
0
 40
0
 40
0
 40
0
 40
0
 40
1
 40
1
 40
1
 40
1
 10
122.991510
 20
164.096353
 30
0.0
 10
122.328993
 20
164.096353
 30
0.0
 10
121.791712
 20
164.633634
 30
0.0
 10
121.791712
 20
165.296151
 30
0.0
  0
SPLINE
  5
201
100
AcDbEntity
  8
Layer_1
 62
7
100
AcDbSpline
 70
8
 71
3
 72
8
 73
4
 74
0
 40
0
 40
0
 40
0
 40
0
 40
1
 40
1
 40
1
 40
1
 10
121.791712
 20
165.296151
 30
0.0
 10
121.791712
 20
165.959020
 30
0.0
 10
122.328993
 20
166.496301
 30
0.0
 10
122.991510
 20
166.496301
 30
0.0
  0
LWPOLYLINE
  5
202
100
AcDbEntity
  8
Layer_1
 62
7
100
AcDbPolyline
 90
2
 70
0
 10
122.991510
 20
166.496301
 30
0.0
 10
134.566148
 20
166.496301
 30
0.0
  0
SPLINE
  5
203
100
AcDbEntity
  8
Layer_1
 62
7
100
AcDbSpline
 70
8
 71
3
 72
8
 73
4
 74
0
 40
0
 40
0
 40
0
 40
0
 40
1
 40
1
 40
1
 40
1
 10
145.536832
 20
116.080828
 30
0.0
 10
148.204185
 20
119.525351
 30
0.0
 10
143.777882
 20
125.732828
 30
0.0
 10
138.899318
 20
122.298537
 30
0.0
  0
SPLINE
  5
204
100
AcDbEntity
  8
Layer_1
 62
7
100
AcDbSpline
 70
8
 71
3
 72
8
 73
4
 74
0
 40
0
 40
0
 40
0
 40
0
 40
1
 40
1
 40
1
 40
1
 10
138.899318
 20
122.298537
 30
0.0
 10
137.767960
 20
121.539712
 30
0.0
 10
134.534751
 20
117.691612
 30
0.0
 10
130.486979
 20
119.116481
 30
0.0
  0
SPLINE
  5
205
100
AcDbEntity
  8
Layer_1
 62
7
100
AcDbSpline
 70
8
 71
3
 72
8
 73
4
 74
0
 40
0
 40
0
 40
0
 40
0
 40
1
 40
1
 40
1
 40
1
 10
130.486979
 20
119.116481
 30
0.0
 10
128.774243
 20
119.605784
 30
0.0
 10
125.824668
 20
121.495967
 30
0.0
 10
122.553007
 20
117.384342
 30
0.0
  0
LWPOLYLINE
  5
206
100
AcDbEntity
  8
Layer_1
 62
7
100
AcDbPolyline
 90
3
 70
0
 10
122.553007
 20
117.384342
 30
0.0
 10
136.798173
 20
104.040170
 30
0.0
 10
145.536832
 20
116.080828
 30
0.0
  0
SPLINE
  5
207
100
AcDbEntity
  8
Layer_1
 62
7
100
AcDbSpline
 70
8
 71
3
 72
8
 73
4
 74
0
 40
0
 40
0
 40
0
 40
0
 40
1
 40
1
 40
1
 40
1
 10
137.060287
 20
109.881817
 30
0.0
 10
136.607321
 20
109.398159
 30
0.0
 10
135.847790
 20
109.373464
 30
0.0
 10
135.364132
 20
109.826431
 30
0.0
  0
SPLINE
  5
208
100
AcDbEntity
  8
Layer_1
 62
7
100
AcDbSpline
 70
8
 71
3
 72
8
 73
4
 74
0
 40
0
 40
0
 40
0
 40
0
 40
1
 40
1
 40
1
 40
1
 10
135.364132
 20
109.826431
 30
0.0
 10
134.880473
 20
110.279398
 30
0.0
 10
134.855779
 20
111.038928
 30
0.0
 10
135.308746
 20
111.522587
 30
0.0
  0
SPLINE
  5
209
100
AcDbEntity
  8
Layer_1
 62
7
100
AcDbSpline
 70
8
 71
3
 72
8
 73
4
 74
0
 40
0
 40
0
 40
0
 40
0
 40
1
 40
1
 40
1
 40
1
 10
136.129307
 20
112.398181
 30
0.0
 10
136.582273
 20
112.881839
 30
0.0
 10
137.341804
 20
112.906534
 30
0.0
 10
137.825462
 20
112.453567
 30
0.0
  0
SPLINE
  5
20a
100
AcDbEntity
  8
Layer_1
 62
7
100
AcDbSpline
 70
8
 71
3
 72
8
 73
4
 74
0
 40
0
 40
0
 40
0
 40
0
 40
1
 40
1
 40
1
 40
1
 10
137.825462
 20
112.453567
 30
0.0
 10
138.308768
 20
112.000601
 30
0.0
 10
138.333815
 20
111.241070
 30
0.0
 10
137.880848
 20
110.757412
 30
0.0
  0
LWPOLYLINE
  5
20b
100
AcDbEntity
  8
Layer_1
 62
7
100
AcDbPolyline
 90
2
 70
0
 10
122.553007
 20
117.384342
 30
0.0
 10
122.553007
 20
117.384342
 30
0.0
  0
LWPOLYLINE
  5
20c
100
AcDbEntity
  8
Layer_1
 62
7
100
AcDbPolyline
 90
2
 70
0
 10
135.308746
 20
111.522587
 30
0.0
 10
136.129307
 20
112.398181
 30
0.0
  0
SPLINE
  5
20d
100
AcDbEntity
  8
Layer_1
 62
7
100
AcDbSpline
 70
8
 71
3
 72
8
 73
4
 74
0
 40
0
 40
0
 40
0
 40
0
 40
1
 40
1
 40
1
 40
1
 10
142.429565
 20
117.679970
 30
0.0
 10
142.069732
 20
117.123287
 30
0.0
 10
141.326782
 20
116.963478
 30
0.0
 10
140.770098
 20
117.323312
 30
0.0
  0
SPLINE
  5
20e
100
AcDbEntity
  8
Layer_1
 62
7
100
AcDbSpline
 70
8
 71
3
 72
8
 73
4
 74
0
 40
0
 40
0
 40
0
 40
0
 40
1
 40
1
 40
1
 40
1
 10
140.770098
 20
117.323312
 30
0.0
 10
140.213768
 20
117.682792
 30
0.0
 10
140.053960
 20
118.425742
 30
0.0
 10
140.413793
 20
118.982426
 30
0.0
  0
SPLINE
  5
20f
100
AcDbEntity
  8
Layer_1
 62
7
100
AcDbSpline
 70
8
 71
3
 72
8
 73
4
 74
0
 40
0
 40
0
 40
0
 40
0
 40
1
 40
1
 40
1
 40
1
 10
141.065021
 20
119.990312
 30
0.0
 10
141.424501
 20
120.546642
 30
0.0
 10
142.167804
 20
120.706451
 30
0.0
 10
142.724135
 20
120.346970
 30
0.0
  0
SPLINE
  5
210
100
AcDbEntity
  8
Layer_1
 62
7
100
AcDbSpline
 70
8
 71
3
 72
8
 73
4
 74
0
 40
0
 40
0
 40
0
 40
0
 40
1
 40
1
 40
1
 40
1
 10
142.724135
 20
120.346970
 30
0.0
 10
143.280818
 20
119.987137
 30
0.0
 10
143.440273
 20
119.244187
 30
0.0
 10
143.080793
 20
118.687856
 30
0.0
  0
LWPOLYLINE
  5
211
100
AcDbEntity
  8
Layer_1
 62
7
100
AcDbPolyline
 90
2
 70
0
 10
137.060287
 20
109.881817
 30
0.0
 10
137.880848
 20
110.757412
 30
0.0
  0
LWPOLYLINE
  5
212
100
AcDbEntity
  8
Layer_1
 62
7
100
AcDbPolyline
 90
2
 70
0
 10
140.413793
 20
118.982426
 30
0.0
 10
141.065021
 20
119.990312
 30
0.0
  0
LWPOLYLINE
  5
213
100
AcDbEntity
  8
Layer_1
 62
7
100
AcDbPolyline
 90
2
 70
0
 10
142.429565
 20
117.679970
 30
0.0
 10
143.080793
 20
118.687856
 30
0.0
  0
SPLINE
  5
214
100
AcDbEntity
  8
Layer_1
 62
7
100
AcDbSpline
 70
8
 71
3
 72
8
 73
4
 74
0
 40
0
 40
0
 40
0
 40
0
 40
1
 40
1
 40
1
 40
1
 10
125.353710
 20
94.534573
 30
0.0
 10
122.090515
 20
91.648145
 30
0.0
 10
115.607518
 20
95.659934
 30
0.0
 10
118.716196
 20
100.752281
 30
0.0
  0
SPLINE
  5
215
100
AcDbEntity
  8
Layer_1
 62
7
100
AcDbSpline
 70
8
 71
3
 72
8
 73
4
 74
0
 40
0
 40
0
 40
0
 40
0
 40
1
 40
1
 40
1
 40
1
 10
118.716196
 20
100.752281
 30
0.0
 10
119.399526
 20
101.930559
 30
0.0
 10
123.028551
 20
105.407889
 30
0.0
 10
121.342273
 20
109.354414
 30
0.0
  0
SPLINE
  5
216
100
AcDbEntity
  8
Layer_1
 62
7
100
AcDbSpline
 70
8
 71
3
 72
8
 73
4
 74
0
 40
0
 40
0
 40
0
 40
0
 40
1
 40
1
 40
1
 40
1
 10
121.342273
 20
109.354414
 30
0.0
 10
120.742198
 20
111.031520
 30
0.0
 10
118.663632
 20
113.851626
 30
0.0
 10
122.553360
 20
117.384342
 30
0.0
  0
LWPOLYLINE
  5
217
100
AcDbEntity
  8
Layer_1
 62
7
100
AcDbPolyline
 90
3
 70
0
 10
122.553360
 20
117.384342
 30
0.0
 10
136.798173
 20
104.040523
 30
0.0
 10
125.353710
 20
94.534573
 30
0.0
  0
SPLINE
  5
218
100
AcDbEntity
  8
Layer_1
 62
7
100
AcDbSpline
 70
8
 71
3
 72
8
 73
4
 74
0
 40
0
 40
0
 40
0
 40
0
 40
1
 40
1
 40
1
 40
1
 10
130.986512
 20
103.397762
 30
0.0
 10
131.439479
 20
103.881067
 30
0.0
 10
131.414432
 20
104.640951
 30
0.0
 10
130.931126
 20
105.093917
 30
0.0
  0
SPLINE
  5
219
100
AcDbEntity
  8
Layer_1
 62
7
100
AcDbSpline
 70
8
 71
3
 72
8
 73
4
 74
0
 40
0
 40
0
 40
0
 40
0
 40
1
 40
1
 40
1
 40
1
 10
130.931126
 20
105.093917
 30
0.0
 10
130.447468
 20
105.546884
 30
0.0
 10
129.687937
 20
105.521837
 30
0.0
 10
129.234971
 20
105.038531
 30
0.0
  0
SPLINE
  5
21a
100
AcDbEntity
  8
Layer_1
 62
7
100
AcDbSpline
 70
8
 71
3
 72
8
 73
4
 74
0
 40
0
 40
0
 40
0
 40
0
 40
1
 40
1
 40
1
 40
1
 10
128.414410
 20
104.162584
 30
0.0
 10
127.961443
 20
103.678926
 30
0.0
 10
127.986137
 20
102.919395
 30
0.0
 10
128.469796
 20
102.466428
 30
0.0
  0
SPLINE
  5
21b
100
AcDbEntity
  8
Layer_1
 62
7
100
AcDbSpline
 70
8
 71
3
 72
8
 73
4
 74
0
 40
0
 40
0
 40
0
 40
0
 40
1
 40
1
 40
1
 40
1
 10
128.469796
 20
102.466428
 30
0.0
 10
128.953454
 20
102.013462
 30
0.0
 10
129.712985
 20
102.038156
 30
0.0
 10
130.165951
 20
102.521814
 30
0.0
  0
LWPOLYLINE
  5
21c
100
AcDbEntity
  8
Layer_1
 62
7
100
AcDbPolyline
 90
2
 70
0
 10
122.553360
 20
117.384342
 30
0.0
 10
122.553360
 20
117.384342
 30
0.0
  0
LWPOLYLINE
  5
21d
100
AcDbEntity
  8
Layer_1
 62
7
100
AcDbPolyline
 90
2
 70
0
 10
129.234971
 20
105.038531
 30
0.0
 10
128.414410
 20
104.162584
 30
0.0
  0
SPLINE
  5
21e
100
AcDbEntity
  8
Layer_1
 62
7
100
AcDbSpline
 70
8
 71
3
 72
8
 73
4
 74
0
 40
0
 40
0
 40
0
 40
0
 40
1
 40
1
 40
1
 40
1
 10
123.555248
 20
97.531067
 30
0.0
 10
124.087237
 20
97.926178
 30
0.0
 10
124.198010
 20
98.678301
 30
0.0
 10
123.802898
 20
99.209937
 30
0.0
  0
SPLINE
  5
21f
100
AcDbEntity
  8
Layer_1
 62
7
100
AcDbSpline
 70
8
 71
3
 72
8
 73
4
 74
0
 40
0
 40
0
 40
0
 40
0
 40
1
 40
1
 40
1
 40
1
 10
123.802898
 20
99.209937
 30
0.0
 10
123.407787
 20
99.741926
 30
0.0
 10
122.655665
 20
99.852698
 30
0.0
 10
122.124029
 20
99.457587
 30
0.0
  0
SPLINE
  5
220
100
AcDbEntity
  8
Layer_1
 62
7
100
AcDbSpline
 70
8
 71
3
 72
8
 73
4
 74
0
 40
0
 40
0
 40
0
 40
0
 40
1
 40
1
 40
1
 40
1
 10
121.160593
 20
98.741801
 30
0.0
 10
120.628957
 20
98.346689
 30
0.0
 10
120.517832
 20
97.594920
 30
0.0
 10
120.912943
 20
97.062931
 30
0.0
  0
SPLINE
  5
221
100
AcDbEntity
  8
Layer_1
 62
7
100
AcDbSpline
 70
8
 71
3
 72
8
 73
4
 74
0
 40
0
 40
0
 40
0
 40
0
 40
1
 40
1
 40
1
 40
1
 10
120.912943
 20
97.062931
 30
0.0
 10
121.308407
 20
96.531295
 30
0.0
 10
122.060176
 20
96.420170
 30
0.0
 10
122.592165
 20
96.815281
 30
0.0
  0
LWPOLYLINE
  5
222
100
AcDbEntity
  8
Layer_1
 62
7
100
AcDbPolyline
 90
2
 70
0
 10
130.986512
 20
103.397762
 30
0.0
 10
130.165951
 20
102.521814
 30
0.0
  0
LWPOLYLINE
  5
223
100
AcDbEntity
  8
Layer_1
 62
7
100
AcDbPolyline
 90
2
 70
0
 10
122.124029
 20
99.457587
 30
0.0
 10
121.160593
 20
98.741801
 30
0.0
  0
LWPOLYLINE
  5
224
100
AcDbEntity
  8
Layer_1
 62
7
100
AcDbPolyline
 90
2
 70
0
 10
123.555248
 20
97.531067
 30
0.0
 10
122.592165
 20
96.815281
 30
0.0
  0
SPLINE
  5
225
100
AcDbEntity
  8
Layer_1
 62
7
100
AcDbSpline
 70
8
 71
3
 72
8
 73
4
 74
0
 40
0
 40
0
 40
0
 40
0
 40
1
 40
1
 40
1
 40
1
 10
137.086746
 20
144.907006
 30
0.0
 10
139.610871
 20
144.907006
 30
0.0
 10
141.659804
 20
142.826676
 30
0.0
 10
141.659804
 20
140.263392
 30
0.0
  0
LWPOLYLINE
  5
226
100
AcDbEntity
  8
Layer_1
 62
7
100
AcDbPolyline
 90
2
 70
0
 10
136.632721
 20
144.907006
 30
0.0
 10
137.086746
 20
144.907006
 30
0.0
  0
SPLINE
  5
227
100
AcDbEntity
  8
Layer_1
 62
7
100
AcDbSpline
 70
8
 71
3
 72
8
 73
4
 74
0
 40
0
 40
0
 40
0
 40
0
 40
1
 40
1
 40
1
 40
1
 10
141.659804
 20
127.950742
 30
0.0
 10
141.659804
 20
125.387459
 30
0.0
 10
139.610871
 20
123.307128
 30
0.0
 10
137.086746
 20
123.307128
 30
0.0
  0
LWPOLYLINE
  5
228
100
AcDbEntity
  8
Layer_1
 62
7
100
AcDbPolyline
 90
2
 70
0
 10
141.659804
 20
140.263392
 30
0.0
 10
141.659804
 20
127.950742
 30
0.0
  0
SPLINE
  5
229
100
AcDbEntity
  8
Layer_1
 62
7
100
AcDbSpline
 70
8
 71
3
 72
8
 73
4
 74
0
 40
0
 40
0
 40
0
 40
0
 40
1
 40
1
 40
1
 40
1
 10
136.632721
 20
123.307128
 30
0.0
 10
134.108596
 20
123.307128
 30
0.0
 10
132.059662
 20
125.387459
 30
0.0
 10
132.059662
 20
127.950742
 30
0.0
  0
LWPOLYLINE
  5
22a
100
AcDbEntity
  8
Layer_1
 62
7
100
AcDbPolyline
 90
2
 70
0
 10
137.086746
 20
123.307128
 30
0.0
 10
136.632721
 20
123.307128
 30
0.0
  0
SPLINE
  5
22b
100
AcDbEntity
  8
Layer_1
 62
7
100
AcDbSpline
 70
8
 71
3
 72
8
 73
4
 74
0
 40
0
 40
0
 40
0
 40
0
 40
1
 40
1
 40
1
 40
1
 10
132.059662
 20
140.263392
 30
0.0
 10
132.059662
 20
142.826676
 30
0.0
 10
134.108596
 20
144.907006
 30
0.0
 10
136.632721
 20
144.907006
 30
0.0
  0
LWPOLYLINE
  5
22c
100
AcDbEntity
  8
Layer_1
 62
7
100
AcDbPolyline
 90
2
 70
0
 10
132.059662
 20
127.950742
 30
0.0
 10
132.059662
 20
140.263392
 30
0.0
  0
SPLINE
  5
22d
100
AcDbEntity
  8
Layer_1
 62
7
100
AcDbSpline
 70
8
 71
3
 72
8
 73
4
 74
0
 40
0
 40
0
 40
0
 40
0
 40
1
 40
1
 40
1
 40
1
 10
136.859557
 20
137.107089
 30
0.0
 10
138.515496
 20
137.107089
 30
0.0
 10
139.859579
 20
135.763006
 30
0.0
 10
139.859579
 20
134.107067
 30
0.0
  0
SPLINE
  5
22e
100
AcDbEntity
  8
Layer_1
 62
7
100
AcDbSpline
 70
8
 71
3
 72
8
 73
4
 74
0
 40
0
 40
0
 40
0
 40
0
 40
1
 40
1
 40
1
 40
1
 10
139.859579
 20
134.107067
 30
0.0
 10
139.859579
 20
132.451128
 30
0.0
 10
138.515496
 20
131.107045
 30
0.0
 10
136.859557
 20
131.107045
 30
0.0
  0
SPLINE
  5
22f
100
AcDbEntity
  8
Layer_1
 62
7
100
AcDbSpline
 70
8
 71
3
 72
8
 73
4
 74
0
 40
0
 40
0
 40
0
 40
0
 40
1
 40
1
 40
1
 40
1
 10
136.859557
 20
131.107045
 30
0.0
 10
135.203618
 20
131.107045
 30
0.0
 10
133.859535
 20
132.451128
 30
0.0
 10
133.859535
 20
134.107067
 30
0.0
  0
SPLINE
  5
230
100
AcDbEntity
  8
Layer_1
 62
7
100
AcDbSpline
 70
8
 71
3
 72
8
 73
4
 74
0
 40
0
 40
0
 40
0
 40
0
 40
1
 40
1
 40
1
 40
1
 10
133.859535
 20
134.107067
 30
0.0
 10
133.859535
 20
135.763006
 30
0.0
 10
135.203618
 20
137.107089
 30
0.0
 10
136.859557
 20
137.107089
 30
0.0
  0
LWPOLYLINE
  5
231
100
AcDbEntity
  8
Layer_1
 62
7
100
AcDbPolyline
 90
2
 70
0
 10
136.632721
 20
144.907006
 30
0.0
 10
136.632721
 20
144.907006
 30
0.0
  0
SPLINE
  5
232
100
AcDbEntity
  8
Layer_1
 62
7
100
AcDbSpline
 70
8
 71
3
 72
8
 73
4
 74
0
 40
0
 40
0
 40
0
 40
0
 40
1
 40
1
 40
1
 40
1
 10
136.859557
 20
141.049734
 30
0.0
 10
137.522073
 20
141.049734
 30
0.0
 10
138.059707
 20
140.512101
 30
0.0
 10
138.059707
 20
139.849584
 30
0.0
  0
SPLINE
  5
233
100
AcDbEntity
  8
Layer_1
 62
7
100
AcDbSpline
 70
8
 71
3
 72
8
 73
4
 74
0
 40
0
 40
0
 40
0
 40
0
 40
1
 40
1
 40
1
 40
1
 10
138.059707
 20
139.849584
 30
0.0
 10
138.059707
 20
139.187420
 30
0.0
 10
137.522073
 20
138.649787
 30
0.0
 10
136.859557
 20
138.649787
 30
0.0
  0
SPLINE
  5
234
100
AcDbEntity
  8
Layer_1
 62
7
100
AcDbSpline
 70
8
 71
3
 72
8
 73
4
 74
0
 40
0
 40
0
 40
0
 40
0
 40
1
 40
1
 40
1
 40
1
 10
136.859557
 20
138.649787
 30
0.0
 10
136.197393
 20
138.649787
 30
0.0
 10
135.659760
 20
139.187420
 30
0.0
 10
135.659760
 20
139.849584
 30
0.0
  0
SPLINE
  5
235
100
AcDbEntity
  8
Layer_1
 62
7
100
AcDbSpline
 70
8
 71
3
 72
8
 73
4
 74
0
 40
0
 40
0
 40
0
 40
0
 40
1
 40
1
 40
1
 40
1
 10
135.659760
 20
139.849584
 30
0.0
 10
135.659760
 20
140.512101
 30
0.0
 10
136.197393
 20
141.049734
 30
0.0
 10
136.859557
 20
141.049734
 30
0.0
  0
LWPOLYLINE
  5
236
100
AcDbEntity
  8
Layer_1
 62
7
100
AcDbPolyline
 90
2
 70
0
 10
136.859557
 20
137.107089
 30
0.0
 10
136.859557
 20
137.107089
 30
0.0
  0
SPLINE
  5
237
100
AcDbEntity
  8
Layer_1
 62
7
100
AcDbSpline
 70
8
 71
3
 72
8
 73
4
 74
0
 40
0
 40
0
 40
0
 40
0
 40
1
 40
1
 40
1
 40
1
 10
136.859557
 20
129.605270
 30
0.0
 10
137.522073
 20
129.605270
 30
0.0
 10
138.059707
 20
129.067637
 30
0.0
 10
138.059707
 20
128.405120
 30
0.0
  0
SPLINE
  5
238
100
AcDbEntity
  8
Layer_1
 62
7
100
AcDbSpline
 70
8
 71
3
 72
8
 73
4
 74
0
 40
0
 40
0
 40
0
 40
0
 40
1
 40
1
 40
1
 40
1
 10
138.059707
 20
128.405120
 30
0.0
 10
138.059707
 20
127.742956
 30
0.0
 10
137.522073
 20
127.205323
 30
0.0
 10
136.859557
 20
127.205323
 30
0.0
  0
SPLINE
  5
239
100
AcDbEntity
  8
Layer_1
 62
7
100
AcDbSpline
 70
8
 71
3
 72
8
 73
4
 74
0
 40
0
 40
0
 40
0
 40
0
 40
1
 40
1
 40
1
 40
1
 10
136.859557
 20
127.205323
 30
0.0
 10
136.197393
 20
127.205323
 30
0.0
 10
135.659760
 20
127.742956
 30
0.0
 10
135.659760
 20
128.405120
 30
0.0
  0
SPLINE
  5
23a
100
AcDbEntity
  8
Layer_1
 62
7
100
AcDbSpline
 70
8
 71
3
 72
8
 73
4
 74
0
 40
0
 40
0
 40
0
 40
0
 40
1
 40
1
 40
1
 40
1
 10
135.659760
 20
128.405120
 30
0.0
 10
135.659760
 20
129.067637
 30
0.0
 10
136.197393
 20
129.605270
 30
0.0
 10
136.859557
 20
129.605270
 30
0.0
  0
LWPOLYLINE
  5
23b
100
AcDbEntity
  8
Layer_1
 62
7
100
AcDbPolyline
 90
2
 70
0
 10
136.859557
 20
141.049734
 30
0.0
 10
136.859557
 20
141.049734
 30
0.0
  0
LWPOLYLINE
  5
23c
100
AcDbEntity
  8
Layer_1
 62
7
100
AcDbPolyline
 90
2
 70
0
 10
136.859557
 20
129.605270
 30
0.0
 10
136.859557
 20
129.605270
 30
0.0
  0
SPLINE
  5
23d
100
AcDbEntity
  8
Layer_1
 62
7
100
AcDbSpline
 70
8
 71
3
 72
8
 73
4
 74
0
 40
0
 40
0
 40
0
 40
0
 40
1
 40
1
 40
1
 40
1
 10
126.477307
 20
144.595503
 30
0.0
 10
129.001432
 20
144.595503
 30
0.0
 10
131.050365
 20
142.515173
 30
0.0
 10
131.050365
 20
139.951889
 30
0.0
  0
LWPOLYLINE
  5
23e
100
AcDbEntity
  8
Layer_1
 62
7
100
AcDbPolyline
 90
2
 70
0
 10
126.023282
 20
144.595503
 30
0.0
 10
126.477307
 20
144.595503
 30
0.0
  0
SPLINE
  5
23f
100
AcDbEntity
  8
Layer_1
 62
7
100
AcDbSpline
 70
8
 71
3
 72
8
 73
4
 74
0
 40
0
 40
0
 40
0
 40
0
 40
1
 40
1
 40
1
 40
1
 10
131.050365
 20
127.638887
 30
0.0
 10
131.050365
 20
125.075956
 30
0.0
 10
129.001432
 20
122.995626
 30
0.0
 10
126.477307
 20
122.995626
 30
0.0
  0
LWPOLYLINE
  5
240
100
AcDbEntity
  8
Layer_1
 62
7
100
AcDbPolyline
 90
2
 70
0
 10
131.050365
 20
139.951889
 30
0.0
 10
131.050365
 20
127.638887
 30
0.0
  0
SPLINE
  5
241
100
AcDbEntity
  8
Layer_1
 62
7
100
AcDbSpline
 70
8
 71
3
 72
8
 73
4
 74
0
 40
0
 40
0
 40
0
 40
0
 40
1
 40
1
 40
1
 40
1
 10
126.023282
 20
122.995626
 30
0.0
 10
123.499157
 20
122.995626
 30
0.0
 10
121.450576
 20
125.075956
 30
0.0
 10
121.450576
 20
127.638887
 30
0.0
  0
LWPOLYLINE
  5
242
100
AcDbEntity
  8
Layer_1
 62
7
100
AcDbPolyline
 90
2
 70
0
 10
126.477307
 20
122.995626
 30
0.0
 10
126.023282
 20
122.995626
 30
0.0
  0
SPLINE
  5
243
100
AcDbEntity
  8
Layer_1
 62
7
100
AcDbSpline
 70
8
 71
3
 72
8
 73
4
 74
0
 40
0
 40
0
 40
0
 40
0
 40
1
 40
1
 40
1
 40
1
 10
121.450576
 20
139.951889
 30
0.0
 10
121.450576
 20
142.515173
 30
0.0
 10
123.499157
 20
144.595503
 30
0.0
 10
126.023282
 20
144.595503
 30
0.0
  0
LWPOLYLINE
  5
244
100
AcDbEntity
  8
Layer_1
 62
7
100
AcDbPolyline
 90
2
 70
0
 10
121.450576
 20
127.638887
 30
0.0
 10
121.450576
 20
139.951889
 30
0.0
  0
SPLINE
  5
245
100
AcDbEntity
  8
Layer_1
 62
7
100
AcDbSpline
 70
8
 71
3
 72
8
 73
4
 74
0
 40
0
 40
0
 40
0
 40
0
 40
1
 40
1
 40
1
 40
1
 10
126.250471
 20
136.795234
 30
0.0
 10
127.906410
 20
136.795234
 30
0.0
 10
129.250493
 20
135.451151
 30
0.0
 10
129.250493
 20
133.795564
 30
0.0
  0
SPLINE
  5
246
100
AcDbEntity
  8
Layer_1
 62
7
100
AcDbSpline
 70
8
 71
3
 72
8
 73
4
 74
0
 40
0
 40
0
 40
0
 40
0
 40
1
 40
1
 40
1
 40
1
 10
129.250493
 20
133.795564
 30
0.0
 10
129.250493
 20
132.139626
 30
0.0
 10
127.906410
 20
130.795542
 30
0.0
 10
126.250471
 20
130.795542
 30
0.0
  0
SPLINE
  5
247
100
AcDbEntity
  8
Layer_1
 62
7
100
AcDbSpline
 70
8
 71
3
 72
8
 73
4
 74
0
 40
0
 40
0
 40
0
 40
0
 40
1
 40
1
 40
1
 40
1
 10
126.250471
 20
130.795542
 30
0.0
 10
124.594532
 20
130.795542
 30
0.0
 10
123.250448
 20
132.139626
 30
0.0
 10
123.250448
 20
133.795564
 30
0.0
  0
SPLINE
  5
248
100
AcDbEntity
  8
Layer_1
 62
7
100
AcDbSpline
 70
8
 71
3
 72
8
 73
4
 74
0
 40
0
 40
0
 40
0
 40
0
 40
1
 40
1
 40
1
 40
1
 10
123.250448
 20
133.795564
 30
0.0
 10
123.250448
 20
135.451151
 30
0.0
 10
124.594532
 20
136.795234
 30
0.0
 10
126.250471
 20
136.795234
 30
0.0
  0
LWPOLYLINE
  5
249
100
AcDbEntity
  8
Layer_1
 62
7
100
AcDbPolyline
 90
2
 70
0
 10
126.023282
 20
144.595503
 30
0.0
 10
126.023282
 20
144.595503
 30
0.0
  0
SPLINE
  5
24a
100
AcDbEntity
  8
Layer_1
 62
7
100
AcDbSpline
 70
8
 71
3
 72
8
 73
4
 74
0
 40
0
 40
0
 40
0
 40
0
 40
1
 40
1
 40
1
 40
1
 10
126.250471
 20
140.738231
 30
0.0
 10
126.912635
 20
140.738231
 30
0.0
 10
127.450268
 20
140.200598
 30
0.0
 10
127.450268
 20
139.538081
 30
0.0
  0
SPLINE
  5
24b
100
AcDbEntity
  8
Layer_1
 62
7
100
AcDbSpline
 70
8
 71
3
 72
8
 73
4
 74
0
 40
0
 40
0
 40
0
 40
0
 40
1
 40
1
 40
1
 40
1
 10
127.450268
 20
139.538081
 30
0.0
 10
127.450268
 20
138.875564
 30
0.0
 10
126.912635
 20
138.337931
 30
0.0
 10
126.250471
 20
138.337931
 30
0.0
  0
SPLINE
  5
24c
100
AcDbEntity
  8
Layer_1
 62
7
100
AcDbSpline
 70
8
 71
3
 72
8
 73
4
 74
0
 40
0
 40
0
 40
0
 40
0
 40
1
 40
1
 40
1
 40
1
 10
126.250471
 20
138.337931
 30
0.0
 10
125.587954
 20
138.337931
 30
0.0
 10
125.050321
 20
138.875564
 30
0.0
 10
125.050321
 20
139.538081
 30
0.0
  0
SPLINE
  5
24d
100
AcDbEntity
  8
Layer_1
 62
7
100
AcDbSpline
 70
8
 71
3
 72
8
 73
4
 74
0
 40
0
 40
0
 40
0
 40
0
 40
1
 40
1
 40
1
 40
1
 10
125.050321
 20
139.538081
 30
0.0
 10
125.050321
 20
140.200598
 30
0.0
 10
125.587954
 20
140.738231
 30
0.0
 10
126.250471
 20
140.738231
 30
0.0
  0
LWPOLYLINE
  5
24e
100
AcDbEntity
  8
Layer_1
 62
7
100
AcDbPolyline
 90
2
 70
0
 10
126.250471
 20
136.795234
 30
0.0
 10
126.250471
 20
136.795234
 30
0.0
  0
SPLINE
  5
24f
100
AcDbEntity
  8
Layer_1
 62
7
100
AcDbSpline
 70
8
 71
3
 72
8
 73
4
 74
0
 40
0
 40
0
 40
0
 40
0
 40
1
 40
1
 40
1
 40
1
 10
126.250471
 20
129.293767
 30
0.0
 10
126.912635
 20
129.293767
 30
0.0
 10
127.450268
 20
128.756134
 30
0.0
 10
127.450268
 20
128.093617
 30
0.0
  0
SPLINE
  5
250
100
AcDbEntity
  8
Layer_1
 62
7
100
AcDbSpline
 70
8
 71
3
 72
8
 73
4
 74
0
 40
0
 40
0
 40
0
 40
0
 40
1
 40
1
 40
1
 40
1
 10
127.450268
 20
128.093617
 30
0.0
 10
127.450268
 20
127.431453
 30
0.0
 10
126.912635
 20
126.893820
 30
0.0
 10
126.250471
 20
126.893820
 30
0.0
  0
SPLINE
  5
251
100
AcDbEntity
  8
Layer_1
 62
7
100
AcDbSpline
 70
8
 71
3
 72
8
 73
4
 74
0
 40
0
 40
0
 40
0
 40
0
 40
1
 40
1
 40
1
 40
1
 10
126.250471
 20
126.893820
 30
0.0
 10
125.587954
 20
126.893820
 30
0.0
 10
125.050321
 20
127.431453
 30
0.0
 10
125.050321
 20
128.093617
 30
0.0
  0
SPLINE
  5
252
100
AcDbEntity
  8
Layer_1
 62
7
100
AcDbSpline
 70
8
 71
3
 72
8
 73
4
 74
0
 40
0
 40
0
 40
0
 40
0
 40
1
 40
1
 40
1
 40
1
 10
125.050321
 20
128.093617
 30
0.0
 10
125.050321
 20
128.756134
 30
0.0
 10
125.587954
 20
129.293767
 30
0.0
 10
126.250471
 20
129.293767
 30
0.0
  0
LWPOLYLINE
  5
253
100
AcDbEntity
  8
Layer_1
 62
7
100
AcDbPolyline
 90
2
 70
0
 10
126.250471
 20
140.738231
 30
0.0
 10
126.250471
 20
140.738231
 30
0.0
  0
LWPOLYLINE
  5
254
100
AcDbEntity
  8
Layer_1
 62
7
100
AcDbPolyline
 90
2
 70
0
 10
126.250471
 20
129.293767
 30
0.0
 10
126.250471
 20
129.293767
 30
0.0
  0
SPLINE
  5
255
100
AcDbEntity
  8
Layer_1
 62
7
100
AcDbSpline
 70
8
 71
3
 72
8
 73
4
 74
0
 40
0
 40
0
 40
0
 40
0
 40
1
 40
1
 40
1
 40
1
 10
146.803304
 20
144.078331
 30
0.0
 10
148.891748
 20
144.078331
 30
0.0
 10
150.586846
 20
142.197320
 30
0.0
 10
150.586846
 20
139.880276
 30
0.0
  0
LWPOLYLINE
  5
256
100
AcDbEntity
  8
Layer_1
 62
7
100
AcDbPolyline
 90
2
 70
0
 10
146.427596
 20
144.078331
 30
0.0
 10
146.803304
 20
144.078331
 30
0.0
  0
SPLINE
  5
257
100
AcDbEntity
  8
Layer_1
 62
7
100
AcDbSpline
 70
8
 71
3
 72
8
 73
4
 74
0
 40
0
 40
0
 40
0
 40
0
 40
1
 40
1
 40
1
 40
1
 10
150.586846
 20
128.748726
 30
0.0
 10
150.586846
 20
126.431681
 30
0.0
 10
148.891748
 20
124.550670
 30
0.0
 10
146.803304
 20
124.550670
 30
0.0
  0
LWPOLYLINE
  5
258
100
AcDbEntity
  8
Layer_1
 62
7
100
AcDbPolyline
 90
2
 70
0
 10
150.586846
 20
139.880276
 30
0.0
 10
150.586846
 20
128.748726
 30
0.0
  0
SPLINE
  5
259
100
AcDbEntity
  8
Layer_1
 62
7
100
AcDbSpline
 70
8
 71
3
 72
8
 73
4
 74
0
 40
0
 40
0
 40
0
 40
0
 40
1
 40
1
 40
1
 40
1
 10
146.427596
 20
124.550670
 30
0.0
 10
144.339504
 20
124.550670
 30
0.0
 10
142.644407
 20
126.431681
 30
0.0
 10
142.644407
 20
128.748726
 30
0.0
  0
LWPOLYLINE
  5
25a
100
AcDbEntity
  8
Layer_1
 62
7
100
AcDbPolyline
 90
2
 70
0
 10
146.803304
 20
124.550670
 30
0.0
 10
146.427596
 20
124.550670
 30
0.0
  0
SPLINE
  5
25b
100
AcDbEntity
  8
Layer_1
 62
7
100
AcDbSpline
 70
8
 71
3
 72
8
 73
4
 74
0
 40
0
 40
0
 40
0
 40
0
 40
1
 40
1
 40
1
 40
1
 10
142.644407
 20
139.880276
 30
0.0
 10
142.644407
 20
142.197320
 30
0.0
 10
144.339504
 20
144.078331
 30
0.0
 10
146.427596
 20
144.078331
 30
0.0
  0
LWPOLYLINE
  5
25c
100
AcDbEntity
  8
Layer_1
 62
7
100
AcDbPolyline
 90
2
 70
0
 10
142.644407
 20
128.748726
 30
0.0
 10
142.644407
 20
139.880276
 30
0.0
  0
SPLINE
  5
25d
100
AcDbEntity
  8
Layer_1
 62
7
100
AcDbSpline
 70
8
 71
3
 72
8
 73
4
 74
0
 40
0
 40
0
 40
0
 40
0
 40
1
 40
1
 40
1
 40
1
 10
146.615626
 20
135.314273
 30
0.0
 10
147.167371
 20
135.314273
 30
0.0
 10
147.615398
 20
134.866245
 30
0.0
 10
147.615398
 20
134.314501
 30
0.0
  0
SPLINE
  5
25e
100
AcDbEntity
  8
Layer_1
 62
7
100
AcDbSpline
 70
8
 71
3
 72
8
 73
4
 74
0
 40
0
 40
0
 40
0
 40
0
 40
1
 40
1
 40
1
 40
1
 10
147.615398
 20
134.314501
 30
0.0
 10
147.615398
 20
133.762403
 30
0.0
 10
147.167371
 20
133.314376
 30
0.0
 10
146.615626
 20
133.314376
 30
0.0
  0
SPLINE
  5
25f
100
AcDbEntity
  8
Layer_1
 62
7
100
AcDbSpline
 70
8
 71
3
 72
8
 73
4
 74
0
 40
0
 40
0
 40
0
 40
0
 40
1
 40
1
 40
1
 40
1
 10
146.615626
 20
133.314376
 30
0.0
 10
146.063529
 20
133.314376
 30
0.0
 10
145.615501
 20
133.762403
 30
0.0
 10
145.615501
 20
134.314501
 30
0.0
  0
SPLINE
  5
260
100
AcDbEntity
  8
Layer_1
 62
7
100
AcDbSpline
 70
8
 71
3
 72
8
 73
4
 74
0
 40
0
 40
0
 40
0
 40
0
 40
1
 40
1
 40
1
 40
1
 10
145.615501
 20
134.314501
 30
0.0
 10
145.615501
 20
134.866245
 30
0.0
 10
146.063529
 20
135.314273
 30
0.0
 10
146.615626
 20
135.314273
 30
0.0
  0
LWPOLYLINE
  5
261
100
AcDbEntity
  8
Layer_1
 62
7
100
AcDbPolyline
 90
2
 70
0
 10
146.427596
 20
144.078331
 30
0.0
 10
146.427596
 20
144.078331
 30
0.0
  0
SPLINE
  5
262
100
AcDbEntity
  8
Layer_1
 62
7
100
AcDbSpline
 70
8
 71
3
 72
8
 73
4
 74
0
 40
0
 40
0
 40
0
 40
0
 40
1
 40
1
 40
1
 40
1
 10
146.615626
 20
141.257167
 30
0.0
 10
147.277790
 20
141.257167
 30
0.0
 10
147.815423
 20
140.719534
 30
0.0
 10
147.815423
 20
140.057017
 30
0.0
  0
SPLINE
  5
263
100
AcDbEntity
  8
Layer_1
 62
7
100
AcDbSpline
 70
8
 71
3
 72
8
 73
4
 74
0
 40
0
 40
0
 40
0
 40
0
 40
1
 40
1
 40
1
 40
1
 10
147.815423
 20
140.057017
 30
0.0
 10
147.815423
 20
139.394853
 30
0.0
 10
147.277790
 20
138.857220
 30
0.0
 10
146.615626
 20
138.857220
 30
0.0
  0
SPLINE
  5
264
100
AcDbEntity
  8
Layer_1
 62
7
100
AcDbSpline
 70
8
 71
3
 72
8
 73
4
 74
0
 40
0
 40
0
 40
0
 40
0
 40
1
 40
1
 40
1
 40
1
 10
146.615626
 20
138.857220
 30
0.0
 10
145.953110
 20
138.857220
 30
0.0
 10
145.415476
 20
139.394853
 30
0.0
 10
145.415476
 20
140.057017
 30
0.0
  0
SPLINE
  5
265
100
AcDbEntity
  8
Layer_1
 62
7
100
AcDbSpline
 70
8
 71
3
 72
8
 73
4
 74
0
 40
0
 40
0
 40
0
 40
0
 40
1
 40
1
 40
1
 40
1
 10
145.415476
 20
140.057017
 30
0.0
 10
145.415476
 20
140.719534
 30
0.0
 10
145.953110
 20
141.257167
 30
0.0
 10
146.615626
 20
141.257167
 30
0.0
  0
LWPOLYLINE
  5
266
100
AcDbEntity
  8
Layer_1
 62
7
100
AcDbPolyline
 90
2
 70
0
 10
146.615626
 20
135.314273
 30
0.0
 10
146.615626
 20
135.314273
 30
0.0
  0
SPLINE
  5
267
100
AcDbEntity
  8
Layer_1
 62
7
100
AcDbSpline
 70
8
 71
3
 72
8
 73
4
 74
0
 40
0
 40
0
 40
0
 40
0
 40
1
 40
1
 40
1
 40
1
 10
146.615626
 20
129.812703
 30
0.0
 10
147.277790
 20
129.812703
 30
0.0
 10
147.815423
 20
129.275070
 30
0.0
 10
147.815423
 20
128.612553
 30
0.0
  0
SPLINE
  5
268
100
AcDbEntity
  8
Layer_1
 62
7
100
AcDbSpline
 70
8
 71
3
 72
8
 73
4
 74
0
 40
0
 40
0
 40
0
 40
0
 40
1
 40
1
 40
1
 40
1
 10
147.815423
 20
128.612553
 30
0.0
 10
147.815423
 20
127.950389
 30
0.0
 10
147.277790
 20
127.412756
 30
0.0
 10
146.615626
 20
127.412756
 30
0.0
  0
SPLINE
  5
269
100
AcDbEntity
  8
Layer_1
 62
7
100
AcDbSpline
 70
8
 71
3
 72
8
 73
4
 74
0
 40
0
 40
0
 40
0
 40
0
 40
1
 40
1
 40
1
 40
1
 10
146.615626
 20
127.412756
 30
0.0
 10
145.953110
 20
127.412756
 30
0.0
 10
145.415476
 20
127.950389
 30
0.0
 10
145.415476
 20
128.612553
 30
0.0
  0
SPLINE
  5
26a
100
AcDbEntity
  8
Layer_1
 62
7
100
AcDbSpline
 70
8
 71
3
 72
8
 73
4
 74
0
 40
0
 40
0
 40
0
 40
0
 40
1
 40
1
 40
1
 40
1
 10
145.415476
 20
128.612553
 30
0.0
 10
145.415476
 20
129.275070
 30
0.0
 10
145.953110
 20
129.812703
 30
0.0
 10
146.615626
 20
129.812703
 30
0.0
  0
LWPOLYLINE
  5
26b
100
AcDbEntity
  8
Layer_1
 62
7
100
AcDbPolyline
 90
2
 70
0
 10
146.615626
 20
141.257167
 30
0.0
 10
146.615626
 20
141.257167
 30
0.0
  0
LWPOLYLINE
  5
26c
100
AcDbEntity
  8
Layer_1
 62
7
100
AcDbPolyline
 90
2
 70
0
 10
146.615626
 20
129.812703
 30
0.0
 10
146.615626
 20
129.812703
 30
0.0
  0
SPLINE
  5
26d
100
AcDbEntity
  8
Layer_1
 62
7
100
AcDbSpline
 70
8
 71
3
 72
8
 73
4
 74
0
 40
0
 40
0
 40
0
 40
0
 40
1
 40
1
 40
1
 40
1
 10
122.439765
 20
159.424164
 30
0.0
 10
121.958576
 20
154.925895
 30
0.0
 10
121.987857
 20
150.427978
 30
0.0
 10
122.439765
 20
145.930062
 30
0.0
  0
LWPOLYLINE
  5
26e
100
AcDbEntity
  8
Layer_1
 62
7
100
AcDbPolyline
 90
3
 70
0
 10
131.439479
 20
145.930062
 30
0.0
 10
131.439479
 20
159.424164
 30
0.0
 10
122.439765
 20
159.424164
 30
0.0
  0
SPLINE
  5
26f
100
AcDbEntity
  8
Layer_1
 62
7
100
AcDbSpline
 70
8
 71
3
 72
8
 73
4
 74
0
 40
0
 40
0
 40
0
 40
0
 40
1
 40
1
 40
1
 40
1
 10
124.992112
 20
150.346134
 30
0.0
 10
124.992112
 20
151.486664
 30
0.0
 10
125.888168
 20
152.412353
 30
0.0
 10
126.992010
 20
152.412353
 30
0.0
  0
SPLINE
  5
270
100
AcDbEntity
  8
Layer_1
 62
7
100
AcDbSpline
 70
8
 71
3
 72
8
 73
4
 74
0
 40
0
 40
0
 40
0
 40
0
 40
1
 40
1
 40
1
 40
1
 10
126.992010
 20
152.412353
 30
0.0
 10
128.096204
 20
152.412353
 30
0.0
 10
128.992260
 20
151.486664
 30
0.0
 10
128.992260
 20
150.346134
 30
0.0
  0
SPLINE
  5
271
100
AcDbEntity
  8
Layer_1
 62
7
100
AcDbSpline
 70
8
 71
3
 72
8
 73
4
 74
0
 40
0
 40
0
 40
0
 40
0
 40
1
 40
1
 40
1
 40
1
 10
128.992260
 20
150.346134
 30
0.0
 10
128.992260
 20
149.205603
 30
0.0
 10
128.096204
 20
148.279914
 30
0.0
 10
126.992010
 20
148.279914
 30
0.0
  0
SPLINE
  5
272
100
AcDbEntity
  8
Layer_1
 62
7
100
AcDbSpline
 70
8
 71
3
 72
8
 73
4
 74
0
 40
0
 40
0
 40
0
 40
0
 40
1
 40
1
 40
1
 40
1
 10
126.992010
 20
148.279914
 30
0.0
 10
125.888168
 20
148.279914
 30
0.0
 10
124.992112
 20
149.205603
 30
0.0
 10
124.992112
 20
150.346134
 30
0.0
  0
LWPOLYLINE
  5
273
100
AcDbEntity
  8
Layer_1
 62
7
100
AcDbPolyline
 90
3
 70
0
 10
122.439765
 20
145.930062
 30
0.0
 10
131.439479
 20
145.930062
 30
0.0
 10
131.439479
 20
145.930062
 30
0.0
  0
SPLINE
  5
274
100
AcDbEntity
  8
Layer_1
 62
7
100
AcDbSpline
 70
8
 71
3
 72
8
 73
4
 74
0
 40
0
 40
0
 40
0
 40
0
 40
1
 40
1
 40
1
 40
1
 10
125.792212
 20
150.346134
 30
0.0
 10
125.792212
 20
151.030523
 30
0.0
 10
126.329846
 20
151.585795
 30
0.0
 10
126.992010
 20
151.585795
 30
0.0
  0
SPLINE
  5
275
100
AcDbEntity
  8
Layer_1
 62
7
100
AcDbSpline
 70
8
 71
3
 72
8
 73
4
 74
0
 40
0
 40
0
 40
0
 40
0
 40
1
 40
1
 40
1
 40
1
 10
126.992010
 20
151.585795
 30
0.0
 10
127.654526
 20
151.585795
 30
0.0
 10
128.192160
 20
151.030523
 30
0.0
 10
128.192160
 20
150.346134
 30
0.0
  0
SPLINE
  5
276
100
AcDbEntity
  8
Layer_1
 62
7
100
AcDbSpline
 70
8
 71
3
 72
8
 73
4
 74
0
 40
0
 40
0
 40
0
 40
0
 40
1
 40
1
 40
1
 40
1
 10
128.192160
 20
150.346134
 30
0.0
 10
128.192160
 20
149.662098
 30
0.0
 10
127.654526
 20
149.106473
 30
0.0
 10
126.992010
 20
149.106473
 30
0.0
  0
SPLINE
  5
277
100
AcDbEntity
  8
Layer_1
 62
7
100
AcDbSpline
 70
8
 71
3
 72
8
 73
4
 74
0
 40
0
 40
0
 40
0
 40
0
 40
1
 40
1
 40
1
 40
1
 10
126.992010
 20
149.106473
 30
0.0
 10
126.329846
 20
149.106473
 30
0.0
 10
125.792212
 20
149.662098
 30
0.0
 10
125.792212
 20
150.346134
 30
0.0
  0
LWPOLYLINE
  5
278
100
AcDbEntity
  8
Layer_1
 62
7
100
AcDbPolyline
 90
2
 70
0
 10
124.992112
 20
150.346134
 30
0.0
 10
124.992112
 20
150.346134
 30
0.0
  0
LWPOLYLINE
  5
279
100
AcDbEntity
  8
Layer_1
 62
7
100
AcDbPolyline
 90
2
 70
0
 10
125.792212
 20
150.346134
 30
0.0
 10
125.792212
 20
150.346134
 30
0.0
  0
SPLINE
  5
27a
100
AcDbEntity
  8
Layer_1
 62
7
100
AcDbSpline
 70
8
 71
3
 72
8
 73
4
 74
0
 40
0
 40
0
 40
0
 40
0
 40
1
 40
1
 40
1
 40
1
 10
133.381873
 20
159.472142
 30
0.0
 10
132.901037
 20
154.974226
 30
0.0
 10
132.930318
 20
150.475956
 30
0.0
 10
133.381873
 20
145.978039
 30
0.0
  0
LWPOLYLINE
  5
27b
100
AcDbEntity
  8
Layer_1
 62
7
100
AcDbPolyline
 90
3
 70
0
 10
142.381940
 20
145.978039
 30
0.0
 10
142.381940
 20
159.472142
 30
0.0
 10
133.381873
 20
159.472142
 30
0.0
  0
SPLINE
  5
27c
100
AcDbEntity
  8
Layer_1
 62
7
100
AcDbSpline
 70
8
 71
3
 72
8
 73
4
 74
0
 40
0
 40
0
 40
0
 40
0
 40
1
 40
1
 40
1
 40
1
 10
135.934573
 20
150.394112
 30
0.0
 10
135.934573
 20
151.534642
 30
0.0
 10
136.830629
 20
152.460331
 30
0.0
 10
137.934471
 20
152.460331
 30
0.0
  0
SPLINE
  5
27d
100
AcDbEntity
  8
Layer_1
 62
7
100
AcDbSpline
 70
8
 71
3
 72
8
 73
4
 74
0
 40
0
 40
0
 40
0
 40
0
 40
1
 40
1
 40
1
 40
1
 10
137.934471
 20
152.460331
 30
0.0
 10
139.038312
 20
152.460331
 30
0.0
 10
139.934368
 20
151.534642
 30
0.0
 10
139.934368
 20
150.394112
 30
0.0
  0
SPLINE
  5
27e
100
AcDbEntity
  8
Layer_1
 62
7
100
AcDbSpline
 70
8
 71
3
 72
8
 73
4
 74
0
 40
0
 40
0
 40
0
 40
0
 40
1
 40
1
 40
1
 40
1
 10
139.934368
 20
150.394112
 30
0.0
 10
139.934368
 20
149.253934
 30
0.0
 10
139.038312
 20
148.328245
 30
0.0
 10
137.934471
 20
148.328245
 30
0.0
  0
SPLINE
  5
27f
100
AcDbEntity
  8
Layer_1
 62
7
100
AcDbSpline
 70
8
 71
3
 72
8
 73
4
 74
0
 40
0
 40
0
 40
0
 40
0
 40
1
 40
1
 40
1
 40
1
 10
137.934471
 20
148.328245
 30
0.0
 10
136.830629
 20
148.328245
 30
0.0
 10
135.934573
 20
149.253934
 30
0.0
 10
135.934573
 20
150.394112
 30
0.0
  0
LWPOLYLINE
  5
280
100
AcDbEntity
  8
Layer_1
 62
7
100
AcDbPolyline
 90
3
 70
0
 10
133.381873
 20
145.978039
 30
0.0
 10
142.381940
 20
145.978039
 30
0.0
 10
142.381940
 20
145.978039
 30
0.0
  0
SPLINE
  5
281
100
AcDbEntity
  8
Layer_1
 62
7
100
AcDbSpline
 70
8
 71
3
 72
8
 73
4
 74
0
 40
0
 40
0
 40
0
 40
0
 40
1
 40
1
 40
1
 40
1
 10
136.734321
 20
150.394112
 30
0.0
 10
136.734321
 20
151.078501
 30
0.0
 10
137.272307
 20
151.633773
 30
0.0
 10
137.934471
 20
151.633773
 30
0.0
  0
SPLINE
  5
282
100
AcDbEntity
  8
Layer_1
 62
7
100
AcDbSpline
 70
8
 71
3
 72
8
 73
4
 74
0
 40
0
 40
0
 40
0
 40
0
 40
1
 40
1
 40
1
 40
1
 10
137.934471
 20
151.633773
 30
0.0
 10
138.596987
 20
151.633773
 30
0.0
 10
139.134621
 20
151.078501
 30
0.0
 10
139.134621
 20
150.394112
 30
0.0
  0
SPLINE
  5
283
100
AcDbEntity
  8
Layer_1
 62
7
100
AcDbSpline
 70
8
 71
3
 72
8
 73
4
 74
0
 40
0
 40
0
 40
0
 40
0
 40
1
 40
1
 40
1
 40
1
 10
139.134621
 20
150.394112
 30
0.0
 10
139.134621
 20
149.710076
 30
0.0
 10
138.596987
 20
149.154451
 30
0.0
 10
137.934471
 20
149.154451
 30
0.0
  0
SPLINE
  5
284
100
AcDbEntity
  8
Layer_1
 62
7
100
AcDbSpline
 70
8
 71
3
 72
8
 73
4
 74
0
 40
0
 40
0
 40
0
 40
0
 40
1
 40
1
 40
1
 40
1
 10
137.934471
 20
149.154451
 30
0.0
 10
137.272307
 20
149.154451
 30
0.0
 10
136.734321
 20
149.710076
 30
0.0
 10
136.734321
 20
150.394112
 30
0.0
  0
LWPOLYLINE
  5
285
100
AcDbEntity
  8
Layer_1
 62
7
100
AcDbPolyline
 90
2
 70
0
 10
135.934573
 20
150.394112
 30
0.0
 10
135.934573
 20
150.394112
 30
0.0
  0
LWPOLYLINE
  5
286
100
AcDbEntity
  8
Layer_1
 62
7
100
AcDbPolyline
 90
2
 70
0
 10
136.734321
 20
150.394112
 30
0.0
 10
136.734321
 20
150.394112
 30
0.0
  0
LWPOLYLINE
  5
287
100
AcDbEntity
  8
Layer_1
 62
7
100
AcDbPolyline
 90
2
 70
0
 10
119.325090
 20
174.733662
 30
0.0
 10
110.432621
 20
174.733662
 30
0.0
  0
LWPOLYLINE
  5
288
100
AcDbEntity
  8
Layer_1
 62
7
100
AcDbPolyline
 90
2
 70
0
 10
119.430218
 20
165.739945
 30
0.0
 10
110.432621
 20
165.739945
 30
0.0
  0
LWPOLYLINE
  5
289
100
AcDbEntity
  8
Layer_1
 62
7
100
AcDbPolyline
 90
2
 70
0
 10
119.430218
 20
152.773951
 30
0.0
 10
110.432621
 20
152.773951
 30
0.0
  0
LWPOLYLINE
  5
28a
100
AcDbEntity
  8
Layer_1
 62
7
100
AcDbPolyline
 90
2
 70
0
 10
119.430218
 20
138.281134
 30
0.0
 10
110.432621
 20
138.281134
 30
0.0
  0
LWPOLYLINE
  5
28b
100
AcDbEntity
  8
Layer_1
 62
7
100
AcDbPolyline
 90
2
 70
0
 10
119.430218
 20
126.561503
 30
0.0
 10
110.432621
 20
126.561503
 30
0.0
  0
LWPOLYLINE
  5
28c
100
AcDbEntity
  8
Layer_1
 62
7
100
AcDbPolyline
 90
2
 70
0
 10
119.430218
 20
118.537573
 30
0.0
 10
110.432621
 20
118.537573
 30
0.0
  0
LWPOLYLINE
  5
28d
100
AcDbEntity
  8
Layer_1
 62
7
100
AcDbPolyline
 90
2
 70
0
 10
100.534382
 20
129.900192
 30
0.0
 10
91.712468
 20
129.900192
 30
0.0
  0
LWPOLYLINE
  5
28e
100
AcDbEntity
  8
Layer_1
 62
7
100
AcDbPolyline
 90
2
 70
0
 10
100.534382
 20
120.276062
 30
0.0
 10
91.712468
 20
120.276062
 30
0.0
  0
LWPOLYLINE
  5
28f
100
AcDbEntity
  8
Layer_1
 62
7
100
AcDbPolyline
 90
2
 70
0
 10
100.534382
 20
143.500128
 30
0.0
 10
91.712468
 20
143.500128
 30
0.0
  0
LWPOLYLINE
  5
290
100
AcDbEntity
  8
Layer_1
 62
7
100
AcDbPolyline
 90
2
 70
0
 10
100.534382
 20
157.142398
 30
0.0
 10
91.712468
 20
157.142398
 30
0.0
  0
LWPOLYLINE
  5
291
100
AcDbEntity
  8
Layer_1
 62
7
100
AcDbPolyline
 90
2
 70
0
 10
100.534382
 20
169.503026
 30
0.0
 10
91.712468
 20
169.503026
 30
0.0
  0
LWPOLYLINE
  5
292
100
AcDbEntity
  8
Layer_1
 62
7
100
AcDbPolyline
 90
2
 70
0
 10
100.534382
 20
176.240023
 30
0.0
 10
91.712468
 20
176.240023
 30
0.0
  0
LWPOLYLINE
  5
293
100
AcDbEntity
  8
Layer_1
 62
7
100
AcDbPolyline
 90
2
 70
0
 10
110.432621
 20
171.998223
 30
0.0
 10
112.232493
 20
171.998223
 30
0.0
  0
LWPOLYLINE
  5
294
100
AcDbEntity
  8
Layer_1
 62
7
100
AcDbPolyline
 90
2
 70
0
 10
110.432621
 20
176.734617
 30
0.0
 10
112.232493
 20
176.734617
 30
0.0
  0
LWPOLYLINE
  5
295
100
AcDbEntity
  8
Layer_1
 62
7
100
AcDbPolyline
 90
2
 70
0
 10
110.432621
 20
176.121489
 30
0.0
 10
112.232493
 20
176.121489
 30
0.0
  0
LWPOLYLINE
  5
296
100
AcDbEntity
  8
Layer_1
 62
7
100
AcDbPolyline
 90
2
 70
0
 10
98.734510
 20
176.860206
 30
0.0
 10
100.534382
 20
176.860206
 30
0.0
  0
LWPOLYLINE
  5
297
100
AcDbEntity
  8
Layer_1
 62
7
100
AcDbPolyline
 90
2
 70
0
 10
98.734510
 20
175.111839
 30
0.0
 10
100.534382
 20
175.111839
 30
0.0
  0
LWPOLYLINE
  5
298
100
AcDbEntity
  8
Layer_1
 62
7
100
AcDbPolyline
 90
2
 70
0
 10
97.972157
 20
172.863939
 30
0.0
 10
100.534382
 20
172.863939
 30
0.0
  0
LWPOLYLINE
  5
299
100
AcDbEntity
  8
Layer_1
 62
7
100
AcDbPolyline
 90
2
 70
0
 10
98.734510
 20
166.251120
 30
0.0
 10
100.534382
 20
166.251120
 30
0.0
  0
LWPOLYLINE
  5
29a
100
AcDbEntity
  8
Layer_1
 62
7
100
AcDbPolyline
 90
2
 70
0
 10
98.734510
 20
162.249562
 30
0.0
 10
100.534382
 20
162.249562
 30
0.0
  0
LWPOLYLINE
  5
29b
100
AcDbEntity
  8
Layer_1
 62
7
100
AcDbPolyline
 90
2
 70
0
 10
98.734510
 20
153.123906
 30
0.0
 10
100.534382
 20
153.123906
 30
0.0
  0
LWPOLYLINE
  5
29c
100
AcDbEntity
  8
Layer_1
 62
7
100
AcDbPolyline
 90
2
 70
0
 10
98.734510
 20
148.522978
 30
0.0
 10
100.534382
 20
148.522978
 30
0.0
  0
LWPOLYLINE
  5
29d
100
AcDbEntity
  8
Layer_1
 62
7
100
AcDbPolyline
 90
2
 70
0
 10
98.734510
 20
139.393089
 30
0.0
 10
100.534382
 20
139.393089
 30
0.0
  0
LWPOLYLINE
  5
29e
100
AcDbEntity
  8
Layer_1
 62
7
100
AcDbPolyline
 90
2
 70
0
 10
98.734510
 20
134.899053
 30
0.0
 10
100.534382
 20
134.899053
 30
0.0
  0
LWPOLYLINE
  5
29f
100
AcDbEntity
  8
Layer_1
 62
7
100
AcDbPolyline
 90
2
 70
0
 10
98.734510
 20
123.027376
 30
0.0
 10
100.534382
 20
123.027376
 30
0.0
  0
LWPOLYLINE
  5
2a0
100
AcDbEntity
  8
Layer_1
 62
7
100
AcDbPolyline
 90
2
 70
0
 10
98.734510
 20
118.655401
 30
0.0
 10
100.534382
 20
118.655401
 30
0.0
  0
LWPOLYLINE
  5
2a1
100
AcDbEntity
  8
Layer_1
 62
7
100
AcDbPolyline
 90
2
 70
0
 10
98.734510
 20
117.901162
 30
0.0
 10
100.534382
 20
117.901162
 30
0.0
  0
LWPOLYLINE
  5
2a2
100
AcDbEntity
  8
Layer_1
 62
7
100
AcDbPolyline
 90
2
 70
0
 10
98.734510
 20
126.396756
 30
0.0
 10
100.534382
 20
126.396756
 30
0.0
  0
LWPOLYLINE
  5
2a3
100
AcDbEntity
  8
Layer_1
 62
7
100
AcDbPolyline
 90
2
 70
0
 10
110.432621
 20
168.875434
 30
0.0
 10
112.232493
 20
168.875434
 30
0.0
  0
LWPOLYLINE
  5
2a4
100
AcDbEntity
  8
Layer_1
 62
7
100
AcDbPolyline
 90
2
 70
0
 10
110.432621
 20
161.131962
 30
0.0
 10
112.232493
 20
161.131962
 30
0.0
  0
LWPOLYLINE
  5
2a5
100
AcDbEntity
  8
Layer_1
 62
7
100
AcDbPolyline
 90
2
 70
0
 10
110.432621
 20
156.750109
 30
0.0
 10
112.232493
 20
156.750109
 30
0.0
  0
LWPOLYLINE
  5
2a6
100
AcDbEntity
  8
Layer_1
 62
7
100
AcDbPolyline
 90
2
 70
0
 10
110.432621
 20
147.267089
 30
0.0
 10
112.350321
 20
147.267089
 30
0.0
  0
LWPOLYLINE
  5
2a7
100
AcDbEntity
  8
Layer_1
 62
7
100
AcDbPolyline
 90
2
 70
0
 10
110.432621
 20
142.377942
 30
0.0
 10
112.232493
 20
142.377942
 30
0.0
  0
LWPOLYLINE
  5
2a8
100
AcDbEntity
  8
Layer_1
 62
7
100
AcDbPolyline
 90
2
 70
0
 10
110.432621
 20
134.275695
 30
0.0
 10
112.232493
 20
134.275695
 30
0.0
  0
LWPOLYLINE
  5
2a9
100
AcDbEntity
  8
Layer_1
 62
7
100
AcDbPolyline
 90
2
 70
0
 10
110.432621
 20
130.024723
 30
0.0
 10
112.232493
 20
130.024723
 30
0.0
  0
LWPOLYLINE
  5
2aa
100
AcDbEntity
  8
Layer_1
 62
7
100
AcDbPolyline
 90
2
 70
0
 10
110.432621
 20
122.532781
 30
0.0
 10
112.232493
 20
122.532781
 30
0.0
  0
LWPOLYLINE
  5
2ab
100
AcDbEntity
  8
Layer_1
 62
7
100
AcDbPolyline
 90
2
 70
0
 10
110.432621
 20
119.903881
 30
0.0
 10
112.232493
 20
119.903881
 30
0.0
  0
SPLINE
  5
2ac
100
AcDbEntity
  8
Layer_1
 62
7
100
AcDbSpline
 70
8
 71
3
 72
8
 73
4
 74
0
 40
0
 40
0
 40
0
 40
0
 40
1
 40
1
 40
1
 40
1
 10
105.833457
 20
86.755470
 30
0.0
 10
138.951529
 20
86.755470
 30
0.0
 10
165.833196
 20
113.637137
 30
0.0
 10
165.833196
 20
146.755562
 30
0.0
  0
SPLINE
  5
2ad
100
AcDbEntity
  8
Layer_1
 62
7
100
AcDbSpline
 70
8
 71
3
 72
8
 73
4
 74
0
 40
0
 40
0
 40
0
 40
0
 40
1
 40
1
 40
1
 40
1
 10
165.833196
 20
146.755562
 30
0.0
 10
165.833196
 20
179.873634
 30
0.0
 10
138.951529
 20
206.755653
 30
0.0
 10
105.833457
 20
206.755653
 30
0.0
  0
SPLINE
  5
2ae
100
AcDbEntity
  8
Layer_1
 62
7
100
AcDbSpline
 70
8
 71
3
 72
8
 73
4
 74
0
 40
0
 40
0
 40
0
 40
0
 40
1
 40
1
 40
1
 40
1
 10
105.833457
 20
206.755653
 30
0.0
 10
72.715032
 20
206.755653
 30
0.0
 10
45.833365
 20
179.873634
 30
0.0
 10
45.833365
 20
146.755562
 30
0.0
  0
SPLINE
  5
2af
100
AcDbEntity
  8
Layer_1
 62
7
100
AcDbSpline
 70
8
 71
3
 72
8
 73
4
 74
0
 40
0
 40
0
 40
0
 40
0
 40
1
 40
1
 40
1
 40
1
 10
45.833365
 20
146.755562
 30
0.0
 10
45.833365
 20
113.637137
 30
0.0
 10
72.715032
 20
86.755470
 30
0.0
 10
105.833457
 20
86.755470
 30
0.0
  0
LWPOLYLINE
  5
2b0
100
AcDbEntity
  8
Layer_1
 62
7
100
AcDbPolyline
 90
2
 70
0
 10
110.432621
 20
117.914214
 30
0.0
 10
112.232493
 20
117.914214
 30
0.0
  0
SPLINE
  5
2b1
100
AcDbEntity
  8
Layer_1
 62
7
100
AcDbSpline
 70
8
 71
3
 72
8
 73
4
 74
0
 40
0
 40
0
 40
0
 40
0
 40
1
 40
1
 40
1
 40
1
 10
105.833457
 20
74.755381
 30
0.0
 10
145.575285
 20
74.755381
 30
0.0
 10
177.833285
 20
107.013734
 30
0.0
 10
177.833285
 20
146.755562
 30
0.0
  0
SPLINE
  5
2b2
100
AcDbEntity
  8
Layer_1
 62
7
100
AcDbSpline
 70
8
 71
3
 72
8
 73
4
 74
0
 40
0
 40
0
 40
0
 40
0
 40
1
 40
1
 40
1
 40
1
 10
177.833285
 20
146.755562
 30
0.0
 10
177.833285
 20
186.497389
 30
0.0
 10
145.575285
 20
218.755389
 30
0.0
 10
105.833457
 20
218.755389
 30
0.0
  0
SPLINE
  5
2b3
100
AcDbEntity
  8
Layer_1
 62
7
100
AcDbSpline
 70
8
 71
3
 72
8
 73
4
 74
0
 40
0
 40
0
 40
0
 40
0
 40
1
 40
1
 40
1
 40
1
 10
105.833457
 20
218.755389
 30
0.0
 10
66.091629
 20
218.755389
 30
0.0
 10
33.833312
 20
186.497389
 30
0.0
 10
33.833312
 20
146.755562
 30
0.0
  0
SPLINE
  5
2b4
100
AcDbEntity
  8
Layer_1
 62
7
100
AcDbSpline
 70
8
 71
3
 72
8
 73
4
 74
0
 40
0
 40
0
 40
0
 40
0
 40
1
 40
1
 40
1
 40
1
 10
33.833312
 20
146.755562
 30
0.0
 10
33.833312
 20
107.013734
 30
0.0
 10
66.091629
 20
74.755381
 30
0.0
 10
105.833457
 20
74.755381
 30
0.0
  0
LWPOLYLINE
  5
2b5
100
AcDbEntity
  8
Layer_1
 62
7
100
AcDbPolyline
 90
2
 70
0
 10
105.833457
 20
86.755470
 30
0.0
 10
105.833457
 20
86.755470
 30
0.0
  0
LWPOLYLINE
  5
2b6
100
AcDbEntity
  8
Layer_1
 62
7
100
AcDbPolyline
 90
2
 70
0
 10
105.833457
 20
74.755381
 30
0.0
 10
105.833457
 20
74.755381
 30
0.0
  0
LWPOLYLINE
  5
2b7
100
AcDbEntity
  8
Layer_1
 62
7
100
AcDbPolyline
 90
2
 70
0
 10
45.890515
 20
149.372467
 30
0.0
 10
48.887715
 20
149.241587
 30
0.0
  0
LWPOLYLINE
  5
2b8
100
AcDbEntity
  8
Layer_1
 62
7
100
AcDbPolyline
 90
2
 70
0
 10
46.061612
 20
151.984787
 30
0.0
 10
49.050346
 20
151.723378
 30
0.0
  0
LWPOLYLINE
  5
2b9
100
AcDbEntity
  8
Layer_1
 62
7
100
AcDbPolyline
 90
2
 70
0
 10
46.744943
 20
157.174501
 30
0.0
 10
49.699457
 20
156.653448
 30
0.0
  0
LWPOLYLINE
  5
2ba
100
AcDbEntity
  8
Layer_1
 62
7
100
AcDbPolyline
 90
2
 70
0
 10
47.255765
 20
159.741664
 30
0.0
 10
50.184526
 20
159.092553
 30
0.0
  0
LWPOLYLINE
  5
2bb
100
AcDbEntity
  8
Layer_1
 62
7
100
AcDbPolyline
 90
2
 70
0
 10
48.610432
 20
164.797676
 30
0.0
 10
51.471460
 20
163.895623
 30
0.0
  0
LWPOLYLINE
  5
2bc
100
AcDbEntity
  8
Layer_1
 62
7
100
AcDbPolyline
 90
2
 70
0
 10
49.451807
 20
167.276645
 30
0.0
 10
52.270854
 20
166.250767
 30
0.0
  0
LWPOLYLINE
  5
2bd
100
AcDbEntity
  8
Layer_1
 62
7
100
AcDbPolyline
 90
2
 70
0
 10
51.454879
 20
172.112523
 30
0.0
 10
54.173737
 20
170.844639
 30
0.0
  0
LWPOLYLINE
  5
2be
100
AcDbEntity
  8
Layer_1
 62
7
100
AcDbPolyline
 90
2
 70
0
 10
52.612696
 20
174.460259
 30
0.0
 10
55.273698
 20
173.075253
 30
0.0
  0
LWPOLYLINE
  5
2bf
100
AcDbEntity
  8
Layer_1
 62
7
100
AcDbPolyline
 90
2
 70
0
 10
55.229954
 20
178.993453
 30
0.0
 10
57.760076
 20
177.381612
 30
0.0
  0
LWPOLYLINE
  5
2c0
100
AcDbEntity
  8
Layer_1
 62
7
100
AcDbPolyline
 90
2
 70
0
 10
56.684457
 20
181.170092
 30
0.0
 10
59.141907
 20
179.449242
 30
0.0
  0
LWPOLYLINE
  5
2c1
100
AcDbEntity
  8
Layer_1
 62
7
100
AcDbPolyline
 90
2
 70
0
 10
59.870746
 20
185.322639
 30
0.0
 10
62.169093
 20
183.394356
 30
0.0
  0
LWPOLYLINE
  5
2c2
100
AcDbEntity
  8
Layer_1
 62
7
100
AcDbPolyline
 90
2
 70
0
 10
61.596887
 20
187.290787
 30
0.0
 10
63.808804
 20
185.264078
 30
0.0
  0
LWPOLYLINE
  5
2c3
100
AcDbEntity
  8
Layer_1
 62
7
100
AcDbPolyline
 90
2
 70
0
 10
65.298232
 20
190.992131
 30
0.0
 10
67.324940
 20
188.780214
 30
0.0
  0
LWPOLYLINE
  5
2c4
100
AcDbEntity
  8
Layer_1
 62
7
100
AcDbPolyline
 90
2
 70
0
 10
67.266379
 20
192.717920
 30
0.0
 10
69.194662
 20
190.419926
 30
0.0
  0
LWPOLYLINE
  5
2c5
100
AcDbEntity
  8
Layer_1
 62
7
100
AcDbPolyline
 90
2
 70
0
 10
71.418926
 20
195.904562
 30
0.0
 10
73.139776
 20
193.447112
 30
0.0
  0
LWPOLYLINE
  5
2c6
100
AcDbEntity
  8
Layer_1
 62
7
100
AcDbPolyline
 90
2
 70
0
 10
73.595565
 20
197.358712
 30
0.0
 10
75.207407
 20
194.828589
 30
0.0
  0
LWPOLYLINE
  5
2c7
100
AcDbEntity
  8
Layer_1
 62
7
100
AcDbPolyline
 90
2
 70
0
 10
78.128760
 20
199.975970
 30
0.0
 10
79.513765
 20
197.314967
 30
0.0
  0
LWPOLYLINE
  5
2c8
100
AcDbEntity
  8
Layer_1
 62
7
100
AcDbPolyline
 90
2
 70
0
 10
80.476496
 20
201.133787
 30
0.0
 10
81.744379
 20
198.414928
 30
0.0
  0
LWPOLYLINE
  5
2c9
100
AcDbEntity
  8
Layer_1
 62
7
100
AcDbPolyline
 90
2
 70
0
 10
85.312373
 20
203.136859
 30
0.0
 10
86.338604
 20
200.317812
 30
0.0
  0
LWPOLYLINE
  5
2ca
100
AcDbEntity
  8
Layer_1
 62
7
100
AcDbPolyline
 90
2
 70
0
 10
87.791343
 20
203.978234
 30
0.0
 10
88.693396
 20
201.117206
 30
0.0
  0
LWPOLYLINE
  5
2cb
100
AcDbEntity
  8
Layer_1
 62
7
100
AcDbPolyline
 90
2
 70
0
 10
92.847354
 20
205.333253
 30
0.0
 10
93.496465
 20
202.404139
 30
0.0
  0
LWPOLYLINE
  5
2cc
100
AcDbEntity
  8
Layer_1
 62
7
100
AcDbPolyline
 90
2
 70
0
 10
95.414871
 20
205.843723
 30
0.0
 10
95.935571
 20
202.889209
 30
0.0
  0
LWPOLYLINE
  5
2cd
100
AcDbEntity
  8
Layer_1
 62
7
100
AcDbPolyline
 90
2
 70
0
 10
100.604232
 20
206.527053
 30
0.0
 10
100.865640
 20
203.538320
 30
0.0
  0
LWPOLYLINE
  5
2ce
100
AcDbEntity
  8
Layer_1
 62
7
100
AcDbPolyline
 90
2
 70
0
 10
103.216551
 20
206.698151
 30
0.0
 10
103.347432
 20
203.700951
 30
0.0
  0
LWPOLYLINE
  5
2cf
100
AcDbEntity
  8
Layer_1
 62
7
100
AcDbPolyline
 90
2
 70
0
 10
108.450715
 20
206.698151
 30
0.0
 10
108.319835
 20
203.700951
 30
0.0
  0
LWPOLYLINE
  5
2d0
100
AcDbEntity
  8
Layer_1
 62
7
100
AcDbPolyline
 90
2
 70
0
 10
111.063035
 20
206.527053
 30
0.0
 10
110.801626
 20
203.538320
 30
0.0
  0
LWPOLYLINE
  5
2d1
100
AcDbEntity
  8
Layer_1
 62
7
100
AcDbPolyline
 90
2
 70
0
 10
116.252396
 20
205.843723
 30
0.0
 10
115.731696
 20
202.889209
 30
0.0
  0
LWPOLYLINE
  5
2d2
100
AcDbEntity
  8
Layer_1
 62
7
100
AcDbPolyline
 90
2
 70
0
 10
118.819912
 20
205.332901
 30
0.0
 10
118.170801
 20
202.404139
 30
0.0
  0
LWPOLYLINE
  5
2d3
100
AcDbEntity
  8
Layer_1
 62
7
100
AcDbPolyline
 90
2
 70
0
 10
123.875923
 20
203.978234
 30
0.0
 10
122.973871
 20
201.117206
 30
0.0
  0
LWPOLYLINE
  5
2d4
100
AcDbEntity
  8
Layer_1
 62
7
100
AcDbPolyline
 90
2
 70
0
 10
126.354893
 20
203.136859
 30
0.0
 10
125.328662
 20
200.317812
 30
0.0
  0
LWPOLYLINE
  5
2d5
100
AcDbEntity
  8
Layer_1
 62
7
100
AcDbPolyline
 90
2
 70
0
 10
131.190771
 20
201.133787
 30
0.0
 10
129.922887
 20
198.414576
 30
0.0
  0
LWPOLYLINE
  5
2d6
100
AcDbEntity
  8
Layer_1
 62
7
100
AcDbPolyline
 90
2
 70
0
 10
133.538507
 20
199.975970
 30
0.0
 10
132.153148
 20
197.314967
 30
0.0
  0
LWPOLYLINE
  5
2d7
100
AcDbEntity
  8
Layer_1
 62
7
100
AcDbPolyline
 90
2
 70
0
 10
138.071701
 20
197.358712
 30
0.0
 10
136.459860
 20
194.828589
 30
0.0
  0
LWPOLYLINE
  5
2d8
100
AcDbEntity
  8
Layer_1
 62
7
100
AcDbPolyline
 90
2
 70
0
 10
140.248340
 20
195.904209
 30
0.0
 10
138.527490
 20
193.446759
 30
0.0
  0
LWPOLYLINE
  5
2d9
100
AcDbEntity
  8
Layer_1
 62
7
100
AcDbPolyline
 90
2
 70
0
 10
144.400887
 20
192.717920
 30
0.0
 10
142.472604
 20
190.419573
 30
0.0
  0
LWPOLYLINE
  5
2da
100
AcDbEntity
  8
Layer_1
 62
7
100
AcDbPolyline
 90
2
 70
0
 10
146.369035
 20
190.991778
 30
0.0
 10
144.342326
 20
188.779862
 30
0.0
  0
LWPOLYLINE
  5
2db
100
AcDbEntity
  8
Layer_1
 62
7
100
AcDbPolyline
 90
2
 70
0
 10
150.070379
 20
187.290434
 30
0.0
 10
147.858462
 20
185.263726
 30
0.0
  0
LWPOLYLINE
  5
2dc
100
AcDbEntity
  8
Layer_1
 62
7
100
AcDbPolyline
 90
2
 70
0
 10
151.796168
 20
185.322287
 30
0.0
 10
149.498173
 20
183.394003
 30
0.0
  0
LWPOLYLINE
  5
2dd
100
AcDbEntity
  8
Layer_1
 62
7
100
AcDbPolyline
 90
2
 70
0
 10
154.982810
 20
181.169739
 30
0.0
 10
152.525360
 20
179.448889
 30
0.0
  0
LWPOLYLINE
  5
2de
100
AcDbEntity
  8
Layer_1
 62
7
100
AcDbPolyline
 90
2
 70
0
 10
156.436960
 20
178.993101
 30
0.0
 10
153.906837
 20
177.381259
 30
0.0
  0
LWPOLYLINE
  5
2df
100
AcDbEntity
  8
Layer_1
 62
7
100
AcDbPolyline
 90
2
 70
0
 10
159.054218
 20
174.459906
 30
0.0
 10
156.393215
 20
173.074901
 30
0.0
  0
LWPOLYLINE
  5
2e0
100
AcDbEntity
  8
Layer_1
 62
7
100
AcDbPolyline
 90
2
 70
0
 10
160.212035
 20
172.112170
 30
0.0
 10
157.493176
 20
170.844287
 30
0.0
  0
LWPOLYLINE
  5
2e1
100
AcDbEntity
  8
Layer_1
 62
7
100
AcDbPolyline
 90
2
 70
0
 10
162.215107
 20
167.276292
 30
0.0
 10
159.396060
 20
166.250062
 30
0.0
  0
LWPOLYLINE
  5
2e2
100
AcDbEntity
  8
Layer_1
 62
7
100
AcDbPolyline
 90
2
 70
0
 10
163.056482
 20
164.797323
 30
0.0
 10
160.195454
 20
163.895270
 30
0.0
  0
LWPOLYLINE
  5
2e3
100
AcDbEntity
  8
Layer_1
 62
7
100
AcDbPolyline
 90
2
 70
0
 10
164.411148
 20
159.741312
 30
0.0
 10
161.482387
 20
159.092201
 30
0.0
  0
LWPOLYLINE
  5
2e4
100
AcDbEntity
  8
Layer_1
 62
7
100
AcDbPolyline
 90
2
 70
0
 10
164.921971
 20
157.173795
 30
0.0
 10
161.967457
 20
156.653095
 30
0.0
  0
LWPOLYLINE
  5
2e5
100
AcDbEntity
  8
Layer_1
 62
7
100
AcDbPolyline
 90
2
 70
0
 10
165.605301
 20
151.984434
 30
0.0
 10
162.616568
 20
151.723026
 30
0.0
  0
LWPOLYLINE
  5
2e6
100
AcDbEntity
  8
Layer_1
 62
7
100
AcDbPolyline
 90
2
 70
0
 10
165.776398
 20
149.372114
 30
0.0
 10
162.779198
 20
149.241234
 30
0.0
  0
LWPOLYLINE
  5
2e7
100
AcDbEntity
  8
Layer_1
 62
7
100
AcDbPolyline
 90
2
 70
0
 10
165.776398
 20
144.137951
 30
0.0
 10
162.779198
 20
144.268831
 30
0.0
  0
LWPOLYLINE
  5
2e8
100
AcDbEntity
  8
Layer_1
 62
7
100
AcDbPolyline
 90
2
 70
0
 10
165.605301
 20
141.525631
 30
0.0
 10
162.616568
 20
141.787039
 30
0.0
  0
LWPOLYLINE
  5
2e9
100
AcDbEntity
  8
Layer_1
 62
7
100
AcDbPolyline
 90
2
 70
0
 10
164.921971
 20
136.336270
 30
0.0
 10
161.967457
 20
136.856970
 30
0.0
  0
LWPOLYLINE
  5
2ea
100
AcDbEntity
  8
Layer_1
 62
7
100
AcDbPolyline
 90
2
 70
0
 10
164.411148
 20
133.768753
 30
0.0
 10
161.482387
 20
134.417864
 30
0.0
  0
LWPOLYLINE
  5
2eb
100
AcDbEntity
  8
Layer_1
 62
7
100
AcDbPolyline
 90
2
 70
0
 10
163.056482
 20
128.712742
 30
0.0
 10
160.195454
 20
129.614795
 30
0.0
  0
LWPOLYLINE
  5
2ec
100
AcDbEntity
  8
Layer_1
 62
7
100
AcDbPolyline
 90
2
 70
0
 10
162.215107
 20
126.233773
 30
0.0
 10
159.396060
 20
127.260003
 30
0.0
  0
LWPOLYLINE
  5
2ed
100
AcDbEntity
  8
Layer_1
 62
7
100
AcDbPolyline
 90
2
 70
0
 10
160.212035
 20
121.397895
 30
0.0
 10
157.492823
 20
122.665778
 30
0.0
  0
LWPOLYLINE
  5
2ee
100
AcDbEntity
  8
Layer_1
 62
7
100
AcDbPolyline
 90
2
 70
0
 10
159.053865
 20
119.050159
 30
0.0
 10
156.392862
 20
120.435164
 30
0.0
  0
LWPOLYLINE
  5
2ef
100
AcDbEntity
  8
Layer_1
 62
7
100
AcDbPolyline
 90
2
 70
0
 10
156.436960
 20
114.516964
 30
0.0
 10
153.906837
 20
116.128806
 30
0.0
  0
LWPOLYLINE
  5
2f0
100
AcDbEntity
  8
Layer_1
 62
7
100
AcDbPolyline
 90
2
 70
0
 10
154.982457
 20
112.340326
 30
0.0
 10
152.525007
 20
114.061176
 30
0.0
  0
LWPOLYLINE
  5
2f1
100
AcDbEntity
  8
Layer_1
 62
7
100
AcDbPolyline
 90
2
 70
0
 10
151.796168
 20
108.187778
 30
0.0
 10
149.497821
 20
110.116062
 30
0.0
  0
LWPOLYLINE
  5
2f2
100
AcDbEntity
  8
Layer_1
 62
7
100
AcDbPolyline
 90
2
 70
0
 10
150.070026
 20
106.219631
 30
0.0
 10
147.858110
 20
108.246339
 30
0.0
  0
LWPOLYLINE
  5
2f3
100
AcDbEntity
  8
Layer_1
 62
7
100
AcDbPolyline
 90
2
 70
0
 10
146.368682
 20
102.518287
 30
0.0
 10
144.341973
 20
104.730203
 30
0.0
  0
LWPOLYLINE
  5
2f4
100
AcDbEntity
  8
Layer_1
 62
7
100
AcDbPolyline
 90
2
 70
0
 10
144.400535
 20
100.792498
 30
0.0
 10
142.472251
 20
103.090492
 30
0.0
  0
LWPOLYLINE
  5
2f5
100
AcDbEntity
  8
Layer_1
 62
7
100
AcDbPolyline
 90
2
 70
0
 10
140.247987
 20
97.605856
 30
0.0
 10
138.527137
 20
100.063306
 30
0.0
  0
LWPOLYLINE
  5
2f6
100
AcDbEntity
  8
Layer_1
 62
7
100
AcDbPolyline
 90
2
 70
0
 10
138.071348
 20
96.151706
 30
0.0
 10
136.459507
 20
98.681828
 30
0.0
  0
LWPOLYLINE
  5
2f7
100
AcDbEntity
  8
Layer_1
 62
7
100
AcDbPolyline
 90
2
 70
0
 10
133.538154
 20
93.534448
 30
0.0
 10
132.152796
 20
96.195451
 30
0.0
  0
LWPOLYLINE
  5
2f8
100
AcDbEntity
  8
Layer_1
 62
7
100
AcDbPolyline
 90
2
 70
0
 10
131.190418
 20
92.376631
 30
0.0
 10
129.922535
 20
95.095489
 30
0.0
  0
LWPOLYLINE
  5
2f9
100
AcDbEntity
  8
Layer_1
 62
7
100
AcDbPolyline
 90
2
 70
0
 10
126.354540
 20
90.373559
 30
0.0
 10
125.328310
 20
93.192606
 30
0.0
  0
LWPOLYLINE
  5
2fa
100
AcDbEntity
  8
Layer_1
 62
7
100
AcDbPolyline
 90
2
 70
0
 10
123.875571
 20
89.532184
 30
0.0
 10
122.973518
 20
92.393212
 30
0.0
  0
LWPOLYLINE
  5
2fb
100
AcDbEntity
  8
Layer_1
 62
7
100
AcDbPolyline
 90
2
 70
0
 10
118.819560
 20
88.177517
 30
0.0
 10
118.170448
 20
91.106278
 30
0.0
  0
LWPOLYLINE
  5
2fc
100
AcDbEntity
  8
Layer_1
 62
7
100
AcDbPolyline
 90
2
 70
0
 10
116.252043
 20
87.666695
 30
0.0
 10
115.731343
 20
90.621209
 30
0.0
  0
LWPOLYLINE
  5
2fd
100
AcDbEntity
  8
Layer_1
 62
7
100
AcDbPolyline
 90
2
 70
0
 10
111.062682
 20
86.983364
 30
0.0
 10
110.800921
 20
89.972098
 30
0.0
  0
LWPOLYLINE
  5
2fe
100
AcDbEntity
  8
Layer_1
 62
7
100
AcDbPolyline
 90
2
 70
0
 10
108.450362
 20
86.812267
 30
0.0
 10
108.319482
 20
89.809467
 30
0.0
  0
LWPOLYLINE
  5
2ff
100
AcDbEntity
  8
Layer_1
 62
7
100
AcDbPolyline
 90
2
 70
0
 10
103.216198
 20
86.812267
 30
0.0
 10
103.346726
 20
89.809467
 30
0.0
  0
LWPOLYLINE
  5
300
100
AcDbEntity
  8
Layer_1
 62
7
100
AcDbPolyline
 90
2
 70
0
 10
100.603879
 20
86.983364
 30
0.0
 10
100.865287
 20
89.972098
 30
0.0
  0
LWPOLYLINE
  5
301
100
AcDbEntity
  8
Layer_1
 62
7
100
AcDbPolyline
 90
2
 70
0
 10
95.414165
 20
87.666695
 30
0.0
 10
95.935218
 20
90.621209
 30
0.0
  0
LWPOLYLINE
  5
302
100
AcDbEntity
  8
Layer_1
 62
7
100
AcDbPolyline
 90
2
 70
0
 10
92.846648
 20
88.177517
 30
0.0
 10
93.496112
 20
91.106278
 30
0.0
  0
LWPOLYLINE
  5
303
100
AcDbEntity
  8
Layer_1
 62
7
100
AcDbPolyline
 90
2
 70
0
 10
87.790990
 20
89.532184
 30
0.0
 10
88.693043
 20
92.393212
 30
0.0
  0
LWPOLYLINE
  5
304
100
AcDbEntity
  8
Layer_1
 62
7
100
AcDbPolyline
 90
2
 70
0
 10
85.312021
 20
90.373559
 30
0.0
 10
86.337898
 20
93.192606
 30
0.0
  0
LWPOLYLINE
  5
305
100
AcDbEntity
  8
Layer_1
 62
7
100
AcDbPolyline
 90
2
 70
0
 10
80.476143
 20
92.376631
 30
0.0
 10
81.744026
 20
95.095842
 30
0.0
  0
LWPOLYLINE
  5
306
100
AcDbEntity
  8
Layer_1
 62
7
100
AcDbPolyline
 90
2
 70
0
 10
78.128407
 20
93.534801
 30
0.0
 10
79.513412
 20
96.195803
 30
0.0
  0
LWPOLYLINE
  5
307
100
AcDbEntity
  8
Layer_1
 62
7
100
AcDbPolyline
 90
2
 70
0
 10
73.595212
 20
96.151706
 30
0.0
 10
75.207054
 20
98.681828
 30
0.0
  0
LWPOLYLINE
  5
308
100
AcDbEntity
  8
Layer_1
 62
7
100
AcDbPolyline
 90
2
 70
0
 10
71.418573
 20
97.606209
 30
0.0
 10
73.139423
 20
100.063659
 30
0.0
  0
LWPOLYLINE
  5
309
100
AcDbEntity
  8
Layer_1
 62
7
100
AcDbPolyline
 90
2
 70
0
 10
67.266026
 20
100.792498
 30
0.0
 10
69.194310
 20
103.090845
 30
0.0
  0
LWPOLYLINE
  5
30a
100
AcDbEntity
  8
Layer_1
 62
7
100
AcDbPolyline
 90
2
 70
0
 10
65.297879
 20
102.518639
 30
0.0
 10
67.324587
 20
104.730556
 30
0.0
  0
LWPOLYLINE
  5
30b
100
AcDbEntity
  8
Layer_1
 62
7
100
AcDbPolyline
 90
2
 70
0
 10
61.596535
 20
106.219984
 30
0.0
 10
63.808451
 20
108.246692
 30
0.0
  0
LWPOLYLINE
  5
30c
100
AcDbEntity
  8
Layer_1
 62
7
100
AcDbPolyline
 90
2
 70
0
 10
59.870393
 20
108.188131
 30
0.0
 10
62.168740
 20
110.116414
 30
0.0
  0
LWPOLYLINE
  5
30d
100
AcDbEntity
  8
Layer_1
 62
7
100
AcDbPolyline
 90
2
 70
0
 10
56.684104
 20
112.340678
 30
0.0
 10
59.141554
 20
114.061528
 30
0.0
  0
LWPOLYLINE
  5
30e
100
AcDbEntity
  8
Layer_1
 62
7
100
AcDbPolyline
 90
2
 70
0
 10
55.229601
 20
114.517317
 30
0.0
 10
57.760076
 20
116.129159
 30
0.0
  0
LWPOLYLINE
  5
30f
100
AcDbEntity
  8
Layer_1
 62
7
100
AcDbPolyline
 90
2
 70
0
 10
52.612696
 20
119.050512
 30
0.0
 10
55.273698
 20
120.435870
 30
0.0
  0
LWPOLYLINE
  5
310
100
AcDbEntity
  8
Layer_1
 62
7
100
AcDbPolyline
 90
2
 70
0
 10
51.454879
 20
121.398248
 30
0.0
 10
54.173737
 20
122.666131
 30
0.0
  0
LWPOLYLINE
  5
311
100
AcDbEntity
  8
Layer_1
 62
7
100
AcDbPolyline
 90
2
 70
0
 10
49.451807
 20
126.234126
 30
0.0
 10
52.270854
 20
127.260356
 30
0.0
  0
LWPOLYLINE
  5
312
100
AcDbEntity
  8
Layer_1
 62
7
100
AcDbPolyline
 90
2
 70
0
 10
48.610432
 20
128.713095
 30
0.0
 10
51.471460
 20
129.615148
 30
0.0
  0
LWPOLYLINE
  5
313
100
AcDbEntity
  8
Layer_1
 62
7
100
AcDbPolyline
 90
2
 70
0
 10
47.255412
 20
133.769106
 30
0.0
 10
50.184526
 20
134.418217
 30
0.0
  0
LWPOLYLINE
  5
314
100
AcDbEntity
  8
Layer_1
 62
7
100
AcDbPolyline
 90
2
 70
0
 10
46.744943
 20
136.336623
 30
0.0
 10
49.699104
 20
136.857323
 30
0.0
  0
LWPOLYLINE
  5
315
100
AcDbEntity
  8
Layer_1
 62
7
100
AcDbPolyline
 90
2
 70
0
 10
46.061612
 20
141.525984
 30
0.0
 10
49.050346
 20
141.787392
 30
0.0
  0
LWPOLYLINE
  5
316
100
AcDbEntity
  8
Layer_1
 62
7
100
AcDbPolyline
 90
2
 70
0
 10
45.890515
 20
144.138303
 30
0.0
 10
48.887715
 20
144.269184
 30
0.0
  0
LWPOLYLINE
  5
317
100
AcDbEntity
  8
Layer_1
 62
7
100
AcDbPolyline
 90
2
 70
0
 10
43.379443
 20
154.977753
 30
0.0
 10
49.320926
 20
154.195292
 30
0.0
  0
LWPOLYLINE
  5
318
100
AcDbEntity
  8
Layer_1
 62
7
100
AcDbPolyline
 90
2
 70
0
 10
47.635707
 20
170.861573
 30
0.0
 10
53.172201
 20
168.568517
 30
0.0
  0
LWPOLYLINE
  5
319
100
AcDbEntity
  8
Layer_1
 62
7
100
AcDbPolyline
 90
2
 70
0
 10
55.857898
 20
185.102859
 30
0.0
 10
60.612285
 20
181.454784
 30
0.0
  0
LWPOLYLINE
  5
31a
100
AcDbEntity
  8
Layer_1
 62
7
100
AcDbPolyline
 90
2
 70
0
 10
67.486160
 20
196.730767
 30
0.0
 10
71.134235
 20
191.976734
 30
0.0
  0
LWPOLYLINE
  5
31b
100
AcDbEntity
  8
Layer_1
 62
7
100
AcDbPolyline
 90
2
 70
0
 10
81.727446
 20
204.952959
 30
0.0
 10
84.020501
 20
199.416464
 30
0.0
  0
LWPOLYLINE
  5
31c
100
AcDbEntity
  8
Layer_1
 62
7
100
AcDbPolyline
 90
2
 70
0
 10
97.611265
 20
209.209223
 30
0.0
 10
98.393726
 20
203.267739
 30
0.0
  0
LWPOLYLINE
  5
31d
100
AcDbEntity
  8
Layer_1
 62
7
100
AcDbPolyline
 90
2
 70
0
 10
114.056001
 20
209.209223
 30
0.0
 10
113.273540
 20
203.267739
 30
0.0
  0
LWPOLYLINE
  5
31e
100
AcDbEntity
  8
Layer_1
 62
7
100
AcDbPolyline
 90
2
 70
0
 10
129.939821
 20
204.952959
 30
0.0
 10
127.646765
 20
199.416464
 30
0.0
  0
LWPOLYLINE
  5
31f
100
AcDbEntity
  8
Layer_1
 62
7
100
AcDbPolyline
 90
2
 70
0
 10
144.181107
 20
196.730767
 30
0.0
 10
140.533032
 20
191.976381
 30
0.0
  0
LWPOLYLINE
  5
320
100
AcDbEntity
  8
Layer_1
 62
7
100
AcDbPolyline
 90
2
 70
0
 10
155.809015
 20
185.102506
 30
0.0
 10
151.054629
 20
181.454431
 30
0.0
  0
LWPOLYLINE
  5
321
100
AcDbEntity
  8
Layer_1
 62
7
100
AcDbPolyline
 90
2
 70
0
 10
164.031207
 20
170.861220
 30
0.0
 10
158.494712
 20
168.567812
 30
0.0
  0
LWPOLYLINE
  5
322
100
AcDbEntity
  8
Layer_1
 62
7
100
AcDbPolyline
 90
2
 70
0
 10
168.287471
 20
154.977401
 30
0.0
 10
162.345987
 20
154.194939
 30
0.0
  0
LWPOLYLINE
  5
323
100
AcDbEntity
  8
Layer_1
 62
7
100
AcDbPolyline
 90
2
 70
0
 10
168.287118
 20
138.532664
 30
0.0
 10
162.345987
 20
139.315126
 30
0.0
  0
LWPOLYLINE
  5
324
100
AcDbEntity
  8
Layer_1
 62
7
100
AcDbPolyline
 90
2
 70
0
 10
164.031207
 20
122.648845
 30
0.0
 10
158.494360
 20
124.941901
 30
0.0
  0
LWPOLYLINE
  5
325
100
AcDbEntity
  8
Layer_1
 62
7
100
AcDbPolyline
 90
2
 70
0
 10
155.808662
 20
108.407559
 30
0.0
 10
151.054629
 20
112.055634
 30
0.0
  0
LWPOLYLINE
  5
326
100
AcDbEntity
  8
Layer_1
 62
7
100
AcDbPolyline
 90
2
 70
0
 10
144.180754
 20
96.779651
 30
0.0
 10
140.532679
 20
101.534037
 30
0.0
  0
LWPOLYLINE
  5
327
100
AcDbEntity
  8
Layer_1
 62
7
100
AcDbPolyline
 90
2
 70
0
 10
129.939468
 20
88.557459
 30
0.0
 10
127.646060
 20
94.093953
 30
0.0
  0
LWPOLYLINE
  5
328
100
AcDbEntity
  8
Layer_1
 62
7
100
AcDbPolyline
 90
2
 70
0
 10
114.055296
 20
84.301195
 30
0.0
 10
113.273187
 20
90.242678
 30
0.0
  0
LWPOLYLINE
  5
329
100
AcDbEntity
  8
Layer_1
 62
7
100
AcDbPolyline
 90
2
 70
0
 10
97.610912
 20
84.301548
 30
0.0
 10
98.393021
 20
90.243031
 30
0.0
  0
LWPOLYLINE
  5
32a
100
AcDbEntity
  8
Layer_1
 62
7
100
AcDbPolyline
 90
2
 70
0
 10
81.727093
 20
88.557459
 30
0.0
 10
84.020148
 20
94.094306
 30
0.0
  0
LWPOLYLINE
  5
32b
100
AcDbEntity
  8
Layer_1
 62
7
100
AcDbPolyline
 90
2
 70
0
 10
67.485807
 20
96.780003
 30
0.0
 10
71.133882
 20
101.534037
 30
0.0
  0
LWPOLYLINE
  5
32c
100
AcDbEntity
  8
Layer_1
 62
7
100
AcDbPolyline
 90
2
 70
0
 10
55.857898
 20
108.407912
 30
0.0
 10
60.611932
 20
112.055987
 30
0.0
  0
LWPOLYLINE
  5
32d
100
AcDbEntity
  8
Layer_1
 62
7
100
AcDbPolyline
 90
2
 70
0
 10
47.635707
 20
122.649198
 30
0.0
 10
53.172201
 20
124.942606
 30
0.0
  0
LWPOLYLINE
  5
32e
100
AcDbEntity
  8
Layer_1
 62
7
100
AcDbPolyline
 90
2
 70
0
 10
43.379443
 20
138.533370
 30
0.0
 10
49.320926
 20
139.315478
 30
0.0
  0
LWPOLYLINE
  5
32f
100
AcDbEntity
  8
Layer_1
 62
7
100
AcDbPolyline
 90
2
 70
0
 10
39.833321
 20
146.755562
 30
0.0
 10
48.833387
 20
146.755562
 30
0.0
  0
LWPOLYLINE
  5
330
100
AcDbEntity
  8
Layer_1
 62
7
100
AcDbPolyline
 90
2
 70
0
 10
42.082279
 20
163.837414
 30
0.0
 10
50.775782
 20
161.508023
 30
0.0
  0
LWPOLYLINE
  5
331
100
AcDbEntity
  8
Layer_1
 62
7
100
AcDbPolyline
 90
2
 70
0
 10
48.675696
 20
179.755453
 30
0.0
 10
56.469968
 20
175.255420
 30
0.0
  0
LWPOLYLINE
  5
332
100
AcDbEntity
  8
Layer_1
 62
7
100
AcDbPolyline
 90
2
 70
0
 10
59.164485
 20
193.424534
 30
0.0
 10
65.528596
 20
187.060423
 30
0.0
  0
LWPOLYLINE
  5
333
100
AcDbEntity
  8
Layer_1
 62
7
100
AcDbPolyline
 90
2
 70
0
 10
72.833565
 20
203.912970
 30
0.0
 10
77.333598
 20
196.118698
 30
0.0
  0
LWPOLYLINE
  5
334
100
AcDbEntity
  8
Layer_1
 62
7
100
AcDbPolyline
 90
2
 70
0
 10
88.751604
 20
210.506387
 30
0.0
 10
91.080996
 20
201.813237
 30
0.0
  0
LWPOLYLINE
  5
335
100
AcDbEntity
  8
Layer_1
 62
7
100
AcDbPolyline
 90
2
 70
0
 10
105.833810
 20
212.755345
 30
0.0
 10
105.833810
 20
203.755278
 30
0.0
  0
LWPOLYLINE
  5
336
100
AcDbEntity
  8
Layer_1
 62
7
100
AcDbPolyline
 90
2
 70
0
 10
122.915662
 20
210.506387
 30
0.0
 10
120.586271
 20
201.812884
 30
0.0
  0
LWPOLYLINE
  5
337
100
AcDbEntity
  8
Layer_1
 62
7
100
AcDbPolyline
 90
2
 70
0
 10
138.833701
 20
203.912970
 30
0.0
 10
134.333668
 20
196.118698
 30
0.0
  0
LWPOLYLINE
  5
338
100
AcDbEntity
  8
Layer_1
 62
7
100
AcDbPolyline
 90
2
 70
0
 10
152.502782
 20
193.424181
 30
0.0
 10
146.138671
 20
187.060070
 30
0.0
  0
LWPOLYLINE
  5
339
100
AcDbEntity
  8
Layer_1
 62
7
100
AcDbPolyline
 90
2
 70
0
 10
162.991218
 20
179.755101
 30
0.0
 10
155.196946
 20
175.255067
 30
0.0
  0
LWPOLYLINE
  5
33a
100
AcDbEntity
  8
Layer_1
 62
7
100
AcDbPolyline
 90
2
 70
0
 10
169.584635
 20
163.837062
 30
0.0
 10
160.891485
 20
161.507670
 30
0.0
  0
LWPOLYLINE
  5
33b
100
AcDbEntity
  8
Layer_1
 62
7
100
AcDbPolyline
 90
2
 70
0
 10
171.833593
 20
146.754856
 30
0.0
 10
162.833526
 20
146.754856
 30
0.0
  0
LWPOLYLINE
  5
33c
100
AcDbEntity
  8
Layer_1
 62
7
100
AcDbPolyline
 90
2
 70
0
 10
169.584635
 20
129.673003
 30
0.0
 10
160.891132
 20
132.002395
 30
0.0
  0
LWPOLYLINE
  5
33d
100
AcDbEntity
  8
Layer_1
 62
7
100
AcDbPolyline
 90
2
 70
0
 10
162.990865
 20
113.754964
 30
0.0
 10
155.196946
 20
118.254998
 30
0.0
  0
LWPOLYLINE
  5
33e
100
AcDbEntity
  8
Layer_1
 62
7
100
AcDbPolyline
 90
2
 70
0
 10
152.502429
 20
100.085884
 30
0.0
 10
146.138318
 20
106.449995
 30
0.0
  0
LWPOLYLINE
  5
33f
100
AcDbEntity
  8
Layer_1
 62
7
100
AcDbPolyline
 90
2
 70
0
 10
138.833348
 20
89.597448
 30
0.0
 10
134.333315
 20
97.391720
 30
0.0
  0
LWPOLYLINE
  5
340
100
AcDbEntity
  8
Layer_1
 62
7
100
AcDbPolyline
 90
2
 70
0
 10
122.915310
 20
83.004031
 30
0.0
 10
120.585918
 20
91.697534
 30
0.0
  0
LWPOLYLINE
  5
341
100
AcDbEntity
  8
Layer_1
 62
7
100
AcDbPolyline
 90
2
 70
0
 10
105.833104
 20
80.755073
 30
0.0
 10
105.833104
 20
89.755139
 30
0.0
  0
LWPOLYLINE
  5
342
100
AcDbEntity
  8
Layer_1
 62
7
100
AcDbPolyline
 90
2
 70
0
 10
88.751251
 20
83.004031
 30
0.0
 10
91.080643
 20
91.697534
 30
0.0
  0
LWPOLYLINE
  5
343
100
AcDbEntity
  8
Layer_1
 62
7
100
AcDbPolyline
 90
2
 70
0
 10
72.833212
 20
89.597801
 30
0.0
 10
77.333246
 20
97.391720
 30
0.0
  0
LWPOLYLINE
  5
344
100
AcDbEntity
  8
Layer_1
 62
7
100
AcDbPolyline
 90
2
 70
0
 10
59.164132
 20
100.086237
 30
0.0
 10
65.528243
 20
106.450348
 30
0.0
  0
LWPOLYLINE
  5
345
100
AcDbEntity
  8
Layer_1
 62
7
100
AcDbPolyline
 90
2
 70
0
 10
48.675696
 20
113.755317
 30
0.0
 10
56.469968
 20
118.255351
 30
0.0
  0
LWPOLYLINE
  5
346
100
AcDbEntity
  8
Layer_1
 62
7
100
AcDbPolyline
 90
2
 70
0
 10
42.082279
 20
129.673356
 30
0.0
 10
50.775429
 20
132.002748
 30
0.0
  0
LWPOLYLINE
  5
347
100
AcDbEntity
  8
Layer_1
 62
7
100
AcDbPolyline
 90
2
 70
0
 10
112.631485
 20
224.458748
 30
0.0
 10
112.370076
 20
221.470014
 30
0.0
  0
LWPOLYLINE
  5
348
100
AcDbEntity
  8
Layer_1
 62
7
100
AcDbPolyline
 90
2
 70
0
 10
99.035076
 20
224.458395
 30
0.0
 10
99.296485
 20
221.470014
 30
0.0
  0
LWPOLYLINE
  5
349
100
AcDbEntity
  8
Layer_1
 62
7
100
AcDbPolyline
 90
2
 70
0
 10
85.645396
 20
222.097606
 30
0.0
 10
86.421860
 20
219.199889
 30
0.0
  0
LWPOLYLINE
  5
34a
100
AcDbEntity
  8
Layer_1
 62
7
100
AcDbPolyline
 90
2
 70
0
 10
72.869196
 20
217.447289
 30
0.0
 10
74.136726
 20
214.728431
 30
0.0
  0
LWPOLYLINE
  5
34b
100
AcDbEntity
  8
Layer_1
 62
7
100
AcDbPolyline
 90
2
 70
0
 10
61.094179
 20
210.649262
 30
0.0
 10
62.815029
 20
208.191812
 30
0.0
  0
LWPOLYLINE
  5
34c
100
AcDbEntity
  8
Layer_1
 62
7
100
AcDbPolyline
 90
2
 70
0
 10
50.678768
 20
201.909545
 30
0.0
 10
52.800373
 20
199.788292
 30
0.0
  0
LWPOLYLINE
  5
34d
100
AcDbEntity
  8
Layer_1
 62
7
100
AcDbPolyline
 90
2
 70
0
 10
41.939404
 20
191.494134
 30
0.0
 10
44.396854
 20
189.773637
 30
0.0
  0
LWPOLYLINE
  5
34e
100
AcDbEntity
  8
Layer_1
 62
7
100
AcDbPolyline
 90
2
 70
0
 10
35.141200
 20
179.719470
 30
0.0
 10
37.860235
 20
178.451587
 30
0.0
  0
LWPOLYLINE
  5
34f
100
AcDbEntity
  8
Layer_1
 62
7
100
AcDbPolyline
 90
2
 70
0
 10
30.490989
 20
166.942917
 30
0.0
 10
33.388776
 20
166.166453
 30
0.0
  0
LWPOLYLINE
  5
350
100
AcDbEntity
  8
Layer_1
 62
7
100
AcDbPolyline
 90
2
 70
0
 10
28.130059
 20
153.553237
 30
0.0
 10
31.118616
 20
153.291828
 30
0.0
  0
LWPOLYLINE
  5
351
100
AcDbEntity
  8
Layer_1
 62
7
100
AcDbPolyline
 90
2
 70
0
 10
126.021165
 20
222.097606
 30
0.0
 10
125.244701
 20
219.199889
 30
0.0
  0
LWPOLYLINE
  5
352
100
AcDbEntity
  8
Layer_1
 62
7
100
AcDbPolyline
 90
2
 70
0
 10
138.797718
 20
217.447289
 30
0.0
 10
137.529835
 20
214.728431
 30
0.0
  0
LWPOLYLINE
  5
353
100
AcDbEntity
  8
Layer_1
 62
7
100
AcDbPolyline
 90
2
 70
0
 10
150.572382
 20
210.649262
 30
0.0
 10
148.851532
 20
208.191812
 30
0.0
  0
LWPOLYLINE
  5
354
100
AcDbEntity
  8
Layer_1
 62
7
100
AcDbPolyline
 90
2
 70
0
 10
160.987793
 20
201.909898
 30
0.0
 10
158.866540
 20
199.788292
 30
0.0
  0
LWPOLYLINE
  5
355
100
AcDbEntity
  8
Layer_1
 62
7
100
AcDbPolyline
 90
2
 70
0
 10
169.727510
 20
191.494487
 30
0.0
 10
167.270060
 20
189.773637
 30
0.0
  0
LWPOLYLINE
  5
356
100
AcDbEntity
  8
Layer_1
 62
7
100
AcDbPolyline
 90
2
 70
0
 10
176.525537
 20
179.719470
 30
0.0
 10
173.806679
 20
178.451939
 30
0.0
  0
LWPOLYLINE
  5
357
100
AcDbEntity
  8
Layer_1
 62
7
100
AcDbPolyline
 90
2
 70
0
 10
181.175854
 20
166.943270
 30
0.0
 10
178.278137
 20
166.166806
 30
0.0
  0
LWPOLYLINE
  5
358
100
AcDbEntity
  8
Layer_1
 62
7
100
AcDbPolyline
 90
2
 70
0
 10
183.536643
 20
153.553589
 30
0.0
 10
180.548262
 20
153.292181
 30
0.0
  0
LWPOLYLINE
  5
359
100
AcDbEntity
  8
Layer_1
 62
7
100
AcDbPolyline
 90
2
 70
0
 10
107.194473
 20
224.740970
 30
0.0
 10
107.168368
 20
223.240959
 30
0.0
  0
LWPOLYLINE
  5
35a
100
AcDbEntity
  8
Layer_1
 62
7
100
AcDbPolyline
 90
2
 70
0
 10
104.472087
 20
224.740970
 30
0.0
 10
104.498193
 20
223.240959
 30
0.0
  0
LWPOLYLINE
  5
35b
100
AcDbEntity
  8
Layer_1
 62
7
100
AcDbPolyline
 90
2
 70
0
 10
103.111071
 20
224.705339
 30
0.0
 10
103.163635
 20
223.206034
 30
0.0
  0
LWPOLYLINE
  5
35c
100
AcDbEntity
  8
Layer_1
 62
7
100
AcDbPolyline
 90
2
 70
0
 10
101.751112
 20
224.645720
 30
0.0
 10
101.829782
 20
223.147473
 30
0.0
  0
LWPOLYLINE
  5
35d
100
AcDbEntity
  8
Layer_1
 62
7
100
AcDbPolyline
 90
2
 70
0
 10
100.392565
 20
224.562817
 30
0.0
 10
100.496987
 20
223.065981
 30
0.0
  0
LWPOLYLINE
  5
35e
100
AcDbEntity
  8
Layer_1
 62
7
100
AcDbPolyline
 90
2
 70
0
 10
97.680410
 20
224.325398
 30
0.0
 10
97.837043
 20
222.833501
 30
0.0
  0
LWPOLYLINE
  5
35f
100
AcDbEntity
  8
Layer_1
 62
7
100
AcDbPolyline
 90
2
 70
0
 10
96.327860
 20
224.171234
 30
0.0
 10
96.510598
 20
222.682159
 30
0.0
  0
LWPOLYLINE
  5
360
100
AcDbEntity
  8
Layer_1
 62
7
100
AcDbPolyline
 90
2
 70
0
 10
94.978132
 20
223.993787
 30
0.0
 10
95.186976
 20
222.507887
 30
0.0
  0
LWPOLYLINE
  5
361
100
AcDbEntity
  8
Layer_1
 62
7
100
AcDbPolyline
 90
2
 70
0
 10
93.631932
 20
223.792351
 30
0.0
 10
93.866529
 20
222.310684
 30
0.0
  0
LWPOLYLINE
  5
362
100
AcDbEntity
  8
Layer_1
 62
7
100
AcDbPolyline
 90
2
 70
0
 10
90.950821
 20
223.319628
 30
0.0
 10
91.236923
 20
221.847134
 30
0.0
  0
LWPOLYLINE
  5
363
100
AcDbEntity
  8
Layer_1
 62
7
100
AcDbPolyline
 90
2
 70
0
 10
89.616615
 20
223.048342
 30
0.0
 10
89.928471
 20
221.580787
 30
0.0
  0
LWPOLYLINE
  5
364
100
AcDbEntity
  8
Layer_1
 62
7
100
AcDbPolyline
 90
2
 70
0
 10
88.287701
 20
222.753773
 30
0.0
 10
88.625310
 20
221.291862
 30
0.0
  0
LWPOLYLINE
  5
365
100
AcDbEntity
  8
Layer_1
 62
7
100
AcDbPolyline
 90
2
 70
0
 10
86.964079
 20
222.435920
 30
0.0
 10
87.327087
 20
220.980006
 30
0.0
  0
LWPOLYLINE
  5
366
100
AcDbEntity
  8
Layer_1
 62
7
100
AcDbPolyline
 90
2
 70
0
 10
84.334121
 20
221.731070
 30
0.0
 10
84.747929
 20
220.288914
 30
0.0
  0
LWPOLYLINE
  5
367
100
AcDbEntity
  8
Layer_1
 62
7
100
AcDbPolyline
 90
2
 70
0
 10
83.029196
 20
221.344426
 30
0.0
 10
83.467698
 20
219.910031
 30
0.0
  0
LWPOLYLINE
  5
368
100
AcDbEntity
  8
Layer_1
 62
7
100
AcDbPolyline
 90
2
 70
0
 10
81.730621
 20
220.935203
 30
0.0
 10
82.194523
 20
219.508570
 30
0.0
  0
LWPOLYLINE
  5
369
100
AcDbEntity
  8
Layer_1
 62
7
100
AcDbPolyline
 90
2
 70
0
 10
80.439807
 20
220.503403
 30
0.0
 10
80.928404
 20
219.084884
 30
0.0
  0
LWPOLYLINE
  5
36a
100
AcDbEntity
  8
Layer_1
 62
7
100
AcDbPolyline
 90
2
 70
0
 10
77.881462
 20
219.572070
 30
0.0
 10
78.419096
 20
218.171542
 30
0.0
  0
LWPOLYLINE
  5
36b
100
AcDbEntity
  8
Layer_1
 62
7
100
AcDbPolyline
 90
2
 70
0
 10
76.614990
 20
219.073242
 30
0.0
 10
77.176965
 20
217.682239
 30
0.0
  0
LWPOLYLINE
  5
36c
100
AcDbEntity
  8
Layer_1
 62
7
100
AcDbPolyline
 90
2
 70
0
 10
75.357337
 20
218.552189
 30
0.0
 10
75.943301
 20
217.171417
 30
0.0
  0
LWPOLYLINE
  5
36d
100
AcDbEntity
  8
Layer_1
 62
7
100
AcDbPolyline
 90
2
 70
0
 10
74.108857
 20
218.009264
 30
0.0
 10
74.719162
 20
216.638723
 30
0.0
  0
LWPOLYLINE
  5
36e
100
AcDbEntity
  8
Layer_1
 62
7
100
AcDbPolyline
 90
2
 70
0
 10
71.641529
 20
216.858856
 30
0.0
 10
72.299107
 20
215.510539
 30
0.0
  0
LWPOLYLINE
  5
36f
100
AcDbEntity
  8
Layer_1
 62
7
100
AcDbPolyline
 90
2
 70
0
 10
70.423035
 20
216.251373
 30
0.0
 10
71.104248
 20
214.914698
 30
0.0
  0
LWPOLYLINE
  5
370
100
AcDbEntity
  8
Layer_1
 62
7
100
AcDbPolyline
 90
2
 70
0
 10
69.215829
 20
215.622723
 30
0.0
 10
69.919973
 20
214.298395
 30
0.0
  0
LWPOLYLINE
  5
371
100
AcDbEntity
  8
Layer_1
 62
7
100
AcDbPolyline
 90
2
 70
0
 10
68.019207
 20
214.973259
 30
0.0
 10
68.746635
 20
213.661278
 30
0.0
  0
LWPOLYLINE
  5
372
100
AcDbEntity
  8
Layer_1
 62
7
100
AcDbPolyline
 90
2
 70
0
 10
65.661593
 20
213.611889
 30
0.0
 10
66.434176
 20
212.326014
 30
0.0
  0
LWPOLYLINE
  5
373
100
AcDbEntity
  8
Layer_1
 62
7
100
AcDbPolyline
 90
2
 70
0
 10
64.500954
 20
212.900689
 30
0.0
 10
65.296115
 20
211.628573
 30
0.0
  0
LWPOLYLINE
  5
374
100
AcDbEntity
  8
Layer_1
 62
7
100
AcDbPolyline
 90
2
 70
0
 10
63.352662
 20
212.169381
 30
0.0
 10
64.170048
 20
210.911023
 30
0.0
  0
LWPOLYLINE
  5
375
100
AcDbEntity
  8
Layer_1
 62
7
100
AcDbPolyline
 90
2
 70
0
 10
62.217776
 20
211.417964
 30
0.0
 10
63.056682
 20
210.174423
 30
0.0
  0
LWPOLYLINE
  5
376
100
AcDbEntity
  8
Layer_1
 62
7
100
AcDbPolyline
 90
2
 70
0
 10
59.987515
 20
209.856570
 30
0.0
 10
60.869460
 20
208.642662
 30
0.0
  0
LWPOLYLINE
  5
377
100
AcDbEntity
  8
Layer_1
 62
7
100
AcDbPolyline
 90
2
 70
0
 10
58.893198
 20
209.046592
 30
0.0
 10
59.795957
 20
207.848559
 30
0.0
  0
LWPOLYLINE
  5
378
100
AcDbEntity
  8
Layer_1
 62
7
100
AcDbPolyline
 90
2
 70
0
 10
57.813346
 20
208.217917
 30
0.0
 10
58.736918
 20
207.035759
 30
0.0
  0
LWPOLYLINE
  5
379
100
AcDbEntity
  8
Layer_1
 62
7
100
AcDbPolyline
 90
2
 70
0
 10
56.747957
 20
207.370545
 30
0.0
 10
57.691990
 20
206.204614
 30
0.0
  0
LWPOLYLINE
  5
37a
100
AcDbEntity
  8
Layer_1
 62
7
100
AcDbPolyline
 90
2
 70
0
 10
54.662335
 20
205.620767
 30
0.0
 10
55.646585
 20
204.488351
 30
0.0
  0
LWPOLYLINE
  5
37b
100
AcDbEntity
  8
Layer_1
 62
7
100
AcDbPolyline
 90
2
 70
0
 10
53.642807
 20
204.718714
 30
0.0
 10
54.646812
 20
203.603584
 30
0.0
  0
LWPOLYLINE
  5
37c
100
AcDbEntity
  8
Layer_1
 62
7
100
AcDbPolyline
 90
2
 70
0
 10
52.639154
 20
203.799023
 30
0.0
 10
53.662210
 20
202.701531
 30
0.0
  0
LWPOLYLINE
  5
37d
100
AcDbEntity
  8
Layer_1
 62
7
100
AcDbPolyline
 90
2
 70
0
 10
51.651729
 20
202.861692
 30
0.0
 10
52.693835
 20
201.782545
 30
0.0
  0
LWPOLYLINE
  5
37e
100
AcDbEntity
  8
Layer_1
 62
7
100
AcDbPolyline
 90
2
 70
0
 10
49.726621
 20
200.936584
 30
0.0
 10
50.805768
 20
199.894478
 30
0.0
  0
LWPOLYLINE
  5
37f
100
AcDbEntity
  8
Layer_1
 62
7
100
AcDbPolyline
 90
2
 70
0
 10
48.789643
 20
199.949159
 30
0.0
 10
49.886782
 20
198.926103
 30
0.0
  0
LWPOLYLINE
  5
380
100
AcDbEntity
  8
Layer_1
 62
7
100
AcDbPolyline
 90
2
 70
0
 10
47.869951
 20
198.945506
 30
0.0
 10
48.984729
 20
197.941853
 30
0.0
  0
LWPOLYLINE
  5
381
100
AcDbEntity
  8
Layer_1
 62
7
100
AcDbPolyline
 90
2
 70
0
 10
46.967898
 20
197.925978
 30
0.0
 10
48.099962
 20
196.941728
 30
0.0
  0
LWPOLYLINE
  5
382
100
AcDbEntity
  8
Layer_1
 62
7
100
AcDbPolyline
 90
2
 70
0
 10
45.217768
 20
195.840709
 30
0.0
 10
46.383698
 20
194.896323
 30
0.0
  0
LWPOLYLINE
  5
383
100
AcDbEntity
  8
Layer_1
 62
7
100
AcDbPolyline
 90
2
 70
0
 10
44.370396
 20
194.775320
 30
0.0
 10
45.552554
 20
193.851395
 30
0.0
  0
LWPOLYLINE
  5
384
100
AcDbEntity
  8
Layer_1
 62
7
100
AcDbPolyline
 90
2
 70
0
 10
43.541721
 20
193.695114
 30
0.0
 10
44.739754
 20
192.792356
 30
0.0
  0
LWPOLYLINE
  5
385
100
AcDbEntity
  8
Layer_1
 62
7
100
AcDbPolyline
 90
2
 70
0
 10
42.732096
 20
192.600798
 30
0.0
 10
43.945651
 20
191.719206
 30
0.0
  0
LWPOLYLINE
  5
386
100
AcDbEntity
  8
Layer_1
 62
7
100
AcDbPolyline
 90
2
 70
0
 10
41.170348
 20
190.370889
 30
0.0
 10
42.414243
 20
189.531984
 30
0.0
  0
LWPOLYLINE
  5
387
100
AcDbEntity
  8
Layer_1
 62
7
100
AcDbPolyline
 90
2
 70
0
 10
40.419285
 20
189.235651
 30
0.0
 10
41.677290
 20
188.418617
 30
0.0
  0
LWPOLYLINE
  5
388
100
AcDbEntity
  8
Layer_1
 62
7
100
AcDbPolyline
 90
2
 70
0
 10
39.687623
 20
188.087359
 30
0.0
 10
40.960093
 20
187.292551
 30
0.0
  0
LWPOLYLINE
  5
389
100
AcDbEntity
  8
Layer_1
 62
7
100
AcDbPolyline
 90
2
 70
0
 10
38.976423
 20
186.926720
 30
0.0
 10
40.262298
 20
186.154137
 30
0.0
  0
LWPOLYLINE
  5
38a
100
AcDbEntity
  8
Layer_1
 62
7
100
AcDbPolyline
 90
2
 70
0
 10
37.615054
 20
184.569106
 30
0.0
 10
38.927387
 20
183.841678
 30
0.0
  0
LWPOLYLINE
  5
38b
100
AcDbEntity
  8
Layer_1
 62
7
100
AcDbPolyline
 90
2
 70
0
 10
36.965590
 20
183.372837
 30
0.0
 10
38.290271
 20
182.668339
 30
0.0
  0
LWPOLYLINE
  5
38c
100
AcDbEntity
  8
Layer_1
 62
7
100
AcDbPolyline
 90
2
 70
0
 10
36.337081
 20
182.165278
 30
0.0
 10
37.673968
 20
181.484064
 30
0.0
  0
LWPOLYLINE
  5
38d
100
AcDbEntity
  8
Layer_1
 62
7
100
AcDbPolyline
 90
2
 70
0
 10
35.729668
 20
180.946784
 30
0.0
 10
37.078126
 20
180.289206
 30
0.0
  0
LWPOLYLINE
  5
38e
100
AcDbEntity
  8
Layer_1
 62
7
100
AcDbPolyline
 90
2
 70
0
 10
34.579084
 20
178.479456
 30
0.0
 10
35.949625
 20
177.869503
 30
0.0
  0
LWPOLYLINE
  5
38f
100
AcDbEntity
  8
Layer_1
 62
7
100
AcDbPolyline
 90
2
 70
0
 10
34.036265
 20
177.231328
 30
0.0
 10
35.417248
 20
176.645012
 30
0.0
  0
LWPOLYLINE
  5
390
100
AcDbEntity
  8
Layer_1
 62
7
100
AcDbPolyline
 90
2
 70
0
 10
33.515318
 20
175.973323
 30
0.0
 10
34.906356
 20
175.411348
 30
0.0
  0
LWPOLYLINE
  5
391
100
AcDbEntity
  8
Layer_1
 62
7
100
AcDbPolyline
 90
2
 70
0
 10
33.016419
 20
174.706851
 30
0.0
 10
34.417018
 20
174.169217
 30
0.0
  0
LWPOLYLINE
  5
392
100
AcDbEntity
  8
Layer_1
 62
7
100
AcDbPolyline
 90
2
 70
0
 10
32.085262
 20
172.148506
 30
0.0
 10
33.503782
 20
171.660262
 30
0.0
  0
LWPOLYLINE
  5
393
100
AcDbEntity
  8
Layer_1
 62
7
100
AcDbPolyline
 90
2
 70
0
 10
31.653321
 20
170.857692
 30
0.0
 10
33.080166
 20
170.394142
 30
0.0
  0
LWPOLYLINE
  5
394
100
AcDbEntity
  8
Layer_1
 62
7
100
AcDbPolyline
 90
2
 70
0
 10
31.243993
 20
169.559470
 30
0.0
 10
32.678670
 20
169.120614
 30
0.0
  0
LWPOLYLINE
  5
395
100
AcDbEntity
  8
Layer_1
 62
7
100
AcDbPolyline
 90
2
 70
0
 10
30.857349
 20
168.254192
 30
0.0
 10
32.299469
 20
167.840737
 30
0.0
  0
LWPOLYLINE
  5
396
100
AcDbEntity
  8
Layer_1
 62
7
100
AcDbPolyline
 90
2
 70
0
 10
30.152746
 20
165.624234
 30
0.0
 10
31.608413
 20
165.261578
 30
0.0
  0
LWPOLYLINE
  5
397
100
AcDbEntity
  8
Layer_1
 62
7
100
AcDbPolyline
 90
2
 70
0
 10
29.834928
 20
164.300612
 30
0.0
 10
31.296733
 20
163.963356
 30
0.0
  0
LWPOLYLINE
  5
398
100
AcDbEntity
  8
Layer_1
 62
7
100
AcDbPolyline
 90
2
 70
0
 10
29.540323
 20
162.971698
 30
0.0
 10
31.007773
 20
162.659842
 30
0.0
  0
LWPOLYLINE
  5
399
100
AcDbEntity
  8
Layer_1
 62
7
100
AcDbPolyline
 90
2
 70
0
 10
29.268896
 20
161.637845
 30
0.0
 10
30.741602
 20
161.351389
 30
0.0
  0
LWPOLYLINE
  5
39a
100
AcDbEntity
  8
Layer_1
 62
7
100
AcDbPolyline
 90
2
 70
0
 10
28.796174
 20
158.956734
 30
0.0
 10
30.277947
 20
158.721784
 30
0.0
  0
LWPOLYLINE
  5
39b
100
AcDbEntity
  8
Layer_1
 62
7
100
AcDbPolyline
 90
2
 70
0
 10
28.594950
 20
157.610181
 30
0.0
 10
30.080603
 20
157.401337
 30
0.0
  0
LWPOLYLINE
  5
39c
100
AcDbEntity
  8
Layer_1
 62
7
100
AcDbPolyline
 90
2
 70
0
 10
28.417255
 20
156.260453
 30
0.0
 10
29.906330
 20
156.077714
 30
0.0
  0
LWPOLYLINE
  5
39d
100
AcDbEntity
  8
Layer_1
 62
7
100
AcDbPolyline
 90
2
 70
0
 10
28.263162
 20
154.907903
 30
0.0
 10
29.755200
 20
154.751270
 30
0.0
  0
LWPOLYLINE
  5
39e
100
AcDbEntity
  8
Layer_1
 62
7
100
AcDbPolyline
 90
2
 70
0
 10
28.025884
 20
152.196101
 30
0.0
 10
29.522473
 20
152.091326
 30
0.0
  0
LWPOLYLINE
  5
39f
100
AcDbEntity
  8
Layer_1
 62
7
100
AcDbPolyline
 90
2
 70
0
 10
27.942805
 20
150.837201
 30
0.0
 10
29.440981
 20
150.758531
 30
0.0
  0
LWPOLYLINE
  5
3a0
100
AcDbEntity
  8
Layer_1
 62
7
100
AcDbPolyline
 90
2
 70
0
 10
27.883397
 20
149.477242
 30
0.0
 10
29.382738
 20
149.424678
 30
0.0
  0
LWPOLYLINE
  5
3a1
100
AcDbEntity
  8
Layer_1
 62
7
100
AcDbPolyline
 90
2
 70
0
 10
27.847766
 20
148.116226
 30
0.0
 10
29.347777
 20
148.090120
 30
0.0
  0
LWPOLYLINE
  5
3a2
100
AcDbEntity
  8
Layer_1
 62
7
100
AcDbPolyline
 90
2
 70
0
 10
113.986151
 20
224.325398
 30
0.0
 10
113.829518
 20
222.833501
 30
0.0
  0
LWPOLYLINE
  5
3a3
100
AcDbEntity
  8
Layer_1
 62
7
100
AcDbPolyline
 90
2
 70
0
 10
120.716093
 20
223.319628
 30
0.0
 10
120.429637
 20
221.847134
 30
0.0
  0
LWPOLYLINE
  5
3a4
100
AcDbEntity
  8
Layer_1
 62
7
100
AcDbPolyline
 90
2
 70
0
 10
127.332440
 20
221.731423
 30
0.0
 10
126.918985
 20
220.289267
 30
0.0
  0
LWPOLYLINE
  5
3a5
100
AcDbEntity
  8
Layer_1
 62
7
100
AcDbPolyline
 90
2
 70
0
 10
133.785098
 20
219.572070
 30
0.0
 10
133.247465
 20
218.171542
 30
0.0
  0
LWPOLYLINE
  5
3a6
100
AcDbEntity
  8
Layer_1
 62
7
100
AcDbPolyline
 90
2
 70
0
 10
140.025032
 20
216.858856
 30
0.0
 10
139.367454
 20
215.510539
 30
0.0
  0
LWPOLYLINE
  5
3a7
100
AcDbEntity
  8
Layer_1
 62
7
100
AcDbPolyline
 90
2
 70
0
 10
146.004968
 20
213.612242
 30
0.0
 10
145.232385
 20
212.326367
 30
0.0
  0
LWPOLYLINE
  5
3a8
100
AcDbEntity
  8
Layer_1
 62
7
100
AcDbPolyline
 90
2
 70
0
 10
151.679046
 20
209.856570
 30
0.0
 10
150.797454
 20
208.643014
 30
0.0
  0
LWPOLYLINE
  5
3a9
100
AcDbEntity
  8
Layer_1
 62
7
100
AcDbPolyline
 90
2
 70
0
 10
157.004226
 20
205.620767
 30
0.0
 10
156.019976
 20
204.488351
 30
0.0
  0
LWPOLYLINE
  5
3aa
100
AcDbEntity
  8
Layer_1
 62
7
100
AcDbPolyline
 90
2
 70
0
 10
161.939940
 20
200.936937
 30
0.0
 10
160.860793
 20
199.894831
 30
0.0
  0
LWPOLYLINE
  5
3ab
100
AcDbEntity
  8
Layer_1
 62
7
100
AcDbPolyline
 90
2
 70
0
 10
166.448793
 20
195.840709
 30
0.0
 10
165.282862
 20
194.896676
 30
0.0
  0
LWPOLYLINE
  5
3ac
100
AcDbEntity
  8
Layer_1
 62
7
100
AcDbPolyline
 90
2
 70
0
 10
170.496212
 20
190.370889
 30
0.0
 10
169.252318
 20
189.531984
 30
0.0
  0
LWPOLYLINE
  5
3ad
100
AcDbEntity
  8
Layer_1
 62
7
100
AcDbPolyline
 90
2
 70
0
 10
108.550551
 20
224.705339
 30
0.0
 10
108.498340
 20
223.206034
 30
0.0
  0
LWPOLYLINE
  5
3ae
100
AcDbEntity
  8
Layer_1
 62
7
100
AcDbPolyline
 90
2
 70
0
 10
115.334115
 20
224.171939
 30
0.0
 10
115.151376
 20
222.682864
 30
0.0
  0
LWPOLYLINE
  5
3af
100
AcDbEntity
  8
Layer_1
 62
7
100
AcDbPolyline
 90
2
 70
0
 10
122.045360
 20
223.049401
 30
0.0
 10
121.733151
 20
221.581845
 30
0.0
  0
LWPOLYLINE
  5
3b0
100
AcDbEntity
  8
Layer_1
 62
7
100
AcDbPolyline
 90
2
 70
0
 10
128.633132
 20
221.346189
 30
0.0
 10
128.194276
 20
219.911442
 30
0.0
  0
LWPOLYLINE
  5
3b1
100
AcDbEntity
  8
Layer_1
 62
7
100
AcDbPolyline
 90
2
 70
0
 10
135.047337
 20
219.075006
 30
0.0
 10
134.485362
 20
217.684003
 30
0.0
  0
LWPOLYLINE
  5
3b2
100
AcDbEntity
  8
Layer_1
 62
7
100
AcDbPolyline
 90
2
 70
0
 10
141.239293
 20
216.253842
 30
0.0
 10
140.558079
 20
214.916814
 30
0.0
  0
LWPOLYLINE
  5
3b3
100
AcDbEntity
  8
Layer_1
 62
7
100
AcDbPolyline
 90
2
 70
0
 10
147.161726
 20
212.903512
 30
0.0
 10
146.366565
 20
211.631042
 30
0.0
  0
LWPOLYLINE
  5
3b4
100
AcDbEntity
  8
Layer_1
 62
7
100
AcDbPolyline
 90
2
 70
0
 10
152.769482
 20
209.049767
 30
0.0
 10
151.866723
 20
207.851734
 30
0.0
  0
LWPOLYLINE
  5
3b5
100
AcDbEntity
  8
Layer_1
 62
7
100
AcDbPolyline
 90
2
 70
0
 10
158.020226
 20
204.721889
 30
0.0
 10
157.016573
 20
203.607112
 30
0.0
  0
LWPOLYLINE
  5
3b6
100
AcDbEntity
  8
Layer_1
 62
7
100
AcDbPolyline
 90
2
 70
0
 10
162.873743
 20
199.953039
 30
0.0
 10
161.776604
 20
198.929631
 30
0.0
  0
LWPOLYLINE
  5
3b7
100
AcDbEntity
  8
Layer_1
 62
7
100
AcDbPolyline
 90
2
 70
0
 10
167.293343
 20
194.779201
 30
0.0
 10
166.111185
 20
193.855628
 30
0.0
  0
LWPOLYLINE
  5
3b8
100
AcDbEntity
  8
Layer_1
 62
7
100
AcDbPolyline
 90
2
 70
0
 10
171.244807
 20
189.239884
 30
0.0
 10
169.986801
 20
188.422851
 30
0.0
  0
LWPOLYLINE
  5
3b9
100
AcDbEntity
  8
Layer_1
 62
7
100
AcDbPolyline
 90
2
 70
0
 10
109.905923
 20
224.646073
 30
0.0
 10
109.827254
 20
223.148178
 30
0.0
  0
LWPOLYLINE
  5
3ba
100
AcDbEntity
  8
Layer_1
 62
7
100
AcDbPolyline
 90
2
 70
0
 10
116.678904
 20
223.994845
 30
0.0
 10
116.470060
 20
222.509298
 30
0.0
  0
LWPOLYLINE
  5
3bb
100
AcDbEntity
  8
Layer_1
 62
7
100
AcDbPolyline
 90
2
 70
0
 10
123.369687
 20
222.755537
 30
0.0
 10
123.032079
 20
221.293978
 30
0.0
  0
LWPOLYLINE
  5
3bc
100
AcDbEntity
  8
Layer_1
 62
7
100
AcDbPolyline
 90
2
 70
0
 10
129.926768
 20
220.938026
 30
0.0
 10
129.463218
 20
219.511392
 30
0.0
  0
LWPOLYLINE
  5
3bd
100
AcDbEntity
  8
Layer_1
 62
7
100
AcDbPolyline
 90
2
 70
0
 10
136.300404
 20
218.556070
 30
0.0
 10
135.714440
 20
217.174945
 30
0.0
  0
LWPOLYLINE
  5
3be
100
AcDbEntity
  8
Layer_1
 62
7
100
AcDbPolyline
 90
2
 70
0
 10
142.442265
 20
215.627309
 30
0.0
 10
141.738121
 20
214.302628
 30
0.0
  0
LWPOLYLINE
  5
3bf
100
AcDbEntity
  8
Layer_1
 62
7
100
AcDbPolyline
 90
2
 70
0
 10
148.305785
 20
212.174673
 30
0.0
 10
147.488751
 20
210.916314
 30
0.0
  0
LWPOLYLINE
  5
3c0
100
AcDbEntity
  8
Layer_1
 62
7
100
AcDbPolyline
 90
2
 70
0
 10
153.845807
 20
208.223914
 30
0.0
 10
152.922235
 20
207.041756
 30
0.0
  0
LWPOLYLINE
  5
3c1
100
AcDbEntity
  8
Layer_1
 62
7
100
AcDbPolyline
 90
2
 70
0
 10
159.020351
 20
203.805373
 30
0.0
 10
157.997296
 20
202.708234
 30
0.0
  0
LWPOLYLINE
  5
3c2
100
AcDbEntity
  8
Layer_1
 62
7
100
AcDbPolyline
 90
2
 70
0
 10
163.790260
 20
198.952914
 30
0.0
 10
162.675482
 20
197.948909
 30
0.0
  0
LWPOLYLINE
  5
3c3
100
AcDbEntity
  8
Layer_1
 62
7
100
AcDbPolyline
 90
2
 70
0
 10
168.119196
 20
193.702876
 30
0.0
 10
166.920810
 20
192.800117
 30
0.0
  0
LWPOLYLINE
  5
3c4
100
AcDbEntity
  8
Layer_1
 62
7
100
AcDbPolyline
 90
2
 70
0
 10
171.973998
 20
188.095826
 30
0.0
 10
170.701529
 20
187.300664
 30
0.0
  0
LWPOLYLINE
  5
3c5
100
AcDbEntity
  8
Layer_1
 62
7
100
AcDbPolyline
 90
2
 70
0
 10
111.259885
 20
224.563523
 30
0.0
 10
111.155110
 20
223.066687
 30
0.0
  0
LWPOLYLINE
  5
3c6
100
AcDbEntity
  8
Layer_1
 62
7
100
AcDbPolyline
 90
2
 70
0
 10
118.020518
 20
223.794467
 30
0.0
 10
117.785921
 20
222.312801
 30
0.0
  0
LWPOLYLINE
  5
3c7
100
AcDbEntity
  8
Layer_1
 62
7
100
AcDbPolyline
 90
2
 70
0
 10
124.688723
 20
222.439095
 30
0.0
 10
124.325715
 20
220.983534
 30
0.0
  0
LWPOLYLINE
  5
3c8
100
AcDbEntity
  8
Layer_1
 62
7
100
AcDbPolyline
 90
2
 70
0
 10
131.212996
 20
220.507637
 30
0.0
 10
130.724751
 20
219.089117
 30
0.0
  0
LWPOLYLINE
  5
3c9
100
AcDbEntity
  8
Layer_1
 62
7
100
AcDbPolyline
 90
2
 70
0
 10
137.544651
 20
218.014909
 30
0.0
 10
136.934346
 20
216.644720
 30
0.0
  0
LWPOLYLINE
  5
3ca
100
AcDbEntity
  8
Layer_1
 62
7
100
AcDbPolyline
 90
2
 70
0
 10
143.634654
 20
214.979962
 30
0.0
 10
142.907226
 20
213.667981
 30
0.0
  0
LWPOLYLINE
  5
3cb
100
AcDbEntity
  8
Layer_1
 62
7
100
AcDbPolyline
 90
2
 70
0
 10
149.436790
 20
211.426078
 30
0.0
 10
148.597885
 20
210.182184
 30
0.0
  0
LWPOLYLINE
  5
3cc
100
AcDbEntity
  8
Layer_1
 62
7
100
AcDbPolyline
 90
2
 70
0
 10
154.907315
 20
207.379364
 30
0.0
 10
153.963282
 20
206.213434
 30
0.0
  0
LWPOLYLINE
  5
3cd
100
AcDbEntity
  8
Layer_1
 62
7
100
AcDbPolyline
 90
2
 70
0
 10
160.004248
 20
202.871923
 30
0.0
 10
158.962143
 20
201.792423
 30
0.0
  0
LWPOLYLINE
  5
3ce
100
AcDbEntity
  8
Layer_1
 62
7
100
AcDbPolyline
 90
2
 70
0
 10
164.689137
 20
197.936914
 30
0.0
 10
163.557073
 20
196.952664
 30
0.0
  0
LWPOLYLINE
  5
3cf
100
AcDbEntity
  8
Layer_1
 62
7
100
AcDbPolyline
 90
2
 70
0
 10
168.925998
 20
192.612439
 30
0.0
 10
167.712443
 20
191.730848
 30
0.0
  0
LWPOLYLINE
  5
3d0
100
AcDbEntity
  8
Layer_1
 62
7
100
AcDbPolyline
 90
2
 70
0
 10
172.682729
 20
186.939067
 30
0.0
 10
171.396501
 20
186.166484
 30
0.0
  0
LWPOLYLINE
  5
3d1
100
AcDbEntity
  8
Layer_1
 62
7
100
AcDbPolyline
 90
2
 70
0
 10
174.044451
 20
184.581806
 30
0.0
 10
172.732118
 20
183.854378
 30
0.0
  0
LWPOLYLINE
  5
3d2
100
AcDbEntity
  8
Layer_1
 62
7
100
AcDbPolyline
 90
2
 70
0
 10
174.693915
 20
183.385537
 30
0.0
 10
173.369587
 20
182.681039
 30
0.0
  0
LWPOLYLINE
  5
3d3
100
AcDbEntity
  8
Layer_1
 62
7
100
AcDbPolyline
 90
2
 70
0
 10
175.322918
 20
182.177978
 30
0.0
 10
173.986243
 20
181.497117
 30
0.0
  0
LWPOLYLINE
  5
3d4
100
AcDbEntity
  8
Layer_1
 62
7
100
AcDbPolyline
 90
2
 70
0
 10
175.930401
 20
180.959837
 30
0.0
 10
174.582085
 20
180.302259
 30
0.0
  0
LWPOLYLINE
  5
3d5
100
AcDbEntity
  8
Layer_1
 62
7
100
AcDbPolyline
 90
2
 70
0
 10
177.081515
 20
178.492862
 30
0.0
 10
175.710973
 20
177.882556
 30
0.0
  0
LWPOLYLINE
  5
3d6
100
AcDbEntity
  8
Layer_1
 62
7
100
AcDbPolyline
 90
2
 70
0
 10
177.624440
 20
177.244381
 30
0.0
 10
176.243668
 20
176.658417
 30
0.0
  0
LWPOLYLINE
  5
3d7
100
AcDbEntity
  8
Layer_1
 62
7
100
AcDbPolyline
 90
2
 70
0
 10
178.145846
 20
175.987081
 30
0.0
 10
176.754843
 20
175.424753
 30
0.0
  0
LWPOLYLINE
  5
3d8
100
AcDbEntity
  8
Layer_1
 62
7
100
AcDbPolyline
 90
2
 70
0
 10
178.645026
 20
174.720609
 30
0.0
 10
177.244146
 20
174.182623
 30
0.0
  0
LWPOLYLINE
  5
3d9
100
AcDbEntity
  8
Layer_1
 62
7
100
AcDbPolyline
 90
2
 70
0
 10
179.576360
 20
172.162264
 30
0.0
 10
178.157840
 20
171.674020
 30
0.0
  0
LWPOLYLINE
  5
3da
100
AcDbEntity
  8
Layer_1
 62
7
100
AcDbPolyline
 90
2
 70
0
 10
180.008865
 20
170.871451
 30
0.0
 10
178.581879
 20
170.407901
 30
0.0
  0
LWPOLYLINE
  5
3db
100
AcDbEntity
  8
Layer_1
 62
7
100
AcDbPolyline
 90
2
 70
0
 10
180.418440
 20
169.573228
 30
0.0
 10
178.983693
 20
169.134726
 30
0.0
  0
LWPOLYLINE
  5
3dc
100
AcDbEntity
  8
Layer_1
 62
7
100
AcDbPolyline
 90
2
 70
0
 10
180.805085
 20
168.267951
 30
0.0
 10
179.362929
 20
167.854495
 30
0.0
  0
LWPOLYLINE
  5
3dd
100
AcDbEntity
  8
Layer_1
 62
7
100
AcDbPolyline
 90
2
 70
0
 10
181.510287
 20
165.638698
 30
0.0
 10
180.054726
 20
165.275689
 30
0.0
  0
LWPOLYLINE
  5
3de
100
AcDbEntity
  8
Layer_1
 62
7
100
AcDbPolyline
 90
2
 70
0
 10
181.828140
 20
164.314723
 30
0.0
 10
180.366582
 20
163.977467
 30
0.0
  0
LWPOLYLINE
  5
3df
100
AcDbEntity
  8
Layer_1
 62
7
100
AcDbPolyline
 90
2
 70
0
 10
182.123062
 20
162.985809
 30
0.0
 10
180.655860
 20
162.673953
 30
0.0
  0
LWPOLYLINE
  5
3e0
100
AcDbEntity
  8
Layer_1
 62
7
100
AcDbPolyline
 90
2
 70
0
 10
182.394701
 20
161.651956
 30
0.0
 10
180.922207
 20
161.365853
 30
0.0
  0
LWPOLYLINE
  5
3e1
100
AcDbEntity
  8
Layer_1
 62
7
100
AcDbPolyline
 90
2
 70
0
 10
182.868129
 20
158.970845
 30
0.0
 10
181.386462
 20
158.736248
 30
0.0
  0
LWPOLYLINE
  5
3e2
100
AcDbEntity
  8
Layer_1
 62
7
100
AcDbPolyline
 90
2
 70
0
 10
183.069565
 20
157.624645
 30
0.0
 10
181.584018
 20
157.415801
 30
0.0
  0
LWPOLYLINE
  5
3e3
100
AcDbEntity
  8
Layer_1
 62
7
100
AcDbPolyline
 90
2
 70
0
 10
183.247365
 20
156.274917
 30
0.0
 10
181.758290
 20
156.092178
 30
0.0
  0
LWPOLYLINE
  5
3e4
100
AcDbEntity
  8
Layer_1
 62
7
100
AcDbPolyline
 90
2
 70
0
 10
183.401882
 20
154.922720
 30
0.0
 10
181.909985
 20
154.765734
 30
0.0
  0
LWPOLYLINE
  5
3e5
100
AcDbEntity
  8
Layer_1
 62
7
100
AcDbPolyline
 90
2
 70
0
 10
183.639654
 20
152.210564
 30
0.0
 10
182.143171
 20
152.105789
 30
0.0
  0
LWPOLYLINE
  5
3e6
100
AcDbEntity
  8
Layer_1
 62
7
100
AcDbPolyline
 90
2
 70
0
 10
183.722910
 20
150.851664
 30
0.0
 10
182.224662
 20
150.773348
 30
0.0
  0
LWPOLYLINE
  5
3e7
100
AcDbEntity
  8
Layer_1
 62
7
100
AcDbPolyline
 90
2
 70
0
 10
183.782529
 20
149.491706
 30
0.0
 10
182.283223
 20
149.439495
 30
0.0
  0
LWPOLYLINE
  5
3e8
100
AcDbEntity
  8
Layer_1
 62
7
100
AcDbPolyline
 90
2
 70
0
 10
183.818512
 20
148.131042
 30
0.0
 10
182.318501
 20
148.104584
 30
0.0
  0
LWPOLYLINE
  5
3e9
100
AcDbEntity
  8
Layer_1
 62
7
100
AcDbPolyline
 90
2
 70
0
 10
119.378007
 20
223.570453
 30
0.0
 10
118.335901
 20
217.661426
 30
0.0
  0
LWPOLYLINE
  5
3ea
100
AcDbEntity
  8
Layer_1
 62
7
100
AcDbPolyline
 90
2
 70
0
 10
132.510865
 20
220.051495
 30
0.0
 10
130.458757
 20
214.413401
 30
0.0
  0
LWPOLYLINE
  5
3eb
100
AcDbEntity
  8
Layer_1
 62
7
100
AcDbPolyline
 90
2
 70
0
 10
144.833393
 20
214.305451
 30
0.0
 10
141.833371
 20
209.109387
 30
0.0
  0
LWPOLYLINE
  5
3ec
100
AcDbEntity
  8
Layer_1
 62
7
100
AcDbPolyline
 90
2
 70
0
 10
155.970940
 20
206.506945
 30
0.0
 10
152.114021
 20
201.910603
 30
0.0
  0
LWPOLYLINE
  5
3ed
100
AcDbEntity
  8
Layer_1
 62
7
100
AcDbPolyline
 90
2
 70
0
 10
165.584840
 20
196.892692
 30
0.0
 10
160.988851
 20
193.036126
 30
0.0
  0
LWPOLYLINE
  5
3ee
100
AcDbEntity
  8
Layer_1
 62
7
100
AcDbPolyline
 90
2
 70
0
 10
173.383346
 20
185.755498
 30
0.0
 10
168.187282
 20
182.755476
 30
0.0
  0
LWPOLYLINE
  5
3ef
100
AcDbEntity
  8
Layer_1
 62
7
100
AcDbPolyline
 90
2
 70
0
 10
179.129743
 20
173.432970
 30
0.0
 10
173.491296
 20
171.380862
 30
0.0
  0
LWPOLYLINE
  5
3f0
100
AcDbEntity
  8
Layer_1
 62
7
100
AcDbPolyline
 90
2
 70
0
 10
182.648701
 20
160.299759
 30
0.0
 10
176.739673
 20
159.258006
 30
0.0
  0
LWPOLYLINE
  5
3f1
100
AcDbEntity
  8
Layer_1
 62
7
100
AcDbPolyline
 90
2
 70
0
 10
183.833682
 20
146.755209
 30
0.0
 10
177.833637
 20
146.755209
 30
0.0
  0
LWPOLYLINE
  5
3f2
100
AcDbEntity
  8
Layer_1
 62
7
100
AcDbPolyline
 90
2
 70
0
 10
92.288554
 20
223.570453
 30
0.0
 10
93.330660
 20
217.661426
 30
0.0
  0
LWPOLYLINE
  5
3f3
100
AcDbEntity
  8
Layer_1
 62
7
100
AcDbPolyline
 90
2
 70
0
 10
79.155696
 20
220.051495
 30
0.0
 10
81.207804
 20
214.413048
 30
0.0
  0
LWPOLYLINE
  5
3f4
100
AcDbEntity
  8
Layer_1
 62
7
100
AcDbPolyline
 90
2
 70
0
 10
66.833168
 20
214.305451
 30
0.0
 10
69.833190
 20
209.109034
 30
0.0
  0
LWPOLYLINE
  5
3f5
100
AcDbEntity
  8
Layer_1
 62
7
100
AcDbPolyline
 90
2
 70
0
 10
55.695621
 20
206.506592
 30
0.0
 10
59.552540
 20
201.910603
 30
0.0
  0
LWPOLYLINE
  5
3f6
100
AcDbEntity
  8
Layer_1
 62
7
100
AcDbPolyline
 90
2
 70
0
 10
46.081721
 20
196.892692
 30
0.0
 10
50.678062
 20
193.035773
 30
0.0
  0
LWPOLYLINE
  5
3f7
100
AcDbEntity
  8
Layer_1
 62
7
100
AcDbPolyline
 90
2
 70
0
 10
38.283215
 20
185.755145
 30
0.0
 10
43.479279
 20
182.755123
 30
0.0
  0
LWPOLYLINE
  5
3f8
100
AcDbEntity
  8
Layer_1
 62
7
100
AcDbPolyline
 90
2
 70
0
 10
32.537171
 20
173.432617
 30
0.0
 10
38.175265
 20
171.380509
 30
0.0
  0
LWPOLYLINE
  5
3f9
100
AcDbEntity
  8
Layer_1
 62
7
100
AcDbPolyline
 90
2
 70
0
 10
29.018212
 20
160.299759
 30
0.0
 10
34.927064
 20
159.257653
 30
0.0
  0
LWPOLYLINE
  5
3fa
100
AcDbEntity
  8
Layer_1
 62
7
100
AcDbPolyline
 90
2
 70
0
 10
27.833232
 20
146.755209
 30
0.0
 10
33.833241
 20
146.755209
 30
0.0
  0
LWPOLYLINE
  5
3fb
100
AcDbEntity
  8
Layer_1
 62
7
100
AcDbPolyline
 90
2
 70
0
 10
105.833457
 20
224.755434
 30
0.0
 10
105.833457
 20
218.755389
 30
0.0
  0
ENDSEC
  0
SECTION
  2
OBJECTS
  0
DICTIONARY
  5
C
330
0
100
AcDbDictionary
  3
ACAD_GROUP
350
D
  3
ACAD_MLINESTYLE
350
17
  0
DICTIONARY
  5
D
330
C
100
AcDbDictionary
  0
DICTIONARY
  5
1A
330
C
100
AcDbDictionary
  0
DICTIONARY
  5
17
330
C
100
AcDbDictionary
  3
STANDARD
350
18
  0
DICTIONARY
  5
19
330
C
100
AcDbDictionary
  0
ENDSEC
  0
EOF
